SplineFontDB: 3.0
FontName: MusiSync
FullName: MusiSync
FamilyName: MusiSync
Weight: Book
Copyright: Copyright (c) 2001, 2008 by Robert Allgeyer. SIL Open Font License.
Version: 5.002
ItalicAngle: 0
UnderlinePosition: -255.736
UnderlineWidth: 101.24
Ascent: 1199
Descent: 849
InvalidEm: 0
sfntRevision: 0x00050084
LayerCount: 2
Layer: 0 1 "Back" 1
Layer: 1 1 "Fore" 0
XUID: [1021 306 -465688538 3294]
StyleMap: 0x0040
FSType: 0
OS2Version: 3
OS2_WeightWidthSlopeOnly: 0
OS2_UseTypoMetrics: 0
CreationTime: 1200079209
ModificationTime: 1555809470
PfmFamily: 17
TTFWeight: 400
TTFWidth: 5
LineGap: 70
VLineGap: 0
Panose: 2 0 0 0 0 0 0 0 0 0
OS2TypoAscent: 1837
OS2TypoAOffset: 0
OS2TypoDescent: -201
OS2TypoDOffset: 0
OS2TypoLinegap: 137
OS2WinAscent: 2255
OS2WinAOffset: 0
OS2WinDescent: 414
OS2WinDOffset: 0
HheadAscent: 2255
HheadAOffset: 0
HheadDescent: -414
HheadDOffset: 0
OS2SubXSize: 418
OS2SubYSize: 418
OS2SubXOff: 0
OS2SubYOff: 586
OS2SupXSize: 418
OS2SupYSize: 418
OS2SupXOff: 0
OS2SupYOff: 586
OS2StrikeYSize: 102
OS2StrikeYPos: 512
OS2CapHeight: 1810
OS2XHeight: 1434
OS2Vendor: 'NONE'
OS2CodePages: 00000001.00000000
OS2UnicodeRanges: 00000003.00000000.00000000.00000000
MarkAttachClasses: 1
DEI: 91125
TtTable: prep
PUSHB_1
 0
CALL
EndTTInstrs
TtTable: fpgm
PUSHB_1
 0
FDEF
MPPEM
PUSHB_1
 0
LT
IF
PUSHB_2
 1
 1
INSTCTRL
EIF
PUSHW_1
 511
SCANCTRL
PUSHB_1
 68
SCVTCI
PUSHB_2
 0
 3
SDS
SDB
ENDF
PUSHB_1
 1
FDEF
DUP
DUP
RCVT
ROUND[Black]
WCVTP
PUSHB_1
 1
ADD
ENDF
PUSHB_1
 2
FDEF
PUSHB_1
 1
LOOPCALL
POP
ENDF
PUSHB_1
 3
FDEF
DUP
GC[cur]
PUSHB_1
 3
CINDEX
GC[cur]
GT
IF
SWAP
EIF
DUP
ROLL
DUP
ROLL
MD[grid]
ABS
ROLL
DUP
GC[cur]
DUP
ROUND[Grey]
SUB
ABS
PUSHB_1
 4
CINDEX
GC[cur]
DUP
ROUND[Grey]
SUB
ABS
GT
IF
SWAP
NEG
ROLL
EIF
MDAP[rnd]
DUP
PUSHB_1
 0
GTEQ
IF
ROUND[Black]
DUP
PUSHB_1
 0
EQ
IF
POP
PUSHB_1
 64
EIF
ELSE
ROUND[Black]
DUP
PUSHB_1
 0
EQ
IF
POP
PUSHB_1
 64
NEG
EIF
EIF
MSIRP[no-rp0]
ENDF
PUSHB_1
 4
FDEF
DUP
GC[cur]
PUSHB_1
 4
CINDEX
GC[cur]
GT
IF
SWAP
ROLL
EIF
DUP
GC[cur]
DUP

StartChar: exclam
Encoding: 33 33 1
Width: 488
VWidth: 2047
Flags: W
LayerCount: 2
Fore
SplineSet
428 231 m 2,0,1
 428 174 428 174 387 117 c 0,2,3
 347 62 347 62 277 31 c 0,4,5
 209 0 209 0 145 0 c 0,6,7
 87 0 87 0 43 33 c 0,8,9
 0 65 0 65 0 121 c 0,10,11
 0 181 0 181 43 236 c 0,12,13
 57 253 57 253 92 282 c 0,14,15
 121 306 121 306 156 328 c 1,16,17
 193 344 193 344 223.5 351 c 128,-1,18
 254 358 254 358 283 358 c 0,19,20
 344 358 344 358 391 324 c 1,21,-1
 391 483.703658598 l 2,22,23
 389.051315812 480.851829299 389.051315812 480.851829299 387 478 c 0,24,25
 347 423 347 423 277 392 c 0,26,27
 209 361 209 361 145 361 c 0,28,29
 87 361 87 361 43 394 c 0,30,31
 0 426 0 426 0 482 c 0,32,33
 0 542 0 542 43 597 c 0,34,35
 57 614 57 614 92 643 c 0,36,37
 121 667 121 667 156 689 c 1,38,39
 193 705 193 705 223.5 712 c 128,-1,40
 254 719 254 719 283 719 c 0,41,42
 344 719 344 719 391 685 c 1,43,-1
 391 845.703658598 l 2,44,45
 389.051315812 842.851829299 389.051315812 842.851829299 387 840 c 0,46,47
 347 785 347 785 277 754 c 0,48,49
 209 723 209 723 145 723 c 0,50,51
 87 723 87 723 43 756 c 0,52,53
 0 788 0 788 0 844 c 0,54,55
 0 904 0 904 43 959 c 0,56,57
 57 976 57 976 92 1005 c 0,58,59
 121 1029 121 1029 156 1051 c 1,60,61
 193 1067 193 1067 223.5 1074 c 128,-1,62
 254 1081 254 1081 283 1081 c 0,63,64
 344 1081 344 1081 391 1047 c 1,65,-1
 391 1441 l 1,66,-1
 391 1802 l 1,67,-1
 391 2164 l 1,68,-1
 428 2164 l 1,69,-1
 428 1802 l 1,70,-1
 428 1441 l 1,71,-1
 428 954 l 1,72,-1
 428 592 l 1,73,-1
 428 231 l 2,0,1
EndSplineSet
Validated: 1
EndChar

StartChar: quotedbl
Encoding: 34 34 2
Width: 488
VWidth: 2047
Flags: W
LayerCount: 2
Fore
SplineSet
135 201 m 0,0,1
 108 182 108 182 78 144 c 0,2,3
 41 97 41 97 41 74 c 1,4,5
 47 50 47 50 80 37 c 1,6,7
 119 37 119 37 158 58 c 1,8,9
 190 68 190 68 258 117 c 0,10,11
 287 138 287 138 293 142 c 0,12,13
 306 153 306 153 334 187 c 0,14,15
 381 240 381 240 381 271 c 0,16,17
 381 295 381 295 350 306 c 1,18,19
 285 306 285 306 135 201 c 0,0,1
428 231 m 2,20,21
 428 174 428 174 387 117 c 0,22,23
 347 62 347 62 277 31 c 0,24,25
 209 0 209 0 145 0 c 0,26,27
 87 0 87 0 43 33 c 0,28,29
 0 65 0 65 0 121 c 0,30,31
 0 181 0 181 43 236 c 0,32,33
 57 253 57 253 92 282 c 0,34,35
 121 306 121 306 156 328 c 1,36,37
 193 344 193 344 223.5 351 c 128,-1,38
 254 358 254 358 283 358 c 0,39,40
 344 358 344 358 391 324 c 1,41,-1
 391 484.703658598 l 2,42,43
 389.051315812 481.851829299 389.051315812 481.851829299 387 479 c 0,44,45
 347 424 347 424 277 393 c 0,46,47
 209 362 209 362 145 362 c 0,48,49
 87 362 87 362 43 395 c 0,50,51
 0 427 0 427 0 483 c 0,52,53
 0 543 0 543 43 598 c 0,54,55
 57 615 57 615 92 644 c 0,56,57
 121 668 121 668 156 690 c 1,58,59
 193 706 193 706 223.5 713 c 128,-1,60
 254 720 254 720 283 720 c 0,61,62
 344 720 344 720 391 686 c 1,63,-1
 391 846.703658598 l 2,64,65
 389.051315812 843.851829299 389.051315812 843.851829299 387 841 c 0,66,67
 347 786 347 786 277 755 c 0,68,69
 209 724 209 724 145 724 c 0,70,71
 87 724 87 724 43 757 c 0,72,73
 0 789 0 789 0 845 c 0,74,75
 0 905 0 905 43 960 c 0,76,77
 57 977 57 977 92 1006 c 0,78,79
 121 1030 121 1030 156 1052 c 1,80,81
 193 1068 193 1068 223.5 1075 c 128,-1,82
 254 1082 254 1082 283 1082 c 0,83,84
 344 1082 344 1082 391 1048 c 1,85,-1
 391 1441 l 1,86,-1
 391 1803 l 1,87,-1
 391 2165 l 1,88,-1
 428 2165 l 1,89,-1
 428 1803 l 1,90,-1
 428 1441 l 1,91,-1
 428 955 l 1,92,-1
 428 593 l 1,93,-1
 428 231 l 2,20,21
135 563 m 0,94,95
 108 544 108 544 78 506 c 0,96,97
 41 459 41 459 41 436 c 1,98,99
 47 412 47 412 80 399 c 1,100,101
 119 399 119 399 158 420 c 1,102,103
 190 430 190 430 258 479 c 0,104,105
 287 500 287 500 293 504 c 0,106,107
 306 515 306 515 334 549 c 0,108,109
 381 602 381 602 381 633 c 0,110,111
 381 657 381 657 350 668 c 1,112,113
 285 668 285 668 135 563 c 0,94,95
135 925 m 0,114,115
 108 906 108 906 78 868 c 0,116,117
 41 821 41 821 41 798 c 1,118,119
 47 774 47 774 80 761 c 1,120,121
 119 761 119 761 158 782 c 1,122,123
 190 792 190 792 258 841 c 0,124,125
 287 862 287 862 293 866 c 0,126,127
 306 877 306 877 334 911 c 0,128,129
 381 964 381 964 381 995 c 0,130,131
 381 1019 381 1019 350 1030 c 1,132,133
 285 1030 285 1030 135 925 c 0,114,115
EndSplineSet
Validated: 1
EndChar

StartChar: numbersign
Encoding: 35 35 3
Width: 512
VWidth: 2047
Flags: W
LayerCount: 2
Fore
SplineSet
74 291 m 1,0,-1
 0 279 l 1,1,-1
 0 389 l 1,2,-1
 74 406 l 1,3,-1
 74 578 l 1,4,-1
 135 578 l 1,5,-1
 135 418 l 1,6,-1
 246 434 l 1,7,-1
 246 655 l 1,8,-1
 295 655 l 1,9,-1
 295 442 l 1,10,-1
 373 455 l 1,11,-1
 373 340 l 1,12,-1
 295 328 l 1,13,-1
 295 164 l 1,14,-1
 373 184 l 1,15,-1
 373 61 l 1,16,-1
 295 49 l 1,17,-1
 295 -123 l 1,18,-1
 246 -123 l 1,19,-1
 246 41 l 1,20,-1
 135 25 l 1,21,-1
 135 -197 l 1,22,-1
 74 -197 l 1,23,-1
 74 12 l 1,24,-1
 0 0 l 1,25,-1
 0 115 l 1,26,-1
 74 131 l 1,27,-1
 74 291 l 1,0,-1
246 315 m 1,28,-1
 135 303 l 1,29,-1
 135 139 l 1,30,-1
 246 160 l 1,31,-1
 246 315 l 1,28,-1
EndSplineSet
Validated: 1
EndChar

StartChar: dollar
Encoding: 36 36 4
Width: 512
VWidth: 2047
Flags: W
LayerCount: 2
Fore
SplineSet
0 860 m 1,0,-1
 45 860 l 1,1,-1
 45 360 l 1,2,3
 109 406 109 406 184 406 c 0,4,5
 236 406 236 406 276.5 377 c 128,-1,6
 317 348 317 348 317 299 c 0,7,8
 317 264 317 264 287 233 c 0,9,10
 274 215 274 215 251.5 196.5 c 128,-1,11
 229 178 229 178 199 156 c 2,12,-1
 92 78 l 2,13,14
 63 59 63 59 40.5 38.5 c 128,-1,15
 18 18 18 18 0 0 c 1,16,-1
 0 860 l 1,0,-1
45 86 m 1,17,-1
 106 147 l 2,18,19
 123 164 123 164 136.5 176 c 128,-1,20
 150 188 150 188 158 201 c 0,21,22
 199 248 199 248 199 295 c 0,23,24
 199 311 199 311 192.5 322.5 c 128,-1,25
 186 334 186 334 178 344 c 0,26,27
 170 350 170 350 160 355 c 128,-1,28
 150 360 150 360 133 360 c 0,29,30
 76 360 76 360 45 299 c 1,31,-1
 45 86 l 1,17,-1
EndSplineSet
Validated: 1
EndChar

StartChar: percent
Encoding: 37 37 5
Width: 512
VWidth: 2047
Flags: W
LayerCount: 2
Fore
SplineSet
41 106 m 1,0,-1
 205 143 l 1,1,-1
 205 287 l 1,2,-1
 41 254 l 1,3,-1
 41 106 l 1,0,-1
0 598 m 1,4,-1
 41 598 l 1,5,-1
 41 360 l 1,6,-1
 250 406 l 1,7,-1
 250 -197 l 1,8,-1
 205 -197 l 1,9,-1
 205 33 l 1,10,-1
 0 -4 l 1,11,-1
 0 598 l 1,4,-1
EndSplineSet
Validated: 1
EndChar

StartChar: ampersand
Encoding: 38 38 6
Width: 1024
VWidth: 2047
Flags: W
LayerCount: 2
Fore
SplineSet
268 1036 m 2,0,1
 266 1034 266 1034 248.5 1017.5 c 128,-1,2
 231 1001 231 1001 203.5 948 c 128,-1,3
 176 895 176 895 156 805 c 1,4,-1
 156 616 l 1,5,6
 166 557 166 557 177 519 c 128,-1,7
 188 481 188 481 201.5 457.5 c 128,-1,8
 215 434 215 434 231.5 422 c 128,-1,9
 248 410 248 410 268 401 c 1,10,-1
 268 1036 l 2,0,1
362 1384 m 1,11,-1
 362 1118 l 1,12,13
 383 1118 383 1118 418 1110 c 128,-1,14
 453 1102 453 1102 489 1087 c 0,15,16
 555 1067 555 1067 604 1006 c 0,17,18
 645 952 645 952 645 877 c 0,19,20
 645 803 645 803 578 764 c 1,21,-1
 512 748 l 1,22,23
 487 752 487 752 474 759 c 128,-1,24
 461 766 461 766 446 788 c 0,25,26
 436 803 436 803 432 816 c 128,-1,27
 428 829 428 829 424 852 c 0,28,29
 422 874 422 874 430 898 c 128,-1,30
 438 922 438 922 449 938 c 0,31,32
 457 954 457 954 471 968.5 c 128,-1,33
 485 983 485 983 506 987 c 1,34,35
 537 987 537 987 537 1004 c 0,36,37
 537 1014 537 1014 514 1032 c 1,38,-1
 457 1057 l 2,39,40
 449 1059 449 1059 432.5 1062 c 128,-1,41
 416 1065 416 1065 399 1065 c 0,42,43
 385 1065 385 1065 372.5 1064 c 128,-1,44
 360 1063 360 1063 362 1061 c 2,45,-1
 362 381 l 1,46,47
 393 385 393 385 414.5 389 c 128,-1,48
 436 393 436 393 457.5 400.5 c 128,-1,49
 479 408 479 408 492 420 c 0,50,51
 516 440 516 440 537.5 464.5 c 128,-1,52
 559 489 559 489 573 520 c 0,53,54
 612 590 612 590 612 637 c 1,55,-1
 651 637 l 1,56,57
 633 479 633 479 549 401 c 0,58,59
 504 360 504 360 455 342 c 128,-1,60
 406 324 406 324 358 319 c 1,61,-1
 358 49 l 1,62,-1
 268 51 l 1,63,-1
 268 328 l 1,64,65
 229 340 229 340 183 370.5 c 128,-1,66
 137 401 137 401 92 451 c 0,67,68
 49 498 49 498 24.5 567.5 c 128,-1,69
 0 637 0 637 0 719 c 0,70,71
 0 858 0 858 78 967 c 0,72,73
 119 1020 119 1020 169 1056 c 128,-1,74
 219 1092 219 1092 268 1106 c 1,75,-1
 268 1384 l 1,76,-1
 362 1384 l 1,11,-1
EndSplineSet
Validated: 1
EndChar

StartChar: quotesingle
Encoding: 39 39 7
Width: 1024
VWidth: 2047
Flags: W
LayerCount: 2
Fore
SplineSet
0 739 m 0,0,1
 0 834 0 834 53 924 c 1,2,3
 98 1010 98 1010 188 1071 c 0,4,5
 276 1128 276 1128 371 1128 c 2,6,-1
 408 1128 l 2,7,8
 412 1126 412 1126 421 1125 c 128,-1,9
 430 1124 430 1124 444 1120 c 0,10,11
 473 1110 473 1110 483.5 1106 c 128,-1,12
 494 1102 494 1102 510 1096 c 0,13,14
 543 1079 543 1079 571.5 1059.5 c 128,-1,15
 600 1040 600 1040 623 1012 c 0,16,17
 670 958 670 958 670 889 c 0,18,19
 670 829 670 829 631 784 c 1,20,21
 584 743 584 743 528 743 c 0,22,23
 426 743 426 743 406 856 c 1,24,25
 406 907 406 907 438 940 c 1,26,27
 469 979 469 979 516 989 c 1,28,-1
 532 991 l 1,29,-1
 549 997 l 1,30,-1
 555 1010 l 1,31,32
 547 1042 547 1042 498 1059 c 1,33,34
 459 1079 459 1079 410 1079 c 0,35,36
 360 1079 360 1079 319 1051 c 0,37,38
 301 1042 301 1042 279 1020 c 0,39,40
 262 1004 262 1004 248 983 c 0,41,42
 207 905 207 905 207 735 c 0,43,44
 207 549 207 549 221 514 c 1,45,46
 258 362 258 362 401 362 c 0,47,48
 512 362 512 362 584 485 c 1,49,50
 618 555 618 555 631 631 c 1,51,-1
 678 631 l 1,52,53
 672 559 672 559 647.5 501.5 c 128,-1,54
 623 444 623 444 582 397 c 0,55,56
 492 305 492 305 352 305 c 0,57,58
 244 305 244 305 166 371 c 1,59,60
 84 432 84 432 43 535 c 0,61,62
 25 582 25 582 12.5 637 c 128,-1,63
 0 692 0 692 0 739 c 0,0,1
EndSplineSet
Validated: 1
EndChar

StartChar: parenleft
Encoding: 40 40 8
Width: 1024
VWidth: 2047
Flags: W
LayerCount: 2
Fore
SplineSet
453 498 m 1,0,1
 399 481 399 481 365 440 c 0,2,3
 330 398 330 398 323 350 c 128,-1,4
 316 302 316 302 336 254 c 128,-1,5
 356 206 356 206 411 177 c 1,6,7
 424 177 424 177 427 166 c 0,8,9
 430 157 430 157 417 156 c 0,10,11
 379 154 379 154 324 200 c 0,12,13
 250 262 250 262 242 359 c 0,14,15
 238 407 238 407 252 453 c 128,-1,16
 266 499 266 499 289 536 c 0,17,18
 289 536 289 536 358 605 c 0,19,20
 364 612 364 612 370 615 c 0,21,22
 381 622 381 622 391 629 c 0,23,24
 400 635 400 635 420 649 c 1,25,-1
 380 841 l 1,26,27
 322 793 322 793 275 744 c 0,28,29
 220 687 220 687 181 631 c 0,30,31
 136 567 136 567 113 505 c 0,32,33
 88 438 88 438 88 365 c 0,34,35
 88 299 88 299 117 237 c 0,36,37
 144 179 144 179 193 133 c 128,-1,38
 242 87 242 87 302 63 c 0,39,40
 364 38 364 38 428 38 c 0,41,42
 430 38 430 38 448 40 c 0,43,44
 477 43 477 43 486 45 c 0,45,46
 506 49 506 49 523 53 c 0,47,48
 539 56 539 56 539 60 c 2,49,-1
 533 91 l 2,50,51
 491 303 491 303 453 498 c 1,0,1
491 502 m 1,52,-1
 579 73 l 1,53,54
 656 103 656 103 683 174 c 0,55,56
 710 244 710 244 695 317 c 0,57,58
 681 390 681 390 627 446 c 128,-1,59
 573 502 573 502 491 502 c 1,52,-1
377 1080 m 1,60,61
 411 1097 411 1097 440 1132 c 0,62,63
 463 1160 463 1160 492 1206 c 0,64,65
 520 1249 520 1249 535 1286 c 128,-1,66
 550 1323 550 1323 563 1361 c 0,67,68
 573 1392 573 1392 579 1441 c 0,69,70
 584 1484 584 1484 565 1515 c 0,71,72
 548 1544 548 1544 531 1547 c 0,73,74
 512 1551 512 1551 489 1543 c 128,-1,75
 466 1535 466 1535 449 1519 c 128,-1,76
 432 1503 432 1503 422 1489 c 0,77,78
 406 1467 406 1467 380 1395 c 0,79,80
 362 1345 362 1345 356 1288 c 0,81,82
 350 1247 350 1247 354.16015625 1181.14013672 c 0,83,84
 358.09806412 1118.79871049 358.09806412 1118.79871049 377 1080 c 1,60,61
345 1046.51953125 m 513,85,86
 326.639648438 1117.79980469 326.639648438 1117.79980469 312.599609375 1186.37988281 c 640,-1,87
 298.559570312 1254.95996094 298.559570312 1254.95996094 298.559570312 1327.3203125 c 512,88,89
 298.559570312 1380.24023438 298.559570312 1380.24023438 306.120117188 1443.41992188 c 640,-1,90
 313.6796875 1506.59960938 313.6796875 1506.59960938 333.66015625 1566.54003906 c 640,-1,91
 353.639648438 1626.48046875 353.639648438 1626.48046875 388.740234375 1674 c 640,-1,92
 423.83984375 1721.51953125 423.83984375 1721.51953125 482.16015625 1743.12011719 c 512,93,94
 487.559570312 1745.28027344 487.559570312 1745.28027344 492.959960938 1745.28027344 c 512,95,96
 500.51953125 1745.28027344 500.51953125 1745.28027344 510.780273438 1736.63964844 c 640,-1,97
 521.040039062 1728 521.040039062 1728 532.379882812 1711.25976562 c 640,-1,98
 543.719726562 1694.51953125 543.719726562 1694.51953125 552.360351562 1676.70019531 c 640,-1,99
 561 1658.87988281 561 1658.87988281 565.3203125 1652.40039062 c 512,100,101
 594.48046875 1597.3203125 594.48046875 1597.3203125 607.98046875 1535.21972656 c 640,-1,102
 621.48046875 1473.12011719 621.48046875 1473.12011719 623.639648438 1411.55957031 c 512,103,104
 627.959960938 1318.6796875 627.959960938 1318.6796875 613.379882812 1227.95996094 c 640,-1,105
 598.799804688 1137.24023438 598.799804688 1137.24023438 554.51953125 1050.83984375 c 512,106,107
 539.400390625 1024.91992188 539.400390625 1024.91992188 523.740234375 998.459960938 c 640,-1,108
 508.080078125 972 508.080078125 972 486.48046875 947.16015625 c 512,109,110
 482.16015625 942.83984375 482.16015625 942.83984375 470.8203125 931.5 c 640,-1,111
 459.48046875 920.16015625 459.48046875 920.16015625 447.599609375 908.280273438 c 640,-1,112
 435.719726562 896.400390625 435.719726562 896.400390625 426.540039062 886.139648438 c 640,-1,113
 417.360351562 875.879882812 417.360351562 875.879882812 417.360351562 873.719726562 c 514,114,-1
 461.639648438 657.719726562 l 514,115,116
 461.639648438 659.879882812 461.639648438 659.879882812 483.780273438 657.719726562 c 640,-1,117
 505.919921875 655.559570312 505.919921875 655.559570312 532.379882812 650.700195312 c 640,-1,118
 558.83984375 645.83984375 558.83984375 645.83984375 582.059570312 641.51953125 c 640,-1,119
 605.280273438 637.200195312 605.280273438 637.200195312 609.599609375 635.040039062 c 512,120,121
 665.759765625 609.120117188 665.759765625 609.120117188 706.259765625 563.759765625 c 640,-1,122
 746.759765625 518.400390625 746.759765625 518.400390625 771.059570312 461.700195312 c 640,-1,123
 795.360351562 405 795.360351562 405 795.360351562 346.6796875 c 640,-1,124
 795.360351562 288.360351562 795.360351562 288.360351562 778.080078125 227.879882812 c 513,125,126
 733.799804688 113.400390625 733.799804688 113.400390625 636.599609375 58.3203125 c 512,127,128
 625.799804688 51.83984375 625.799804688 51.83984375 605.8203125 43.740234375 c 640,-1,129
 585.83984375 35.6396484375 585.83984375 35.6396484375 590.16015625 18.3603515625 c 512,130,131
 616.080078125 -99.3603515625 616.080078125 -99.3603515625 625.259765625 -143.639648438 c 640,-1,132
 634.440429688 -187.919921875 634.440429688 -187.919921875 638.759765625 -258.120117188 c 512,133,134
 643.080078125 -325.080078125 643.080078125 -325.080078125 615.540039062 -379.080078125 c 640,-1,135
 588 -433.080078125 588 -433.080078125 541.559570312 -467.099609375 c 640,-1,136
 495.120117188 -501.120117188 495.120117188 -501.120117188 456.780273438 -507.059570312 c 640,-1,137
 418.440429688 -513 418.440429688 -513 404.400390625 -513 c 512,138,139
 355.799804688 -513 355.799804688 -513 309.360351562 -494.639648438 c 512,140,141
 252.120117188 -473.040039062 252.120117188 -473.040039062 213.240234375 -428.759765625 c 640,-1,142
 174.360351562 -384.48046875 174.360351562 -384.48046875 174.360351562 -320.759765625 c 512,143,144
 174.360351562 -280.799804688 174.360351562 -280.799804688 197.580078125 -238.6796875 c 640,-1,145
 220.799804688 -196.559570312 220.799804688 -196.559570312 258.599609375 -178.200195312 c 512,146,147
 300.719726562 -156.599609375 300.719726562 -156.599609375 334.740234375 -166.3203125 c 640,-1,148
 368.759765625 -176.040039062 368.759765625 -176.040039062 390.900390625 -203.040039062 c 640,-1,149
 413.040039062 -230.040039062 413.040039062 -230.040039062 421.6796875 -268.379882812 c 640,-1,150
 430.3203125 -306.719726562 430.3203125 -306.719726562 420.599609375 -340.200195312 c 640,-1,151
 410.879882812 -373.6796875 410.879882812 -373.6796875 381.1796875 -396.900390625 c 640,-1,152
 351.48046875 -420.120117188 351.48046875 -420.120117188 298.559570312 -417.959960938 c 513,153,154
 320.16015625 -456.83984375 320.16015625 -456.83984375 359.040039062 -467.099609375 c 640,-1,155
 397.919921875 -477.360351562 397.919921875 -477.360351562 438.959960938 -468.719726562 c 640,-1,156
 480 -460.080078125 480 -460.080078125 516.1796875 -436.860351562 c 640,-1,157
 552.360351562 -413.639648438 552.360351562 -413.639648438 572.879882812 -386.639648438 c 512,158,159
 585.83984375 -367.200195312 585.83984375 -367.200195312 592.3203125 -335.879882812 c 640,-1,160
 598.799804688 -304.559570312 598.799804688 -304.559570312 599.879882812 -270.540039062 c 640,-1,161
 600.959960938 -236.51953125 600.959960938 -236.51953125 597.719726562 -217.620117188 c 640,-1,162
 594.48046875 -198.719726562 594.48046875 -198.719726562 586.919921875 -158.759765625 c 512,163,164
 554.51953125 -28.080078125 554.51953125 -28.080078125 545.879882812 5.400390625 c 512,165,166
 541.559570312 16.2001953125 541.559570312 16.2001953125 522.66015625 12.419921875 c 640,-1,167
 503.759765625 8.6396484375 503.759765625 8.6396484375 490.799804688 5.400390625 c 512,168,169
 397.919921875 -6.48046875 397.919921875 -6.48046875 335.280273438 16.2001953125 c 513,170,171
 238.080078125 42.1201171875 238.080078125 42.1201171875 164.099609375 108.540039062 c 640,-1,172
 90.1201171875 174.959960938 90.1201171875 174.959960938 45.2998046875 269.459960938 c 640,-1,173
 0.48046875 363.959960938 0.48046875 363.959960938 0.48046875 413.099609375 c 640,-1,174
 0.48046875 462.240234375 0.48046875 462.240234375 0.48046875 475.200195312 c 512,175,176
 0.48046875 562.6796875 0.48046875 562.6796875 30.7197265625 639.360351562 c 513,177,178
 87.9599609375 759.240234375 87.9599609375 759.240234375 166.259765625 859.6796875 c 640,-1,179
 244.559570312 960.120117188 244.559570312 960.120117188 345 1046.51953125 c 513,85,86
EndSplineSet
Validated: 33
EndChar

StartChar: parenright
Encoding: 41 41 9
Width: 1024
VWidth: 2047
Flags: W
LayerCount: 2
Fore
SplineSet
209 223 m 2,0,1
 236 244 236 244 248 256 c 0,2,3
 254 262 254 262 262 271.5 c 128,-1,4
 270 281 270 281 281 293 c 2,5,-1
 352 379 l 2,6,7
 387 426 387 426 425 476 c 128,-1,8
 463 526 463 526 492 582 c 0,9,10
 512 623 512 623 526.5 655.5 c 128,-1,11
 541 688 541 688 561 750 c 1,12,-1
 582 860 l 2,13,14
 586 889 586 889 589 914.5 c 128,-1,15
 592 940 592 940 592 963 c 2,16,-1
 586 1057 l 2,17,18
 584 1083 584 1083 581 1105.5 c 128,-1,19
 578 1128 578 1128 569 1145 c 1,20,21
 559 1188 559 1188 534.5 1241 c 128,-1,22
 510 1294 510 1294 485 1325 c 0,23,24
 434 1382 434 1382 358 1382 c 0,25,26
 285 1382 285 1382 219 1348 c 1,27,28
 156 1309 156 1309 125 1221 c 1,29,-1
 119 1200 l 1,30,31
 119 1182 119 1182 131 1174 c 2,32,-1
 160 1161 l 1,33,-1
 186 1167 l 1,34,-1
 227 1176 l 1,35,36
 276 1176 276 1176 313 1133 c 0,37,38
 350 1092 350 1092 350 1032 c 0,39,40
 350 995 350 995 332 956 c 0,41,42
 311 915 311 915 283 893 c 1,43,44
 242 870 242 870 207 870 c 0,45,46
 135 870 135 870 86 926 c 0,47,48
 35 983 35 983 35 1069 c 256,49,50
 35 1155 35 1155 67.5 1222.5 c 128,-1,51
 100 1290 100 1290 152.5 1337 c 128,-1,52
 205 1384 205 1384 271.5 1409 c 128,-1,53
 338 1434 338 1434 403 1434 c 0,54,55
 496 1434 496 1434 582 1372 c 0,56,57
 668 1309 668 1309 718 1202.5 c 128,-1,58
 768 1096 768 1096 768 979 c 0,59,60
 768 758 768 758 655 578 c 0,61,62
 639 553 639 553 624.5 531.5 c 128,-1,63
 610 510 610 510 596 492 c 0,64,65
 582 469 582 469 564.5 447.5 c 128,-1,66
 547 426 547 426 528 403 c 0,67,68
 496 367 496 367 457 329 c 128,-1,69
 418 291 418 291 373 252 c 0,70,71
 348 233 348 233 313.5 206.5 c 128,-1,72
 279 180 279 180 225 145 c 2,73,-1
 8 0 l 1,74,-1
 0 39 l 1,75,-1
 209 223 l 2,0,1
825 1202 m 0,76,77
 825 1241 825 1241 849.5 1269.5 c 128,-1,78
 874 1298 874 1298 905 1298 c 0,79,80
 930 1298 930 1298 958 1270 c 1,81,82
 981 1241 981 1241 981 1200 c 256,83,84
 981 1159 981 1159 958 1130 c 1,85,86
 930 1102 930 1102 903 1102 c 0,87,88
 872 1102 872 1102 848 1133 c 0,89,90
 825 1167 825 1167 825 1202 c 0,76,77
825 807 m 0,91,92
 825 842 825 842 848 877 c 0,93,94
 872 907 872 907 905 907 c 0,95,96
 930 907 930 907 956 874 c 0,97,98
 967 860 967 860 974 844.5 c 128,-1,99
 981 829 981 829 981 807 c 0,100,101
 981 762 981 762 960.5 735.5 c 128,-1,102
 940 709 940 709 905 709 c 0,103,104
 872 709 872 709 848 735 c 0,105,106
 825 764 825 764 825 807 c 0,91,92
EndSplineSet
Validated: 1
EndChar

StartChar: asterisk
Encoding: 42 42 10
Width: 512
VWidth: 2047
Flags: W
LayerCount: 2
Fore
SplineSet
180 365 m 1,0,-1
 180 373 l 1,1,2
 152 354 152 354 142.5 348 c 128,-1,3
 133 342 133 342 123 336 c 0,4,5
 117 330 117 330 110.5 322.5 c 128,-1,6
 104 315 104 315 82 291 c 0,7,8
 66 274 66 274 57.5 268 c 128,-1,9
 49 262 49 262 37 262 c 0,10,11
 0 262 0 262 0 299 c 0,12,13
 0 322 0 322 14.5 332 c 128,-1,14
 29 342 29 342 66 348 c 0,15,16
 100 354 100 354 120.5 362.5 c 128,-1,17
 141 371 141 371 172 389 c 1,18,-1
 160 397 l 2,19,20
 147 406 147 406 146 404.5 c 128,-1,21
 145 403 145 403 131 414 c 1,22,23
 119 418 119 418 103.5 421 c 128,-1,24
 88 424 88 424 70 430 c 0,25,26
 33 436 33 436 16.5 446.5 c 128,-1,27
 0 457 0 457 0 479 c 0,28,29
 0 516 0 516 33 516 c 0,30,31
 45 516 45 516 56.5 509 c 128,-1,32
 68 502 68 502 86 479 c 0,33,34
 111 451 111 451 130.5 437.5 c 128,-1,35
 150 424 150 424 180 406 c 1,36,-1
 180 418 l 2,37,38
 180 440 180 440 175 463.5 c 128,-1,39
 170 487 170 487 164 516 c 1,40,41
 152 547 152 547 152 569 c 0,42,43
 152 602 152 602 188 602 c 0,44,45
 225 602 225 602 225 565 c 0,46,47
 225 555 225 555 224 543.5 c 128,-1,48
 223 532 223 532 217 516 c 0,49,50
 197 477 197 477 197 430 c 2,51,-1
 197 401 l 1,52,-1
 205 406 l 2,53,54
 213 410 213 410 217 413 c 128,-1,55
 221 416 221 416 246 436 c 0,56,57
 246 438 246 438 258 451 c 2,58,-1
 283 475 l 1,59,60
 317 516 317 516 340 516 c 0,61,62
 377 516 377 516 377 475 c 0,63,64
 377 453 377 453 365.5 445.5 c 128,-1,65
 354 438 354 438 324 434 c 0,66,67
 289 428 289 428 267.5 420 c 128,-1,68
 246 412 246 412 205 389 c 1,69,-1
 217 381 l 2,70,71
 256 354 256 354 315 348 c 0,72,73
 350 342 350 342 363.5 334 c 128,-1,74
 377 326 377 326 377 303 c 0,75,76
 377 262 377 262 340 262 c 0,77,78
 311 262 311 262 279 307 c 0,79,80
 256 336 256 336 239.5 349 c 128,-1,81
 223 362 223 362 205 369 c 2,82,-1
 197 373 l 1,83,-1
 197 365 l 2,84,85
 197 305 197 305 221 250 c 0,86,87
 229 236 229 236 229 217 c 0,88,89
 229 199 229 199 217 185.5 c 128,-1,90
 205 172 205 172 188 172 c 0,91,92
 172 172 172 172 162 184.5 c 128,-1,93
 152 197 152 197 152 213 c 0,94,95
 152 227 152 227 164 262 c 0,96,97
 174 287 174 287 177 305.5 c 128,-1,98
 180 324 180 324 180 340 c 2,99,-1
 180 365 l 1,0,-1
EndSplineSet
Validated: 1
EndChar

StartChar: plus
Encoding: 43 43 11
Width: 512
VWidth: 2047
Flags: W
LayerCount: 2
Fore
SplineSet
172 348 m 1,0,-1
 172 522 l 1,1,-1
 254 522 l 1,2,-1
 254 348 l 1,3,-1
 428 348 l 1,4,-1
 428 266 l 1,5,-1
 254 266 l 1,6,-1
 254 92 l 1,7,-1
 172 92 l 1,8,-1
 172 266 l 1,9,-1
 0 266 l 1,10,-1
 0 348 l 1,11,-1
 172 348 l 1,0,-1
EndSplineSet
Validated: 1
EndChar

StartChar: comma
Encoding: 44 44 12
Width: 254
VWidth: 2047
Flags: W
LayerCount: 2
Fore
SplineSet
254.001953125 904 m 256,0,1
 254.001953125 873 254.001953125 873 232.501953125 850.5 c 128,-1,2
 211.001953125 828 211.001953125 828 181.001953125 828 c 0,3,4
 150.001953125 828 150.001953125 828 127.001953125 850 c 0,5,6
 104.001953125 873 104.001953125 873 105.001953125 904 c 256,7,8
 105.001953125 935 105.001953125 935 127.501953125 956.5 c 128,-1,9
 150.001953125 978 150.001953125 978 181.001953125 978 c 0,10,11
 211.001953125 978 211.001953125 978 232.501953125 956.5 c 128,-1,12
 254.001953125 935 254.001953125 935 254.001953125 904 c 256,0,1
EndSplineSet
EndChar

StartChar: hyphen
Encoding: 45 45 13
Width: 512
VWidth: 2047
Flags: W
LayerCount: 2
Fore
SplineSet
0 299 m 1,0,-1
 260 299 l 1,1,-1
 260 256 l 1,2,-1
 0 256 l 1,3,-1
 0 299 l 1,0,-1
EndSplineSet
Validated: 1
EndChar

StartChar: period
Encoding: 46 46 14
Width: 210
VWidth: 2047
Flags: W
LayerCount: 2
Fore
SplineSet
210 256 m 260,0,1
 210 225 210 225 188.5 202.5 c 132,-1,2
 167 180 167 180 137 180 c 4,3,4
 106 180 106 180 83 202 c 4,5,6
 60 225 60 225 61 256 c 260,7,8
 61 287 61 287 83.5 308.5 c 132,-1,9
 106 330 106 330 137 330 c 4,10,11
 167 330 167 330 188.5 308.5 c 132,-1,12
 210 287 210 287 210 256 c 260,0,1
EndSplineSet
EndChar

StartChar: slash
Encoding: 47 47 15
Width: 512
VWidth: 2047
Flags: W
LayerCount: 2
Fore
SplineSet
258 612 m 1,0,-1
 59 10 l 1,1,-1
 0 10 l 1,2,-1
 199 612 l 1,3,-1
 258 612 l 1,0,-1
EndSplineSet
Validated: 1
EndChar

StartChar: zero
Encoding: 48 48 16
Width: 571
VWidth: 2130
Flags: W
LayerCount: 2
Fore
SplineSet
265 710 m 0,0,1
 394 710 394 710 467 596 c 0,2,3
 531 496 531 496 531 356 c 4,4,5
 531 215 531 215 468 117 c 0,6,7
 395 2 395 2 265 2 c 256,8,9
 136 2 136 2 62 116 c 0,10,11
 -2 215 -2 215 -2 356 c 128,-1,12
 -2 497 -2 497 62 596 c 0,13,14
 135 710 135 710 265 710 c 0,0,1
149 352 m 0,15,16
 149 272 149 272 157 215 c 0,17,18
 168 137 168 137 192 93 c 0,19,20
 221 40 221 40 265 41 c 0,21,22
 331 41 331 41 361 149 c 0,23,24
 384 230 384 230 384 352 c 0,25,26
 384 433 384 433 376 493 c 0,27,28
 365 574 365 574 341 617 c 0,29,30
 312 671 312 671 265 671 c 0,31,32
 217 671 217 671 189 618 c 0,33,34
 166 574 166 574 157 493 c 0,35,36
 149 433 149 433 149 352 c 0,15,16
EndSplineSet
EndChar

StartChar: one
Encoding: 49 49 17
Width: 404
VWidth: 2130
Flags: W
LayerCount: 2
Fore
SplineSet
121 141 m 1,0,-1
 121 586 l 1,1,-1
 19 416 l 1,2,-1
 1 428 l 1,3,-1
 121 713 l 1,4,-1
 284 713 l 1,5,-1
 284 143 l 1,6,-1
 284 69 l 2,7,8
 284 52 284 52 309.5 41 c 128,-1,9
 335 30 335 30 364 30 c 1,10,-1
 364 0 l 5,11,-1
 43 0 l 1,12,-1
 43 30 l 1,13,14
 62 30 62 30 85 36 c 0,15,16
 121 47 121 47 121 67 c 2,17,-1
 121 141 l 1,0,-1
EndSplineSet
EndChar

StartChar: two
Encoding: 50 50 18
Width: 545
VWidth: 2130
Flags: W
LayerCount: 2
Fore
SplineSet
106 622 m 0,0,1
 145 622 145 622 164 610 c 0,2,3
 196 590 196 590 196 538 c 0,4,5
 196 501 196 501 169.5 473.5 c 128,-1,6
 143 446 143 446 106 446 c 0,7,8
 68 446 68 446 41.5 473 c 128,-1,9
 15 500 15 500 15 538 c 0,10,11
 15 614 15 614 76.5 668 c 128,-1,12
 138 722 138 722 219 722 c 0,13,14
 319 722 319 722 392 675 c 0,15,16
 476 621 476 621 476 529 c 0,17,18
 476 470 476 470 427 421 c 0,19,20
 395 390 395 390 321 348 c 0,21,22
 238 301 238 301 217 285 c 0,23,24
 166 245 166 245 133 198 c 0,25,26
 117 174 117 174 102 150 c 1,27,28
 136 170 136 170 166.5 180 c 128,-1,29
 197 190 197 190 227 190 c 0,30,31
 267 190 267 190 308 169 c 0,32,33
 322 162 322 162 378 116 c 0,34,35
 397 100 397 100 411 100 c 0,36,37
 457 100 457 100 476 134 c 0,38,39
 487 155 487 155 487 185 c 0,40,41
 487 189 487 189 487 190 c 128,-1,42
 487 191 487 191 487 192 c 2,43,-1
 505 192 l 5,44,45
 505 114 505 114 482 69 c 0,46,47
 448 2 448 2 367 2 c 0,48,49
 316 2 316 2 273 24 c 1,50,51
 239 47 239 47 206 69 c 0,52,53
 167 93 167 93 128 94 c 0,54,55
 63 94 63 94 43 58 c 1,56,57
 37 36 37 36 30 13 c 1,58,-1
 1 13 l 1,59,60
 6 44 6 44 9 60.5 c 128,-1,61
 12 77 12 77 32 118 c 0,62,63
 59 173 59 173 144 262 c 0,64,65
 213 334 213 334 283 405 c 1,66,67
 351 482 351 482 351 522 c 0,68,69
 351 598 351 598 307 634 c 128,-1,70
 263 670 263 670 168 670 c 0,71,72
 136 670 136 670 114 656 c 0,73,74
 95 644 95 644 95 630 c 0,75,76
 94 622 94 622 106 622 c 0,0,1
EndSplineSet
EndChar

StartChar: three
Encoding: 51 51 19
Width: 455
VWidth: 2130
Flags: W
LayerCount: 2
Fore
SplineSet
137 370 m 1,0,1
 144 369 144 369 147 369 c 0,2,3
 154 369 154 369 156 370 c 0,4,5
 163 373 163 373 167 374 c 0,6,7
 229 398 229 398 257 424 c 0,8,9
 298 460 298 460 298 512 c 0,10,11
 298 580 298 580 256 628 c 0,12,13
 216 673 216 673 168 673 c 0,14,15
 130 673 130 673 98 652 c 0,16,17
 69 634 69 634 69 619 c 0,18,19
 69 612 69 612 79 612 c 0,20,21
 122 612 122 612 138 590 c 0,22,23
 151 573 151 573 152 539 c 0,24,25
 152 503 152 503 132 484 c 128,-1,26
 112 465 112 465 75 465 c 0,27,28
 41 465 41 465 24 482 c 0,29,30
 4 502 4 502 4 550 c 0,31,32
 4 628 4 628 53 669 c 0,33,34
 107 713 107 713 220 713 c 0,35,36
 295 713 295 713 354 655 c 0,37,38
 416 594 416 594 415 510 c 0,39,40
 415 445 415 445 388 410 c 0,41,42
 367 382 367 382 313 356 c 1,43,44
 363 332 363 332 386 304 c 0,45,46
 416 266 416 266 415 203 c 4,47,48
 415 120 415 120 354 59 c 0,49,50
 295 0 295 0 220 0 c 0,51,52
 108 0 108 0 54 44 c 0,53,54
 4 85 4 85 4 162 c 0,55,56
 4 209 4 209 24 230 c 0,57,58
 41 248 41 248 75 248 c 0,59,60
 111 248 111 248 131.5 229 c 128,-1,61
 152 210 152 210 152 174 c 0,62,63
 152 139 152 139 139 123 c 0,64,65
 122 101 122 101 79 101 c 0,66,67
 69 101 69 101 69 94 c 0,68,69
 69 79 69 79 98 61 c 0,70,71
 130 40 130 40 168 40 c 0,72,73
 215 40 215 40 255 84 c 0,74,75
 298 133 298 133 298 201 c 0,76,77
 298 253 298 253 258 288 c 0,78,79
 229 314 229 314 167 339 c 0,80,81
 160 342 160 342 154.5 343 c 128,-1,82
 149 344 149 344 148 344 c 0,83,84
 144 343 144 343 137 343 c 1,85,-1
 137 370 l 1,0,1
EndSplineSet
EndChar

StartChar: four
Encoding: 52 52 20
Width: 479
VWidth: 2130
Flags: W
LayerCount: 2
Fore
SplineSet
175 392 m 0,0,1
 166 379 166 379 131 321 c 0,2,3
 94 260 94 260 56 198 c 1,4,-1
 230 198 l 1,5,-1
 230 428 l 1,6,-1
 376 560 l 1,7,-1
 376 198 l 1,8,-1
 439 198 l 5,9,-1
 439 166 l 1,10,-1
 376 166 l 1,11,12
 375 162 375 162 375 145 c 256,13,14
 375 127 375 127 377 103 c 128,-1,15
 379 79 379 79 382.5 67 c 128,-1,16
 386 55 386 55 412 41 c 0,17,18
 433 30 433 30 439 30 c 1,19,-1
 439 0 l 1,20,-1
 166 0 l 1,21,-1
 166 30 l 1,22,23
 174 30 174 30 195 40 c 0,24,25
 221 53 221 53 224 65 c 128,-1,26
 227 77 227 77 229 107 c 128,-1,27
 231 137 231 137 231 152 c 0,28,29
 231 165 231 165 230 166 c 2,30,-1
 3 166 l 1,31,32
 3 170 3 170 2.5 179.5 c 128,-1,33
 2 189 2 189 2 192 c 0,34,35
 2 197 2 197 3 198 c 0,36,37
 87 262 87 262 133 391 c 0,38,39
 165 479 165 479 180 602 c 0,40,41
 193 711 193 711 195 713 c 2,42,-1
 358 713 l 1,43,44
 324 652 324 652 292 590 c 0,45,46
 256 524 256 524 230 480 c 0,47,48
 198 424 198 424 175 392 c 0,0,1
EndSplineSet
EndChar

StartChar: five
Encoding: 53 53 21
Width: 474
VWidth: 2130
Flags: W
LayerCount: 2
Fore
SplineSet
205 680 m 4,0,1
 253 680 253 680 324 690 c 4,2,3
 351 694 351 694 395 703 c 5,4,5
 395 670 395 670 384 644 c 4,6,7
 371 613 371 613 344 594 c 4,8,9
 328 583 328 583 295.5 577.5 c 132,-1,10
 263 572 263 572 224 572 c 4,11,12
 176 572 176 572 128.5 578.5 c 132,-1,13
 81 585 81 585 75 591 c 5,14,-1
 75 396 l 5,15,16
 104 425 104 425 140.5 440.5 c 132,-1,17
 177 456 177 456 209 456 c 4,18,19
 311 456 311 456 372.5 402.5 c 132,-1,20
 434 349 434 349 434 267 c 4,21,22
 434 162 434 162 355.5 81 c 132,-1,23
 277 0 277 0 171 0 c 4,24,25
 164 0 164 0 156 0.5 c 132,-1,26
 148 1 148 1 134 3 c 4,27,28
 61 14 61 14 28 57 c 4,29,30
 -1 95 -1 95 -1 155 c 4,31,32
 -1 191 -1 191 20.5 214 c 132,-1,33
 42 237 42 237 85 237 c 4,34,35
 126 237 126 237 149.5 218 c 132,-1,36
 173 199 173 199 173 159 c 4,37,38
 173 111 173 111 143 93 c 5,39,40
 111 85 111 85 80 76 c 5,41,42
 80 73 80 73 85 68 c 4,43,44
 105 48 105 48 126 39 c 132,-1,45
 147 30 147 30 170 30 c 4,46,47
 177 30 177 30 181 30 c 4,48,49
 185 31 185 31 187 31 c 4,50,51
 243 37 243 37 280 88 c 4,52,53
 321 146 321 146 322 245 c 4,54,55
 322 312 322 312 288 360 c 4,56,57
 251 413 251 413 189 413 c 4,58,59
 114 413 114 413 75 349 c 5,60,-1
 30 349 l 5,61,-1
 30 703 l 5,62,63
 61 696 61 696 117.5 688 c 132,-1,64
 174 680 174 680 205 680 c 4,0,1
EndSplineSet
EndChar

StartChar: six
Encoding: 54 54 22
Width: 524
VWidth: 2130
Flags: W
LayerCount: 2
Fore
SplineSet
244 689 m 0,0,1
 201 667 201 667 177 592 c 0,2,3
 158 528 158 528 158 451 c 0,4,5
 158 407 158 407 165 374.5 c 128,-1,6
 172 342 172 342 181 338 c 1,7,8
 207 375 207 375 241.5 391 c 128,-1,9
 276 407 276 407 324 407 c 0,10,11
 400 407 400 407 445 341 c 0,12,13
 484 284 484 284 484 212 c 4,14,15
 484 114 484 114 420 56 c 0,16,17
 359 0 359 0 266 0 c 0,18,19
 142 0 142 0 68 118 c 0,20,21
 2 223 2 223 1 368 c 0,22,23
 1 503 1 503 84 610 c 0,24,25
 170 722 170 722 283 722 c 0,26,27
 385 722 385 722 431 661 c 0,28,29
 463 619 463 619 463 561 c 0,30,31
 463 525 463 525 438 499.5 c 128,-1,32
 413 474 413 474 382 470 c 0,33,34
 378 469 378 469 371 470 c 0,35,36
 335 470 335 470 314 492 c 0,37,38
 291 516 291 516 291 561 c 0,39,40
 291 604 291 604 324 631 c 0,41,42
 349 652 349 652 372 652 c 1,43,44
 368 659 368 659 364 667 c 1,45,46
 327 699 327 699 284 699 c 0,47,48
 263 698 263 698 244 689 c 0,0,1
275 370 m 0,49,50
 234 370 234 370 210 334 c 0,51,52
 183 291 183 291 184 191 c 0,53,54
 184 123 184 123 201 82 c 0,55,56
 224 28 224 28 275 28 c 0,57,58
 325 28 325 28 346 82 c 0,59,60
 362 122 362 122 362 191 c 0,61,62
 362 269 362 269 348 309 c 0,63,64
 329 370 329 370 275 370 c 0,49,50
EndSplineSet
EndChar

StartChar: seven
Encoding: 55 55 23
Width: 496
VWidth: 2130
Flags: W
LayerCount: 2
Fore
SplineSet
239 287 m 0,0,1
 308 357 308 357 356 417 c 0,2,3
 411 489 411 489 421 531 c 0,4,5
 423 541 423 541 425.5 554 c 128,-1,6
 428 567 428 567 430 583 c 1,7,8
 403 566 403 566 368 552.5 c 128,-1,9
 333 539 333 539 307 539 c 0,10,11
 248 539 248 539 187 575 c 128,-1,12
 126 611 126 611 97 611 c 0,13,14
 63 611 63 611 43 585 c 1,15,16
 28 556 28 556 25 551 c 1,17,-1
 -1 551 l 1,18,-1
 -1 704 l 1,19,-1
 23 704 l 1,20,21
 28 691 28 691 32 677 c 0,22,23
 40 660 40 660 56 659 c 0,24,25
 65 659 65 659 137 703 c 0,26,27
 171 724 171 724 200 724 c 0,28,29
 246 724 246 724 289.5 692.5 c 128,-1,30
 333 661 333 661 372 661 c 0,31,32
 401 661 401 661 416 689 c 1,33,34
 427 720 427 720 428 724 c 1,35,-1
 456 724 l 1,36,-1
 456 692 l 5,37,-1
 456 585 l 2,38,39
 456 521 456 521 432 458 c 0,40,41
 424 437 424 437 339 287 c 0,42,43
 314 243 314 243 303 178 c 0,44,45
 295 128 295 128 294 71 c 0,46,47
 294 44 294 44 295 27.5 c 128,-1,48
 296 11 296 11 298 0 c 1,49,-1
 128 0 l 1,50,51
 131 29 131 29 135 57 c 0,52,53
 145 118 145 118 164 169 c 0,54,55
 192 239 192 239 239 287 c 0,0,1
EndSplineSet
EndChar

StartChar: eight
Encoding: 56 56 24
Width: 476
VWidth: 2130
Flags: W
LayerCount: 2
Fore
SplineSet
436 228 m 4,0,1
 436 116 436 116 363 53 c 0,2,3
 301 0 301 0 216 0 c 0,4,5
 122 0 122 0 60.5 62.5 c 128,-1,6
 -1 125 -1 125 -1 228 c 0,7,8
 -1 270 -1 270 43 315 c 0,9,10
 77 350 77 350 110 364 c 1,11,12
 80 382 80 382 55 414 c 0,13,14
 18 464 18 464 18 527 c 0,15,16
 18 610 18 610 82 663 c 0,17,18
 141 711 141 711 218 711 c 0,19,20
 296 711 296 711 353 668 c 0,21,22
 415 620 415 620 415 544 c 0,23,24
 415 537 415 537 415 534 c 0,25,26
 414 529 414 529 414 527 c 0,27,28
 410 483 410 483 373 441 c 0,29,30
 341 404 341 404 310 392 c 1,31,32
 350 377 350 377 398 317 c 0,33,34
 436 271 436 271 436 228 c 4,0,1
353 532 m 0,35,36
 353 595 353 595 316.5 635 c 128,-1,37
 280 675 280 675 218 675 c 0,38,39
 169 675 169 675 136.5 642 c 128,-1,40
 104 609 104 609 104 567 c 0,41,42
 104 544 104 544 137 516 c 0,43,44
 152 504 152 504 189.5 479.5 c 128,-1,45
 227 455 227 455 244 443 c 0,46,47
 260 430 260 430 276 417 c 1,48,49
 306 431 306 431 329.5 464 c 128,-1,50
 353 497 353 497 353 532 c 0,35,36
58 214 m 0,51,52
 58 146 58 146 99 95 c 0,53,54
 145 39 145 39 216 39 c 0,55,56
 281 39 281 39 317 74 c 0,57,58
 347 103 347 103 347 140 c 0,59,60
 347 166 347 166 314 203 c 0,61,62
 285 236 285 236 249 258.5 c 128,-1,63
 213 281 213 281 185 302 c 0,64,65
 164 318 164 318 143 335 c 1,66,67
 107 317 107 317 88 296 c 0,68,69
 58 262 58 262 58 214 c 0,51,52
EndSplineSet
EndChar

StartChar: nine
Encoding: 57 57 25
Width: 506
VWidth: 2130
Flags: W
LayerCount: 2
Fore
SplineSet
231 33 m 0,0,1
 273 55 273 55 295 131 c 0,2,3
 314 195 314 195 314 271 c 0,4,5
 314 315 314 315 307.5 347.5 c 128,-1,6
 301 380 301 380 291 384 c 1,7,8
 266 347 266 347 233 331 c 128,-1,9
 200 315 200 315 153 315 c 0,10,11
 79 315 79 315 36 381 c 0,12,13
 -2 438 -2 438 -2 510 c 0,14,15
 -2 608 -2 608 60 667 c 0,16,17
 119 723 119 723 209 722 c 0,18,19
 330 722 330 722 402 604 c 0,20,21
 466 499 466 499 466 354 c 0,22,23
 466 219 466 219 386 112 c 0,24,25
 303 0 303 0 193 0 c 0,26,27
 94 0 94 0 49 62 c 0,28,29
 18 104 18 104 18 161 c 0,30,31
 18 197 18 197 42 223 c 128,-1,32
 66 249 66 249 96 252 c 0,33,34
 100 253 100 253 108 253 c 0,35,36
 143 253 143 253 164 229.5 c 128,-1,37
 185 206 185 206 185 161 c 0,38,39
 185 118 185 118 153 91 c 0,40,41
 129 70 129 70 107 70 c 1,42,43
 111 63 111 63 115 56 c 1,44,45
 151 24 151 24 192 23 c 0,46,47
 213 24 213 24 231 33 c 0,0,1
201 352 m 0,48,49
 241 352 241 352 263 389 c 0,50,51
 289 432 289 432 289 531 c 0,52,53
 289 599 289 599 273 640 c 0,54,55
 251 694 251 694 201 694 c 0,56,57
 153 694 153 694 132 640 c 0,58,59
 117 600 117 600 117 531 c 0,60,61
 117 453 117 453 129 413 c 0,62,63
 149 352 149 352 201 352 c 0,48,49
EndSplineSet
EndChar

StartChar: C
Encoding: 67 67 26
Width: 428
VWidth: 2047
Flags: W
LayerCount: 2
Fore
SplineSet
433 2004 m 1,0,1
 435 1995 435 1995 438 1986 c 0,2,3
 449 1952 449 1952 457 1923 c 0,4,5
 474 1862 474 1862 502 1829 c 2,6,-1
 537 1786 l 1,7,-1
 586 1727 l 1,8,-1
 622 1685 l 1,9,-1
 670 1635 l 1,10,11
 686 1612 686 1612 698 1595 c 128,-1,12
 710 1578 710 1578 717 1561 c 1,13,-1
 727 1621 l 1,14,-1
 727 1645 l 1,15,-1
 727 1686 l 1,16,-1
 719 1719 l 1,17,-1
 703 1768 l 2,18,19
 683 1830 683 1830 633 1883 c 1,20,21
 591 1936 591 1936 535 1967 c 0,22,23
 478 1998 478 1998 433 2004 c 1,0,1
451 1268 m 0,24,25
 457 1240 457 1240 467 1223 c 0,26,27
 480 1203 480 1203 494 1186 c 2,28,-1
 529 1141 l 1,29,-1
 574 1090 l 1,30,-1
 670 990 l 1,31,32
 686 967 686 967 697.5 950 c 128,-1,33
 709 933 709 933 717 916 c 1,34,-1
 727 976 l 1,35,-1
 727 1000 l 1,36,-1
 727 1041 l 1,37,-1
 719 1074 l 1,38,-1
 703 1123 l 2,39,40
 683 1185 683 1185 633 1238 c 1,41,42
 595 1285 595 1285 535 1322 c 0,43,44
 476 1358 476 1358 430 1359 c 1,45,46
 433 1342 433 1342 439.5 1315.5 c 128,-1,47
 446 1289 446 1289 451 1268 c 0,24,25
426 731 m 1,48,-1
 426 233 l 2,49,50
 426 170 426 170 381 113 c 1,51,52
 354 68 354 68 279 33 c 0,53,54
 215 0 215 0 145 0 c 0,55,56
 82 0 82 0 43 33 c 1,57,58
 0 63 0 63 0 125 c 0,59,60
 0 156 0 156 9 185.5 c 128,-1,61
 18 215 18 215 41 242 c 0,62,63
 61 266 61 266 87 288.5 c 128,-1,64
 113 311 113 311 147 328 c 0,65,66
 215 358 215 358 270 358 c 0,67,68
 358 358 358 358 391 326 c 1,69,-1
 391 1059 l 1,70,-1
 391 1359 l 1,71,-1
 390 1361 l 1,72,-1
 390 1384 l 1,73,-1
 390 1685 l 1,74,-1
 389 1686 l 1,75,-1
 389 1705 l 1,76,-1
 389 2006 l 1,77,-1
 388 2007 l 1,78,-1
 388 2382 l 1,79,-1
 423 2382 l 1,80,81
 428 2335 428 2335 437 2307 c 0,82,83
 448 2273 448 2273 456 2244 c 0,84,85
 473 2183 473 2183 501 2150 c 2,86,-1
 536 2107 l 1,87,-1
 585 2048 l 1,88,-1
 675 1943 l 1,89,90
 776 1810 776 1810 777 1665 c 0,91,92
 777 1608 777 1608 762 1556 c 0,93,94
 753 1524 753 1524 745 1506 c 1,95,96
 779 1427 779 1427 778 1344 c 0,97,98
 778 1287 778 1287 763 1235 c 0,99,100
 751 1196 751 1196 745 1184 c 1,101,-1
 743 1185 l 1,102,103
 778 1104 778 1104 779 1019 c 0,104,105
 779 953 779 953 765 910 c 0,106,107
 762 896 762 896 751 868 c 1,108,109
 780 794 780 794 780 717 c 0,110,111
 780 651 780 651 766 608 c 0,112,113
 763 593 763 593 750 561 c 1,114,115
 782 492 782 492 782 430 c 0,116,117
 782 416 782 416 780 401 c 0,118,119
 777 377 777 377 777 348 c 128,-1,120
 777 319 777 319 766 291 c 1,121,-1
 727 291 l 1,122,-1
 735 348 l 1,123,-1
 735 373 l 1,124,-1
 735 414 l 1,125,-1
 727 444 l 1,126,-1
 711 496 l 2,127,128
 700 526 700 526 682 554 c 128,-1,129
 664 582 664 582 641 608 c 0,130,131
 594 666 594 666 543 694 c 0,132,133
 514 711 514 711 482.5 721 c 128,-1,134
 451 731 451 731 426 731 c 1,48,-1
459 956 m 0,135,136
 465 928 465 928 475 911.5 c 128,-1,137
 485 895 485 895 502 874 c 2,138,-1
 537 829 l 1,139,-1
 582 778 l 1,140,-1
 678 678 l 1,141,142
 694 655 694 655 705.5 638 c 128,-1,143
 717 621 717 621 725 604 c 1,144,-1
 735 664 l 1,145,-1
 735 688 l 1,146,-1
 735 729 l 1,147,-1
 727 762 l 1,148,-1
 711 811 l 2,149,150
 690 874 690 874 641 926 c 1,151,152
 611 964 611 964 543 1010 c 0,153,154
 489 1046 489 1046 438 1047 c 1,155,156
 442 1030 442 1030 447.5 1003.5 c 128,-1,157
 453 977 453 977 459 956 c 0,135,136
433 1683 m 1,158,159
 436 1671 436 1671 438 1661 c 0,160,161
 447 1627 447 1627 458 1598 c 0,162,163
 472 1547 472 1547 503 1504 c 2,164,-1
 538 1461 l 1,165,-1
 587 1402 l 1,166,-1
 591 1397 l 1,167,-1
 671 1314 l 1,168,169
 687 1291 687 1291 698.5 1274 c 128,-1,170
 710 1257 710 1257 718 1240 c 1,171,-1
 726 1300 l 1,172,-1
 728 1324 l 1,173,-1
 728 1365 l 1,174,-1
 720 1398 l 1,175,-1
 704 1447 l 2,176,177
 684 1509 684 1509 634 1562 c 1,178,179
 592 1615 592 1615 536 1646 c 0,180,181
 478 1677 478 1677 433 1683 c 1,158,159
EndSplineSet
EndChar

StartChar: D
Encoding: 68 68 27
Width: 428
VWidth: 2047
Flags: W
LayerCount: 2
Fore
SplineSet
451 1268 m 0,0,1
 457 1240 457 1240 467 1223 c 0,2,3
 480 1203 480 1203 494 1186 c 2,4,-1
 529 1141 l 1,5,-1
 574 1090 l 1,6,-1
 670 990 l 1,7,8
 686 967 686 967 697.5 950 c 128,-1,9
 709 933 709 933 717 916 c 1,10,-1
 725 976 l 1,11,-1
 727 1000 l 1,12,-1
 727 1041 l 1,13,-1
 719 1074 l 1,14,-1
 703 1123 l 2,15,16
 683 1185 683 1185 633 1238 c 1,17,18
 591 1291 591 1291 535 1322 c 0,19,20
 476 1354 476 1354 430 1359 c 1,21,22
 433 1342 433 1342 439.5 1315.5 c 128,-1,23
 446 1289 446 1289 451 1268 c 0,0,1
426 731 m 1,24,-1
 426 233 l 2,25,26
 426 170 426 170 381 113 c 1,27,28
 354 68 354 68 279 33 c 0,29,30
 215 0 215 0 145 0 c 0,31,32
 82 0 82 0 43 33 c 1,33,34
 0 63 0 63 0 125 c 0,35,36
 0 156 0 156 9 185.5 c 128,-1,37
 18 215 18 215 41 242 c 0,38,39
 61 266 61 266 87 288.5 c 128,-1,40
 113 311 113 311 147 328 c 0,41,42
 215 358 215 358 270 358 c 0,43,44
 358 358 358 358 391 326 c 1,45,-1
 391 1059 l 1,46,-1
 391 1359 l 1,47,-1
 390 1361 l 1,48,-1
 390 1384 l 1,49,-1
 390 1685 l 1,50,-1
 389 1686 l 1,51,-1
 389 2061 l 1,52,-1
 424 2061 l 1,53,54
 429 2014 429 2014 438 1986 c 0,55,56
 449 1952 449 1952 457 1923 c 0,57,58
 474 1862 474 1862 502 1829 c 2,59,-1
 537 1786 l 1,60,-1
 586 1727 l 1,61,-1
 676 1622 l 1,62,63
 778 1490 778 1490 778 1344 c 0,64,65
 778 1287 778 1287 763 1235 c 0,66,67
 751 1196 751 1196 745 1184 c 1,68,-1
 743 1185 l 1,69,70
 778 1104 778 1104 779 1019 c 0,71,72
 779 953 779 953 765 910 c 0,73,74
 762 896 762 896 751 868 c 1,75,76
 780 794 780 794 780 717 c 0,77,78
 780 651 780 651 766 608 c 0,79,80
 763 593 763 593 750 561 c 1,81,82
 780 496 780 496 780 401 c 0,83,84
 780 377 780 377 777 348 c 128,-1,85
 774 319 774 319 766 291 c 1,86,-1
 727 291 l 1,87,-1
 733 348 l 1,88,-1
 735 373 l 1,89,-1
 735 414 l 1,90,-1
 727 444 l 1,91,-1
 711 496 l 2,92,93
 700 526 700 526 682 554 c 128,-1,94
 664 582 664 582 641 608 c 0,95,96
 594 666 594 666 543 694 c 0,97,98
 514 711 514 711 482.5 721 c 128,-1,99
 451 731 451 731 426 731 c 1,24,-1
459 956 m 0,100,101
 465 928 465 928 475 911.5 c 128,-1,102
 485 895 485 895 502 874 c 2,103,-1
 537 829 l 1,104,-1
 582 778 l 1,105,-1
 678 678 l 1,106,107
 694 655 694 655 705.5 638 c 128,-1,108
 717 621 717 621 725 604 c 1,109,-1
 733 664 l 1,110,-1
 735 688 l 1,111,-1
 735 729 l 1,112,-1
 727 762 l 1,113,-1
 711 811 l 2,114,115
 690 874 690 874 641 926 c 1,116,117
 596 983 596 983 543 1010 c 0,118,119
 489 1042 489 1042 438 1047 c 1,120,121
 442 1030 442 1030 447.5 1003.5 c 128,-1,122
 453 977 453 977 459 956 c 0,100,101
433 1683 m 1,123,124
 436 1671 436 1671 438 1661 c 0,125,126
 447 1627 447 1627 458 1598 c 0,127,128
 472 1547 472 1547 503 1504 c 2,129,-1
 538 1461 l 1,130,-1
 587 1402 l 1,131,-1
 591 1397 l 1,132,-1
 671 1314 l 1,133,134
 687 1291 687 1291 698.5 1274 c 128,-1,135
 710 1257 710 1257 718 1240 c 1,136,-1
 726 1300 l 1,137,-1
 728 1324 l 1,138,-1
 728 1365 l 1,139,-1
 720 1398 l 1,140,-1
 704 1447 l 2,141,142
 684 1509 684 1509 634 1562 c 1,143,144
 592 1615 592 1615 536 1646 c 0,145,146
 478 1677 478 1677 433 1683 c 1,123,124
EndSplineSet
EndChar

StartChar: E
Encoding: 69 69 28
Width: 428
VWidth: 2047
Flags: W
LayerCount: 2
Fore
SplineSet
459 956 m 0,0,1
 465 928 465 928 475 911.5 c 128,-1,2
 485 895 485 895 502 874 c 2,3,-1
 537 829 l 1,4,-1
 582 778 l 1,5,-1
 678 678 l 1,6,7
 694 655 694 655 705.5 638 c 128,-1,8
 717 621 717 621 725 604 c 1,9,-1
 733 664 l 1,10,-1
 735 688 l 1,11,-1
 735 729 l 1,12,-1
 727 762 l 1,13,-1
 711 811 l 2,14,15
 690 874 690 874 641 926 c 1,16,17
 596 983 596 983 543 1010 c 0,18,19
 489 1042 489 1042 438 1047 c 1,20,21
 442 1030 442 1030 447.5 1003.5 c 128,-1,22
 453 977 453 977 459 956 c 0,0,1
426 731 m 1,23,-1
 426 233 l 2,24,25
 426 170 426 170 381 113 c 1,26,27
 354 68 354 68 279 33 c 0,28,29
 215 0 215 0 145 0 c 0,30,31
 82 0 82 0 43 33 c 1,32,33
 0 63 0 63 0 125 c 0,34,35
 0 156 0 156 9 185.5 c 128,-1,36
 18 215 18 215 41 242 c 0,37,38
 61 266 61 266 87 288.5 c 128,-1,39
 113 311 113 311 147 328 c 0,40,41
 215 358 215 358 270 358 c 0,42,43
 358 358 358 358 391 326 c 1,44,-1
 391 1059 l 1,45,-1
 391 1359 l 1,46,-1
 390 1361 l 1,47,-1
 390 1736 l 1,48,-1
 425 1736 l 1,49,50
 429 1695 429 1695 438.5 1661 c 128,-1,51
 448 1627 448 1627 458 1598 c 0,52,53
 472 1547 472 1547 503 1504 c 2,54,-1
 538 1461 l 1,55,-1
 587 1402 l 1,56,-1
 677 1297 l 1,57,58
 779 1164 779 1164 779 1019 c 0,59,60
 779 953 779 953 765 910 c 0,61,62
 762 896 762 896 751 868 c 1,63,64
 780 794 780 794 780 717 c 0,65,66
 780 651 780 651 766 608 c 0,67,68
 763 593 763 593 750 561 c 1,69,70
 780 496 780 496 780 401 c 0,71,72
 780 377 780 377 777 348 c 128,-1,73
 774 319 774 319 766 291 c 1,74,-1
 727 291 l 1,75,-1
 733 348 l 1,76,-1
 735 373 l 1,77,-1
 735 414 l 1,78,-1
 727 444 l 1,79,-1
 711 496 l 2,80,81
 700 526 700 526 682 554 c 128,-1,82
 664 582 664 582 641 608 c 0,83,84
 594 666 594 666 543 694 c 0,85,86
 514 711 514 711 482.5 721 c 128,-1,87
 451 731 451 731 426 731 c 1,23,-1
451 1268 m 4,88,89
 457 1240 457 1240 467 1223 c 4,90,91
 480 1203 480 1203 494 1186 c 6,92,-1
 529 1141 l 5,93,-1
 574 1090 l 5,94,-1
 670 990 l 5,95,96
 686 967 686 967 697.5 950 c 132,-1,97
 709 933 709 933 717 916 c 5,98,-1
 725 976 l 5,99,-1
 727 1000 l 5,100,-1
 727 1041 l 5,101,-1
 719 1074 l 5,102,-1
 703 1123 l 6,103,104
 683 1185 683 1185 633 1238 c 5,105,106
 591 1291 591 1291 535 1322 c 4,107,108
 476 1354 476 1354 430 1359 c 5,109,110
 433 1342 433 1342 439.5 1315.5 c 132,-1,111
 446 1289 446 1289 451 1268 c 4,88,89
EndSplineSet
EndChar

StartChar: F
Encoding: 70 70 29
Width: 428
VWidth: 2047
Flags: W
LayerCount: 2
Fore
SplineSet
426 731 m 1,0,-1
 426 233 l 2,1,2
 426 170 426 170 381 113 c 1,3,4
 355 70 355 70 279 33 c 0,5,6
 212 0 212 0 145 0 c 0,7,8
 82 0 82 0 43 33 c 1,9,10
 0 63 0 63 0 125 c 0,11,12
 0 156 0 156 9 185.5 c 128,-1,13
 18 215 18 215 41 242 c 0,14,15
 61 266 61 266 87 288 c 0,16,17
 115 313 115 313 147 328 c 0,18,19
 212 358 212 358 270 358 c 0,20,21
 358 358 358 358 391 326 c 1,22,-1
 391 1059 l 1,23,-1
 391 1440 l 5,24,-1
 426 1440 l 5,25,26
 430 1389 430 1389 439 1359 c 0,27,28
 450 1325 450 1325 459 1296 c 0,29,30
 479 1231 479 1231 504 1202 c 2,31,-1
 539 1159 l 1,32,-1
 588 1100 l 1,33,-1
 678 995 l 1,34,35
 780 862 780 862 780 717 c 0,36,37
 780 655 780 655 766 608 c 0,38,39
 759 583 759 583 750 561 c 1,40,41
 780 496 780 496 780 401 c 0,42,43
 780 377 780 377 777 348 c 128,-1,44
 774 319 774 319 766 291 c 1,45,-1
 727 291 l 1,46,-1
 733 348 l 1,47,-1
 735 373 l 1,48,-1
 735 414 l 1,49,-1
 727 444 l 1,50,-1
 711 496 l 2,51,52
 703 522 703 522 682 554 c 0,53,54
 668 576 668 576 641 608 c 0,55,56
 593 665 593 665 543 694 c 0,57,58
 514 711 514 711 482.5 721 c 128,-1,59
 451 731 451 731 426 731 c 1,0,-1
459 956 m 0,60,61
 465 928 465 928 475 911.5 c 128,-1,62
 485 895 485 895 502 874 c 2,63,-1
 537 829 l 1,64,-1
 582 778 l 1,65,-1
 678 678 l 1,66,67
 694 655 694 655 705.5 638 c 128,-1,68
 717 621 717 621 725 604 c 1,69,-1
 733 664 l 1,70,-1
 735 688 l 1,71,-1
 735 729 l 1,72,-1
 727 762 l 1,73,-1
 711 811 l 2,74,75
 690 874 690 874 641 926 c 1,76,77
 596 983 596 983 543 1010 c 0,78,79
 489 1042 489 1042 438 1047 c 1,80,81
 442 1030 442 1030 447.5 1003.5 c 128,-1,82
 453 977 453 977 459 956 c 0,60,61
EndSplineSet
EndChar

StartChar: G
Encoding: 71 71 30
Width: 428
VWidth: 2047
Flags: W
LayerCount: 2
Fore
SplineSet
426 1441 m 1,0,1
 430 1389 430 1389 439 1359 c 0,2,3
 450 1325 450 1325 459 1296 c 0,4,5
 479 1232 479 1232 504 1202 c 2,6,-1
 539 1159 l 1,7,-1
 588 1100 l 1,8,-1
 678 995 l 1,9,10
 780 862 780 862 780 717 c 0,11,12
 780 682 780 682 774 640 c 0,13,14
 767 595 767 595 750 553 c 0,15,16
 729 503 729 503 726 494 c 0,17,18
 717 471 717 471 700 442 c 1,19,-1
 670 440 l 1,20,-1
 705 530 l 2,21,22
 711 549 711 549 717 568 c 0,23,24
 725 592 725 592 727 608 c 2,25,-1
 733 664 l 1,26,-1
 735 688 l 1,27,-1
 735 729 l 1,28,-1
 727 762 l 1,29,-1
 711 811 l 2,30,31
 690 874 690 874 641 926 c 1,32,33
 597 982 597 982 543 1010 c 0,34,35
 510 1027 510 1027 482 1036 c 0,36,37
 450 1046 450 1046 426 1047 c 5,38,-1
 426 233 l 2,39,40
 426 170 426 170 381 113 c 1,41,42
 355 70 355 70 279 33 c 0,43,44
 212 0 212 0 145 0 c 0,45,46
 82 0 82 0 43 33 c 1,47,48
 0 63 0 63 0 125 c 0,49,50
 0 156 0 156 9 185.5 c 128,-1,51
 18 215 18 215 41 242 c 0,52,53
 61 266 61 266 87 288 c 0,54,55
 115 313 115 313 147 328 c 0,56,57
 212 358 212 358 270 358 c 0,58,59
 358 358 358 358 391 326 c 1,60,-1
 391 1059 l 1,61,-1
 391 1441 l 1,62,-1
 426 1441 l 1,0,1
EndSplineSet
EndChar

StartChar: H
Encoding: 72 72 31
Width: 428
VWidth: 2047
Flags: W
LayerCount: 2
Fore
SplineSet
428 231 m 2,0,1
 428 174 428 174 387 117 c 0,2,3
 347 62 347 62 277 31 c 0,4,5
 209 0 209 0 145 0 c 0,6,7
 87 0 87 0 43 33 c 0,8,9
 0 65 0 65 0 121 c 0,10,11
 0 181 0 181 43 236 c 0,12,13
 57 253 57 253 92 282 c 0,14,15
 121 306 121 306 156 328 c 1,16,17
 193 344 193 344 223.5 351 c 128,-1,18
 254 358 254 358 283 358 c 0,19,20
 344 358 344 358 391 324 c 1,21,-1
 391 1441 l 1,22,-1
 428 1441 l 5,23,-1
 428 231 l 2,0,1
EndSplineSet
EndChar

StartChar: I
Encoding: 73 73 32
Width: 428
VWidth: 2047
Flags: W
LayerCount: 2
Fore
SplineSet
428 231 m 2,0,1
 428 174 428 174 387 117 c 0,2,3
 347 62 347 62 277 31 c 0,4,5
 209 0 209 0 145 0 c 0,6,7
 87 0 87 0 43 33 c 0,8,9
 0 65 0 65 0 121 c 0,10,11
 0 181 0 181 43 236 c 0,12,13
 57 253 57 253 92 282 c 0,14,15
 121 306 121 306 156 328 c 1,16,17
 193 344 193 344 223.5 351 c 128,-1,18
 254 358 254 358 283 358 c 0,19,20
 344 358 344 358 391 324 c 1,21,-1
 391 1441 l 1,22,-1
 428 1441 l 5,23,-1
 428 231 l 2,0,1
135 201 m 0,24,25
 108 182 108 182 78 144 c 0,26,27
 41 97 41 97 41 74 c 1,28,29
 47 50 47 50 80 37 c 1,30,31
 119 37 119 37 158 58 c 1,32,33
 190 68 190 68 258 117 c 0,34,35
 287 138 287 138 293 142 c 0,36,37
 306 153 306 153 334 187 c 0,38,39
 381 240 381 240 381 271 c 0,40,41
 381 295 381 295 350 306 c 1,42,43
 285 306 285 306 135 201 c 0,24,25
EndSplineSet
EndChar

StartChar: J
Encoding: 74 74 33
Width: 592
VWidth: 2047
Flags: W
LayerCount: 2
Fore
SplineSet
181 210 m 4,0,1
 181 184 181 184 182.5 173.5 c 132,-1,2
 184 163 184 163 193 139 c 4,3,4
 200 126 200 126 207.5 111.5 c 132,-1,5
 215 97 215 97 227 82 c 4,6,7
 269 30 269 30 330 31 c 5,8,9
 377 36 377 36 396 60 c 4,10,11
 412 81 412 81 411 150 c 4,12,13
 411 167 411 167 407.5 184.5 c 132,-1,14
 404 202 404 202 400 217 c 4,15,16
 395 234 395 234 385 249 c 132,-1,17
 375 264 375 264 363 278 c 4,18,19
 323 329 323 329 259 329 c 5,20,21
 219 324 219 324 200 300 c 132,-1,22
 181 276 181 276 181 210 c 4,0,1
2 180 m 260,23,24
 2 245 2 245 53 285 c 4,25,26
 104 326 104 326 167 341 c 4,27,28
 180 344 180 344 196 346.5 c 132,-1,29
 212 349 212 349 229 353 c 4,30,31
 261 358 261 358 290 358 c 4,32,33
 361 358 361 358 419 341 c 5,34,35
 486 327 486 327 539 285 c 5,36,37
 593 248 593 248 592 180 c 4,38,39
 592 121 592 121 546 79 c 4,40,41
 501 40 501 40 431 20 c 4,42,43
 396 9 396 9 363 5.5 c 132,-1,44
 330 2 330 2 300 2 c 4,45,46
 240 2 240 2 172 18 c 132,-1,47
 104 34 104 34 53 74 c 4,48,49
 2 115 2 115 2 180 c 260,23,24
EndSplineSet
EndChar

StartChar: K
Encoding: 75 75 34
Width: 1022
VWidth: 2047
Flags: W
LayerCount: 2
Fore
SplineSet
793 372 m 1,0,-1
 874 372 l 1,1,-1
 874 -10 l 1,2,-1
 793 -10 l 1,3,-1
 793 163 l 1,4,5
 786 110 786 110 747 77 c 0,6,7
 724 56 724 56 697 42 c 128,-1,8
 670 28 670 28 638 19 c 0,9,10
 605 7 605 7 575.5 3 c 128,-1,11
 546 -1 546 -1 517 -1 c 2,12,-1
 490 -1 l 2,13,14
 466 -1 466 -1 463 1 c 0,15,16
 451 1 451 1 434 5 c 128,-1,17
 417 9 417 9 396 14 c 0,18,19
 334 31 334 31 285 76 c 1,20,21
 245 109 245 109 236 159 c 1,22,-1
 236 -10 l 1,23,-1
 155 -10 l 1,24,-1
 155 372 l 1,25,-1
 236 372 l 1,26,-1
 236 202 l 1,27,28
 243 248 243 248 280 282 c 0,29,30
 302 301 302 301 330 316.5 c 128,-1,31
 358 332 358 332 392 341 c 0,32,33
 479 362 479 362 510 362 c 0,34,35
 578 362 578 362 631 343 c 0,36,37
 662 335 662 335 691 322 c 128,-1,38
 720 309 720 309 745 289 c 0,39,40
 786 251 786 251 793 199 c 1,41,-1
 793 372 l 1,0,-1
404 189 m 2,42,43
 404 176 404 176 406 166.5 c 128,-1,44
 408 157 408 157 417 137 c 0,45,46
 424 121 424 121 431 109 c 128,-1,47
 438 97 438 97 449 81 c 0,48,49
 492 26 492 26 546 26 c 1,50,51
 589 34 589 34 602 59 c 0,52,53
 608 65 608 65 617 91 c 0,54,55
 623 108 623 108 622 149 c 0,56,57
 622 223 622 223 580 280 c 1,58,59
 533 332 533 332 481 332 c 0,60,61
 440 330 440 330 420 300 c 0,62,63
 404 277 404 277 404 213 c 2,64,-1
 404 189 l 2,42,43
939 372 m 1,65,-1
 1022 372 l 5,66,-1
 1022 -10 l 1,67,-1
 939 -10 l 1,68,-1
 939 372 l 1,65,-1
-0 372 m 1,69,-1
 82 372 l 1,70,-1
 82 -10 l 1,71,-1
 -0 -10 l 1,72,-1
 -0 372 l 1,69,-1
EndSplineSet
EndChar

StartChar: L
Encoding: 76 76 35
Width: 668
VWidth: 2047
Flags: W
LayerCount: 2
Fore
SplineSet
627 1441 m 1,0,-1
 668 1441 l 1,1,-1
 668 -43 l 5,2,-1
 631 -43 l 1,3,-1
 627 1441 l 1,0,-1
0 403 m 1,4,-1
 37 403 l 1,5,-1
 37 -43 l 1,6,-1
 0 -43 l 1,7,-1
 0 403 l 1,4,-1
218 210 m 0,8,9
 218 184 218 184 220 174 c 0,10,11
 222 163 222 163 230 139 c 1,12,13
 237 126 237 126 245 111 c 0,14,15
 253 97 253 97 265 82 c 0,16,17
 306 30 306 30 367 31 c 1,18,19
 414 36 414 36 433 60 c 0,20,21
 449 80 449 80 449 150 c 0,22,23
 449 167 449 167 445 185 c 0,24,25
 442 202 442 202 437 217 c 0,26,27
 432 234 432 234 422 249 c 128,-1,28
 412 264 412 264 400 278 c 0,29,30
 360 329 360 329 296 329 c 1,31,32
 256 324 256 324 237 300 c 0,33,34
 218 277 218 277 218 210 c 0,8,9
39 180 m 256,35,36
 39 243 39 243 91 285 c 0,37,38
 145 328 145 328 204 341 c 0,39,40
 217 344 217 344 234 347 c 0,41,42
 250 350 250 350 266 353 c 0,43,44
 298 358 298 358 328 358 c 0,45,46
 399 358 399 358 456 341 c 1,47,48
 523 327 523 327 576 285 c 1,49,50
 629 248 629 248 630 180 c 0,51,52
 630 120 630 120 583 79 c 0,53,54
 539 41 539 41 468 20 c 0,55,56
 429 9 429 9 400 6 c 0,57,58
 367 2 367 2 337 2 c 0,59,60
 276 2 276 2 209 18 c 0,61,62
 143 33 143 33 91 74 c 128,-1,63
 39 115 39 115 39 180 c 256,35,36
EndSplineSet
EndChar

StartChar: M
Encoding: 77 77 36
Width: 1126
VWidth: 2047
Flags: W
LayerCount: 2
Fore
SplineSet
1085 1255 m 5,0,-1
 1126 1255 l 5,1,-1
 1126 -186 l 5,2,-1
 1088 -186 l 5,3,-1
 1087.13425926 1 l 5,4,-1
 37 1 l 5,5,-1
 37 -186 l 5,6,-1
 0 -186 l 5,7,-1
 0 536 l 5,8,-1
 37 536 l 5,9,-1
 38 360 l 5,10,-1
 1086.86328938 360 l 5,11,-1
 1085 1255 l 5,0,-1
1086.60185185 116 m 5,12,-1
 1086 246 l 5,13,-1
 37 246 l 5,14,-1
 37 116 l 5,15,-1
 1086.60185185 116 l 5,12,-1
EndSplineSet
EndChar

StartChar: c
Encoding: 99 99 37
Width: 428
VWidth: 2047
Flags: W
LayerCount: 2
Fore
SplineSet
336 -1192 m 1,0,1
 316 -1228 316 -1228 289 -1263 c 2,2,-1
 200 -1369 l 1,3,-1
 151 -1428 l 1,4,-1
 116 -1472 l 2,5,6
 88 -1507 88 -1507 71 -1566 c 0,7,8
 63 -1595 63 -1595 52 -1629 c 1,9,10
 97 -1623 97 -1623 154 -1592 c 0,11,12
 208 -1561 208 -1561 252 -1508 c 0,13,14
 302 -1454 302 -1454 322 -1392 c 2,15,-1
 338 -1344 l 1,16,-1
 345 -1310 l 1,17,-1
 345 -1269 l 1,18,-1
 344 -1245 l 1,19,-1
 336 -1192 l 1,0,1
335 -567 m 1,20,21
 315 -602 315 -602 289 -637 c 2,22,-1
 200 -742 l 1,23,-1
 151 -801 l 1,24,-1
 116 -845 l 2,25,26
 89 -878 89 -878 71 -939 c 0,27,28
 62 -968 62 -968 52 -1002 c 0,29,30
 51 -1005 51 -1005 51 -1008 c 1,31,32
 96 -1003 96 -1003 154 -970 c 0,33,34
 208 -939 208 -939 252 -886 c 0,35,36
 302 -832 302 -832 321 -770 c 2,37,-1
 337 -722 l 1,38,-1
 345 -689 l 1,39,-1
 345 -648 l 1,40,-1
 343 -624 l 1,41,-1
 335 -567 l 1,20,21
336 66 m 1,42,43
 311 45 311 45 279 30 c 0,44,45
 211 -1 211 -1 156 -1 c 0,46,47
 68 -1 68 -1 35 32 c 1,48,-1
 36 -374 l 1,49,50
 61 -374 61 -374 93 -364 c 0,51,52
 124 -354 124 -354 153 -337 c 0,53,54
 205 -305 205 -305 251 -250 c 0,55,56
 281 -213 281 -213 292 -196 c 0,57,58
 313 -164 313 -164 321 -138 c 2,59,-1
 337 -86 l 1,60,-1
 344 -56 l 1,61,-1
 344 -15 l 1,62,-1
 342 10 l 1,63,-1
 336 66 l 1,42,43
0 -1076 m 1,64,-1
 0 124 l 2,65,66
 0 188 0 188 45 245 c 1,67,68
 72 289 72 289 147 325 c 0,69,70
 215 358 215 358 281 358 c 0,71,72
 341 358 341 358 383 325 c 0,73,74
 426 291 426 291 426 233 c 4,75,76
 426 202 426 202 417 172.5 c 128,-1,77
 408 143 408 143 385 116 c 0,78,79
 365 91 365 91 339 69 c 0,80,81
 338 68 338 68 337 67 c 2,82,-1
 375 67 l 1,83,84
 382 39 382 39 387 10 c 0,85,86
 390 -19 390 -19 390 -43 c 0,87,88
 391 -135 391 -135 360 -203 c 1,89,90
 368 -223 368 -223 376 -250 c 0,91,92
 390 -297 390 -297 390 -359 c 0,93,94
 391 -444 391 -444 356 -525 c 1,95,-1
 360 -521 l 1,96,97
 368 -541 368 -541 376 -567 c 0,98,99
 390 -614 390 -614 390 -677 c 0,100,101
 391 -756 391 -756 360 -830 c 1,102,103
 368 -850 368 -850 376 -876 c 0,104,105
 390 -923 390 -923 390 -986 c 0,106,107
 391 -1067 391 -1067 359 -1144 c 1,108,-1
 360 -1143 l 1,109,110
 368 -1163 368 -1163 376 -1189 c 0,111,112
 390 -1236 390 -1236 390 -1298 c 0,113,114
 391 -1443 391 -1443 289 -1577 c 1,115,-1
 200 -1682 l 1,116,-1
 151 -1741 l 1,117,-1
 116 -1784 l 2,118,119
 88 -1819 88 -1819 71 -1878 c 0,120,121
 63 -1907 63 -1907 52 -1941 c 0,122,123
 44 -1967 44 -1967 39 -2016 c 1,124,-1
 0 -2015 l 1,125,-1
 0 -1703 l 1,126,-1
 0 -1574 l 1,127,-1
 0 -1394 l 1,128,-1
 -1 -1394 l 1,129,-1
 0 -1076 l 1,64,-1
71 -599 m 0,130,131
 67 -620 67 -620 59 -646 c 0,132,133
 58 -650 58 -650 50 -690 c 1,134,135
 96 -685 96 -685 154 -653 c 0,136,137
 208 -622 208 -622 252 -568 c 1,138,139
 302 -514 302 -514 322 -453 c 2,140,-1
 338 -404 l 1,141,-1
 345 -371 l 1,142,-1
 345 -330 l 1,143,-1
 344 -306 l 1,144,-1
 335 -246 l 1,145,146
 327 -263 327 -263 316 -280 c 0,147,148
 304 -297 304 -297 288 -320 c 1,149,-1
 193 -421 l 1,150,-1
 148 -471 l 1,151,-1
 113 -517 l 2,152,153
 99 -535 99 -535 86 -554 c 0,154,155
 77 -571 77 -571 71 -599 c 0,130,131
336 -881 m 1,156,157
 316 -918 316 -918 289 -954 c 2,158,-1
 199 -1060 l 1,159,-1
 151 -1119 l 1,160,-1
 115 -1163 l 2,161,162
 87 -1198 87 -1198 71 -1257 c 0,163,164
 63 -1284 63 -1284 53 -1316 c 1,165,166
 98 -1310 98 -1310 154 -1279 c 0,167,168
 208 -1248 208 -1248 252 -1195 c 0,169,170
 302 -1141 302 -1141 322 -1079 c 2,171,-1
 338 -1031 l 1,172,-1
 345 -998 l 1,173,-1
 345 -957 l 1,174,-1
 344 -933 l 1,175,-1
 336 -881 l 1,156,157
EndSplineSet
EndChar

StartChar: d
Encoding: 100 100 38
Width: 428
VWidth: 2047
Flags: W
LayerCount: 2
Fore
SplineSet
336 -881 m 1,0,1
 316 -918 316 -918 289 -954 c 2,2,-1
 199 -1060 l 1,3,-1
 151 -1119 l 1,4,-1
 115 -1163 l 2,5,6
 87 -1198 87 -1198 71 -1257 c 0,7,8
 63 -1284 63 -1284 53 -1316 c 1,9,10
 98 -1310 98 -1310 154 -1279 c 0,11,12
 208 -1248 208 -1248 252 -1195 c 0,13,14
 302 -1141 302 -1141 322 -1079 c 2,15,-1
 338 -1031 l 1,16,-1
 345 -998 l 1,17,-1
 345 -957 l 1,18,-1
 344 -933 l 1,19,-1
 336 -881 l 1,0,1
71 -599 m 0,20,21
 67 -620 67 -620 59 -646 c 0,22,23
 58 -650 58 -650 50 -690 c 1,24,25
 96 -685 96 -685 154 -653 c 0,26,27
 208 -622 208 -622 252 -568 c 1,28,29
 302 -514 302 -514 322 -453 c 2,30,-1
 338 -404 l 1,31,-1
 345 -371 l 1,32,-1
 345 -330 l 1,33,-1
 344 -306 l 1,34,-1
 335 -246 l 1,35,36
 327 -263 327 -263 316 -280 c 0,37,38
 304 -297 304 -297 288 -320 c 1,39,-1
 193 -421 l 1,40,-1
 148 -471 l 1,41,-1
 113 -517 l 2,42,43
 99 -535 99 -535 86 -554 c 0,44,45
 77 -571 77 -571 71 -599 c 0,20,21
0 -1076 m 1,46,-1
 0 124 l 2,47,48
 0 188 0 188 45 245 c 1,49,50
 72 289 72 289 147 325 c 0,51,52
 215 358 215 358 281 358 c 0,53,54
 341 358 341 358 383 325 c 0,55,56
 426 291 426 291 426 233 c 0,57,58
 426 202 426 202 417 172.5 c 128,-1,59
 408 143 408 143 385 116 c 0,60,61
 365 91 365 91 339 69 c 0,62,63
 338 68 338 68 337 67 c 2,64,-1
 375 67 l 1,65,66
 382 39 382 39 387 10 c 0,67,68
 390 -19 390 -19 390 -43 c 0,69,70
 391 -135 391 -135 360 -203 c 1,71,72
 368 -223 368 -223 376 -250 c 0,73,74
 390 -297 390 -297 390 -359 c 0,75,76
 391 -444 391 -444 356 -525 c 1,77,-1
 360 -521 l 1,78,79
 368 -541 368 -541 376 -567 c 0,80,81
 390 -614 390 -614 390 -677 c 0,82,83
 391 -756 391 -756 360 -830 c 1,84,85
 368 -850 368 -850 376 -876 c 0,86,87
 390 -923 390 -923 390 -986 c 0,88,89
 391 -1131 391 -1131 289 -1263 c 1,90,-1
 200 -1369 l 1,91,-1
 151 -1428 l 1,92,-1
 116 -1472 l 2,93,94
 88 -1507 88 -1507 71 -1566 c 0,95,96
 63 -1595 63 -1595 52 -1629 c 0,97,98
 44 -1655 44 -1655 39 -1704 c 1,99,-1
 0 -1703 l 1,100,-1
 0 -1394 l 1,101,-1
 -1 -1394 l 1,102,-1
 0 -1076 l 1,46,-1
336 66 m 1,103,104
 311 45 311 45 279 30 c 0,105,106
 211 -1 211 -1 156 -1 c 0,107,108
 68 -1 68 -1 35 32 c 1,109,-1
 36 -374 l 1,110,111
 61 -374 61 -374 93 -364 c 0,112,113
 124 -354 124 -354 153 -337 c 0,114,115
 205 -305 205 -305 251 -250 c 0,116,117
 281 -213 281 -213 292 -196 c 0,118,119
 313 -164 313 -164 321 -138 c 2,120,-1
 337 -86 l 1,121,-1
 344 -56 l 1,122,-1
 344 -15 l 1,123,-1
 342 10 l 1,124,-1
 336 66 l 1,103,104
335 -567 m 1,125,126
 315 -602 315 -602 289 -637 c 2,127,-1
 200 -742 l 1,128,-1
 151 -801 l 1,129,-1
 116 -845 l 2,130,131
 89 -878 89 -878 71 -939 c 0,132,133
 62 -968 62 -968 52 -1002 c 0,134,135
 51 -1005 51 -1005 51 -1008 c 1,136,137
 96 -1003 96 -1003 154 -970 c 0,138,139
 208 -939 208 -939 252 -886 c 0,140,141
 302 -832 302 -832 321 -770 c 2,142,-1
 337 -722 l 1,143,-1
 345 -689 l 1,144,-1
 345 -648 l 1,145,-1
 343 -624 l 1,146,-1
 335 -567 l 1,125,126
EndSplineSet
EndChar

StartChar: e
Encoding: 101 101 39
Width: 428
VWidth: 2047
Flags: W
LayerCount: 2
Fore
SplineSet
335 -567 m 1,0,1
 315 -602 315 -602 289 -637 c 2,2,-1
 200 -742 l 1,3,-1
 151 -801 l 1,4,-1
 116 -845 l 2,5,6
 89 -878 89 -878 71 -939 c 0,7,8
 62 -968 62 -968 52 -1002 c 0,9,10
 51 -1005 51 -1005 51 -1008 c 1,11,12
 96 -1003 96 -1003 154 -970 c 0,13,14
 208 -939 208 -939 252 -886 c 0,15,16
 302 -832 302 -832 321 -770 c 2,17,-1
 337 -722 l 1,18,-1
 345 -689 l 1,19,-1
 345 -648 l 1,20,-1
 343 -624 l 1,21,-1
 335 -567 l 1,0,1
336 66 m 1,22,23
 311 45 311 45 279 30 c 0,24,25
 211 -1 211 -1 156 -1 c 0,26,27
 68 -1 68 -1 35 32 c 1,28,-1
 36 -374 l 1,29,30
 61 -374 61 -374 93 -364 c 0,31,32
 124 -354 124 -354 153 -337 c 0,33,34
 205 -305 205 -305 251 -250 c 0,35,36
 281 -213 281 -213 292 -196 c 0,37,38
 313 -164 313 -164 321 -138 c 2,39,-1
 337 -86 l 1,40,-1
 344 -56 l 1,41,-1
 344 -15 l 1,42,-1
 342 10 l 1,43,-1
 336 66 l 1,22,23
0 -1076 m 1,44,-1
 0 124 l 2,45,46
 0 188 0 188 45 245 c 1,47,48
 72 289 72 289 147 325 c 0,49,50
 215 358 215 358 281 358 c 0,51,52
 341 358 341 358 383 325 c 0,53,54
 426 291 426 291 426 233 c 0,55,56
 426 202 426 202 417 172.5 c 128,-1,57
 408 143 408 143 385 116 c 0,58,59
 365 91 365 91 339 69 c 0,60,61
 338 68 338 68 337 67 c 2,62,-1
 375 67 l 1,63,64
 382 39 382 39 387 10 c 0,65,66
 390 -19 390 -19 390 -43 c 0,67,68
 391 -135 391 -135 360 -203 c 1,69,70
 368 -223 368 -223 376 -250 c 0,71,72
 390 -297 390 -297 390 -359 c 0,73,74
 391 -444 391 -444 356 -525 c 1,75,-1
 360 -521 l 1,76,77
 368 -541 368 -541 376 -567 c 0,78,79
 390 -614 390 -614 390 -677 c 0,80,81
 391 -822 391 -822 289 -954 c 1,82,-1
 199 -1060 l 1,83,-1
 151 -1119 l 1,84,-1
 115 -1163 l 2,85,86
 87 -1198 87 -1198 71 -1257 c 0,87,88
 63 -1286 63 -1286 52 -1320 c 0,89,90
 44 -1346 44 -1346 38 -1395 c 1,91,-1
 -1 -1394 l 1,92,-1
 0 -1076 l 1,44,-1
71 -599 m 0,93,94
 67 -620 67 -620 59 -646 c 0,95,96
 58 -650 58 -650 50 -690 c 1,97,98
 96 -685 96 -685 154 -653 c 0,99,100
 208 -622 208 -622 252 -568 c 1,101,102
 302 -514 302 -514 322 -453 c 2,103,-1
 338 -404 l 1,104,-1
 345 -371 l 1,105,-1
 345 -330 l 1,106,-1
 344 -306 l 1,107,-1
 335 -246 l 1,108,109
 327 -263 327 -263 316 -280 c 0,110,111
 304 -297 304 -297 288 -320 c 1,112,-1
 193 -421 l 1,113,-1
 148 -471 l 1,114,-1
 113 -517 l 2,115,116
 99 -535 99 -535 86 -554 c 0,117,118
 77 -571 77 -571 71 -599 c 0,93,94
EndSplineSet
EndChar

StartChar: f
Encoding: 102 102 40
Width: 428
VWidth: 2047
Flags: W
LayerCount: 2
Fore
SplineSet
71 -599 m 0,0,1
 67 -620 67 -620 59 -646 c 0,2,3
 58 -650 58 -650 50 -690 c 1,4,5
 96 -685 96 -685 154 -653 c 0,6,7
 208 -622 208 -622 252 -568 c 1,8,9
 302 -514 302 -514 322 -453 c 2,10,-1
 338 -404 l 1,11,-1
 345 -371 l 1,12,-1
 345 -330 l 1,13,-1
 344 -306 l 1,14,-1
 335 -246 l 1,15,16
 327 -263 327 -263 316 -280 c 0,17,18
 304 -297 304 -297 288 -320 c 1,19,-1
 193 -421 l 1,20,-1
 148 -471 l 1,21,-1
 113 -517 l 2,22,23
 99 -535 99 -535 86 -554 c 0,24,25
 77 -571 77 -571 71 -599 c 0,0,1
0 -1076 m 1,26,-1
 0 124 l 2,27,28
 0 188 0 188 45 245 c 1,29,30
 72 289 72 289 147 325 c 0,31,32
 215 358 215 358 281 358 c 0,33,34
 341 358 341 358 383 325 c 0,35,36
 426 291 426 291 426 233 c 0,37,38
 426 202 426 202 417 172.5 c 128,-1,39
 408 143 408 143 385 116 c 0,40,41
 365 91 365 91 339 68.5 c 0,42,43
 338.129119821 67.7463536909 338.129119821 67.7463536909 337.249264111 67 c 2,44,-1
 375 67 l 1,45,46
 382 39 382 39 387 10 c 0,47,48
 390 -19 390 -19 390 -43 c 0,49,50
 391 -135 391 -135 360 -203 c 1,51,52
 368 -223 368 -223 376 -250 c 0,53,54
 390 -297 390 -297 390 -359 c 0,55,56
 391 -504 391 -504 289 -637 c 1,57,-1
 200 -742 l 1,58,-1
 151 -801 l 1,59,-1
 116 -845 l 2,60,61
 89 -878 89 -878 71 -939 c 0,62,63
 62 -968 62 -968 52 -1002 c 0,64,65
 44 -1028 44 -1028 39 -1077 c 1,66,-1
 0 -1076 l 1,26,-1
336.101796232 66.0329357993 m 1,67,68
 311.120996425 45.1157630235 311.120996425 45.1157630235 279 30 c 0,69,70
 211 -1 211 -1 156 -1 c 0,71,72
 68 -1 68 -1 35 32 c 1,73,-1
 36 -374 l 1,74,75
 61 -374 61 -374 93 -364 c 0,76,77
 124 -354 124 -354 153 -337 c 0,78,79
 205 -305 205 -305 251 -250 c 0,80,81
 281 -213 281 -213 292 -196 c 0,82,83
 313 -164 313 -164 321 -138 c 2,84,-1
 337 -86 l 1,85,-1
 344 -56 l 1,86,-1
 344 -15 l 1,87,-1
 342 10 l 1,88,-1
 336.101796232 66.0329357993 l 1,67,68
EndSplineSet
EndChar

StartChar: g
Encoding: 103 103 41
Width: 428
VWidth: 2047
Flags: W
LayerCount: 2
Fore
SplineSet
35 -687 m 5,0,1
 59 -687 59 -687 91 -676.5 c 132,-1,2
 123 -666 123 -666 152 -651 c 4,3,4
 207 -622 207 -622 250 -566 c 5,5,6
 299 -515 299 -515 319 -451 c 4,7,8
 328 -427 328 -427 332 -414.5 c 132,-1,9
 336 -402 336 -402 337 -398.5 c 132,-1,10
 338 -395 338 -395 339 -386.5 c 132,-1,11
 340 -378 340 -378 344 -370 c 5,12,-1
 344 -329 l 5,13,-1
 342 -305 l 5,14,-1
 336 -250 l 6,15,16
 332 -227 332 -227 325.5 -208 c 132,-1,17
 319 -189 319 -189 313 -171 c 6,18,-1
 279 -81 l 5,19,-1
 309 -83 l 5,20,21
 326 -111 326 -111 335 -135.5 c 132,-1,22
 344 -160 344 -160 358 -194 c 4,23,24
 377 -239 377 -239 383 -280.5 c 132,-1,25
 389 -322 389 -322 389 -358 c 4,26,27
 389 -504 389 -504 287 -636 c 5,28,-1
 197 -740 l 5,29,-1
 147 -800 l 5,30,-1
 113 -844 l 6,31,32
 84 -885 84 -885 68 -938 c 4,33,34
 57 -966 57 -966 48 -999.5 c 132,-1,35
 39 -1033 39 -1033 35 -1075 c 5,36,-1
 0 -1075 l 5,37,-1
 0 125 l 6,38,39
 0 189 0 189 45 247 c 5,40,41
 74 294 74 294 147 326 c 4,42,43
 211 359 211 359 281 360 c 4,44,45
 344 360 344 360 383 326 c 4,46,47
 426 295 426 295 426 235 c 4,48,49
 426 204 426 204 417 174 c 132,-1,50
 408 144 408 144 385 117 c 4,51,52
 365 92 365 92 339 69.5 c 132,-1,53
 313 47 313 47 279 32 c 4,54,55
 211 1 211 1 156 1 c 4,56,57
 68 1 68 1 35 33 c 5,58,-1
 35 -687 l 5,0,1
EndSplineSet
EndChar

StartChar: h
Encoding: 104 104 42
Width: 428
VWidth: 2047
Flags: W
LayerCount: 2
Fore
SplineSet
35 -1075 m 5,0,-1
 0 -1075 l 5,1,-1
 0 125 l 6,2,3
 0 189 0 189 45 247 c 5,4,5
 74 294 74 294 147 326 c 4,6,7
 211 359 211 359 281 360 c 4,8,9
 344 360 344 360 383 326 c 4,10,11
 426 295 426 295 426 235 c 4,12,13
 426 204 426 204 417 174 c 132,-1,14
 408 144 408 144 385 117 c 4,15,16
 365 92 365 92 339 69.5 c 132,-1,17
 313 47 313 47 279 32 c 4,18,19
 211 1 211 1 156 1 c 4,20,21
 68 1 68 1 35 33 c 5,22,-1
 35 -1075 l 5,0,-1
EndSplineSet
EndChar

StartChar: i
Encoding: 105 105 43
Width: 428
VWidth: 2047
Flags: W
LayerCount: 2
Fore
SplineSet
35 -1075 m 5,0,-1
 0 -1075 l 5,1,-1
 0 125 l 6,2,3
 0 189 0 189 45 247 c 5,4,5
 74 294 74 294 147 326 c 4,6,7
 211 359 211 359 281 360 c 4,8,9
 344 360 344 360 383 326 c 4,10,11
 426 295 426 295 426 235 c 4,12,13
 426 204 426 204 417 174 c 132,-1,14
 408 144 408 144 385 117 c 4,15,16
 365 92 365 92 339 69.5 c 132,-1,17
 313 47 313 47 279 32 c 4,18,19
 211 1 211 1 156 1 c 4,20,21
 68 1 68 1 35 33 c 5,22,-1
 35 -1075 l 5,0,-1
131 207 m 4,23,24
 104 188 104 188 74 149 c 4,25,26
 37 102 37 102 37 80 c 5,27,28
 43 56 43 56 76 42 c 5,29,30
 115 42 115 42 154 64 c 5,31,32
 186 74 186 74 254 122 c 4,33,34
 283 143 283 143 289 148 c 4,35,36
 302 159 302 159 330 192 c 4,37,38
 377 245 377 245 377 277 c 4,39,40
 377 301 377 301 346 312 c 5,41,42
 281 312 281 312 131 207 c 4,23,24
EndSplineSet
EndChar

StartChar: j
Encoding: 106 106 44
Width: 592
VWidth: 2047
Flags: W
LayerCount: 2
Fore
SplineSet
181 210 m 4,0,1
 181 184 181 184 182.5 173.5 c 132,-1,2
 184 163 184 163 193 139 c 4,3,4
 200 126 200 126 207.5 111.5 c 132,-1,5
 215 97 215 97 227 82 c 4,6,7
 269 30 269 30 330 31 c 5,8,9
 377 36 377 36 396 60 c 4,10,11
 412 81 412 81 411 150 c 4,12,13
 411 167 411 167 407.5 184.5 c 132,-1,14
 404 202 404 202 400 217 c 4,15,16
 395 234 395 234 385 249 c 132,-1,17
 375 264 375 264 363 278 c 4,18,19
 323 329 323 329 259 329 c 5,20,21
 219 324 219 324 200 300 c 132,-1,22
 181 276 181 276 181 210 c 4,0,1
2 180 m 260,23,24
 2 245 2 245 53 285 c 4,25,26
 104 326 104 326 167 341 c 4,27,28
 180 344 180 344 196 346.5 c 132,-1,29
 212 349 212 349 229 353 c 4,30,31
 261 358 261 358 290 358 c 4,32,33
 361 358 361 358 419 341 c 5,34,35
 486 327 486 327 539 285 c 5,36,37
 593 248 593 248 592 180 c 4,38,39
 592 121 592 121 546 79 c 4,40,41
 501 40 501 40 431 20 c 4,42,43
 396 9 396 9 363 5.5 c 132,-1,44
 330 2 330 2 300 2 c 4,45,46
 240 2 240 2 172 18 c 132,-1,47
 104 34 104 34 53 74 c 4,48,49
 2 115 2 115 2 180 c 260,23,24
EndSplineSet
EndChar

StartChar: k
Encoding: 107 107 45
Width: 1022
VWidth: 2047
Flags: W
LayerCount: 2
Fore
SplineSet
793 372 m 1,0,-1
 874 372 l 1,1,-1
 874 -10 l 1,2,-1
 793 -10 l 1,3,-1
 793 163 l 1,4,5
 786 110 786 110 747 77 c 0,6,7
 724 56 724 56 697 42 c 128,-1,8
 670 28 670 28 638 19 c 0,9,10
 605 7 605 7 575.5 3 c 128,-1,11
 546 -1 546 -1 517 -1 c 2,12,-1
 490 -1 l 2,13,14
 466 -1 466 -1 463 1 c 0,15,16
 451 1 451 1 434 5 c 128,-1,17
 417 9 417 9 396 14 c 0,18,19
 334 31 334 31 285 76 c 1,20,21
 245 109 245 109 236 159 c 1,22,-1
 236 -10 l 1,23,-1
 155 -10 l 1,24,-1
 155 372 l 1,25,-1
 236 372 l 1,26,-1
 236 202 l 1,27,28
 243 248 243 248 280 282 c 0,29,30
 302 301 302 301 330 316.5 c 128,-1,31
 358 332 358 332 392 341 c 0,32,33
 479 362 479 362 510 362 c 0,34,35
 578 362 578 362 631 343 c 0,36,37
 662 335 662 335 691 322 c 128,-1,38
 720 309 720 309 745 289 c 0,39,40
 786 251 786 251 793 199 c 1,41,-1
 793 372 l 1,0,-1
404 189 m 2,42,43
 404 176 404 176 406 166.5 c 128,-1,44
 408 157 408 157 417 137 c 0,45,46
 424 121 424 121 431 109 c 128,-1,47
 438 97 438 97 449 81 c 0,48,49
 492 26 492 26 546 26 c 1,50,51
 589 34 589 34 602 59 c 0,52,53
 608 65 608 65 617 91 c 0,54,55
 623 108 623 108 622 149 c 0,56,57
 622 223 622 223 580 280 c 1,58,59
 533 332 533 332 481 332 c 0,60,61
 440 330 440 330 420 300 c 0,62,63
 404 277 404 277 404 213 c 2,64,-1
 404 189 l 2,42,43
939 372 m 1,65,-1
 1022 372 l 5,66,-1
 1022 -10 l 1,67,-1
 939 -10 l 1,68,-1
 939 372 l 1,65,-1
-0 372 m 1,69,-1
 82 372 l 1,70,-1
 82 -10 l 1,71,-1
 -0 -10 l 1,72,-1
 -0 372 l 1,69,-1
EndSplineSet
EndChar

StartChar: l
Encoding: 108 108 46
Width: 670
VWidth: 2047
Flags: W
LayerCount: 2
Fore
SplineSet
39 180 m 0,0,1
 39 243 39 243 91 285 c 0,2,3
 145 328 145 328 204 341 c 0,4,5
 217 344 217 344 234 347 c 0,6,7
 250 350 250 350 266 353 c 0,8,9
 298 358 298 358 328 358 c 0,10,11
 399 358 399 358 456 341 c 1,12,13
 523 327 523 327 576 285 c 0,14,15
 622.599118767 252.468539729 622.599118767 252.468539729 629 195.972745544 c 1,16,-1
 629 403 l 1,17,-1
 670 403 l 5,18,-1
 670 -43 l 1,19,-1
 629 -43 l 1,20,-1
 629 162.900456339 l 1,21,22
 623.1443454 114.019535349 623.1443454 114.019535349 583 79 c 0,23,24
 539 41 539 41 468 20 c 0,25,26
 429 9 429 9 400 6 c 0,27,28
 367 2 367 2 337 2 c 0,29,30
 276 2 276 2 209 18 c 0,31,32
 143 33 143 33 91 74 c 128,-1,33
 39 115 39 115 39 180 c 0,0,1
218 210 m 0,34,35
 218 184 218 184 220 174 c 0,36,37
 222 163 222 163 230 139 c 0,38,39
 237 126 237 126 245 111 c 0,40,41
 253 97 253 97 265 82 c 0,42,43
 306 30 306 30 367 31 c 1,44,45
 414 36 414 36 433 60 c 0,46,47
 449 80 449 80 449 150 c 0,48,49
 449 167 449 167 445 185 c 0,50,51
 442 202 442 202 437 217 c 0,52,53
 432 234 432 234 422 249 c 128,-1,54
 412 264 412 264 400 278 c 0,55,56
 360 329 360 329 296 329 c 1,57,58
 256 324 256 324 237 300 c 0,59,60
 218 277 218 277 218 210 c 0,34,35
0 403 m 1,61,-1
 37 403 l 1,62,-1
 37 -1081 l 1,63,-1
 0 -1081 l 1,64,-1
 0 403 l 1,61,-1
EndSplineSet
EndChar

StartChar: m
Encoding: 109 109 47
Width: 1127
VWidth: 2047
Flags: W
LayerCount: 2
Fore
SplineSet
0 536 m 1,0,-1
 37 536 l 1,1,-1
 37 360 l 1,2,-1
 1086.48854962 360 l 1,3,-1
 1086 536 l 1,4,-1
 1127 536 l 1,5,-1
 1127 -905 l 5,6,-1
 1090 -905 l 1,7,-1
 1087.48507981 1 l 1,8,-1
 37 1 l 1,9,-1
 37 -185 l 1,10,-1
 0 -185 l 1,11,-1
 0 536 l 1,0,-1
1086.80499653 246 m 1,12,-1
 37 246 l 1,13,-1
 37 116 l 1,14,-1
 1087.16585704 116 l 1,15,-1
 1086.80499653 246 l 1,12,-1
EndSplineSet
EndChar

StartChar: o
Encoding: 111 111 48
Width: 321
VWidth: 2047
Flags: WO
LayerCount: 2
Fore
SplineSet
258 988 m 5,0,1
 341 1293 l 5,2,3
 259 1248 259 1248 209 1249 c 4,4,5
 170 1249 170 1249 131 1280 c 4,6,7
 99 1305 99 1305 99 1347 c 4,8,9
 99 1385 99 1385 123.5 1414 c 132,-1,10
 148 1443 148 1443 186 1443 c 4,11,12
 213 1444 213 1444 244 1413 c 5,13,14
 264 1385 264 1385 264 1347 c 5,15,-1
 259 1331 l 5,16,-1
 253 1314 l 5,17,18
 255 1301 255 1301 273 1300 c 4,19,20
 293 1299 293 1299 359 1353 c 5,21,-1
 442 1650 l 5,22,-1
 372 1619 l 5,23,-1
 343 1611 l 5,24,-1
 311 1609 l 6,25,26
 271 1605 271 1605 233 1636 c 4,27,28
 197 1665 197 1665 198 1705 c 4,29,30
 198 1741 198 1741 218 1767 c 132,-1,31
 238 1793 238 1793 273 1799 c 5,32,33
 318 1799 318 1799 344 1773 c 5,34,35
 367 1744 367 1744 367 1711 c 4,36,37
 367 1701 367 1701 366.5 1695 c 132,-1,38
 366 1689 366 1689 360 1666 c 5,39,-1
 373 1660 l 5,40,41
 445 1683 445 1683 497 1767 c 5,42,-1
 517 1767 l 5,43,-1
 433 1469 l 5,44,-1
 -6 -124 l 5,45,-1
 -50 -124 l 5,46,-1
 42 209 l 5,47,48
 -41 164 -41 164 -89 165 c 4,49,50
 -129 165 -129 165 -167 196 c 4,51,52
 -201 223 -201 223 -200 263 c 4,53,54
 -200 300 -200 300 -176 330 c 4,55,56
 -154 358 -154 358 -112 359 c 4,57,58
 -85 359 -85 359 -55 329 c 5,59,60
 -33 301 -33 301 -34 263 c 5,61,-1
 -40 247 l 5,62,-1
 -46 230 l 5,63,64
 -44 217 -44 217 -32 216 c 4,65,66
 -7 215 -7 215 57 267 c 5,67,-1
 141 572 l 5,68,69
 60 527 60 527 9 527 c 4,70,71
 -30 527 -30 527 -69 558 c 4,72,73
 -102 584 -102 584 -102 626 c 4,74,75
 -102 663 -102 663 -77.5 692.5 c 132,-1,76
 -53 722 -53 722 -14 722 c 4,77,78
 13 722 13 722 43 691 c 4,79,80
 64 664 64 664 64 626 c 5,81,-1
 59 610 l 5,82,-1
 52 593 l 5,83,84
 54 579 54 579 66 578 c 4,85,86
 92 577 92 577 157 631 c 5,87,-1
 244 931 l 5,88,89
 163 886 163 886 112 886 c 4,90,91
 73 886 73 886 34 917 c 4,92,93
 2 943 2 943 1 984 c 4,94,95
 1 1021 1 1021 25.5 1050.5 c 132,-1,96
 50 1080 50 1080 89 1080 c 4,97,98
 116 1080 116 1080 146 1050 c 5,99,100
 166 1024 166 1024 167 984 c 5,101,-1
 161 968 l 5,102,-1
 154 951 l 5,103,104
 157 939 157 939 175 938 c 4,105,106
 194 936 194 936 258 988 c 5,0,1
EndSplineSet
EndChar

StartChar: p
Encoding: 112 112 49
Width: 321
VWidth: 2047
Flags: W
LayerCount: 2
Fore
SplineSet
242 931 m 1,0,1
 160 886 160 886 110 886 c 0,2,3
 71 886 71 886 32 917 c 0,4,5
 -1 943 -1 943 -2 984 c 0,6,7
 -2 1021 -2 1021 22.5 1050.5 c 128,-1,8
 47 1080 47 1080 86 1080 c 0,9,10
 113 1080 113 1080 143 1050 c 1,11,12
 164 1023 164 1023 165 984 c 1,13,-1
 159 968 l 1,14,-1
 152 951 l 1,15,16
 154 938 154 938 172 938 c 0,17,18
 192 937 192 937 259 990 c 1,19,-1
 342 1291 l 1,20,-1
 272 1261 l 1,21,-1
 243 1252 l 1,22,-1
 210 1251 l 2,23,24
 167 1249 167 1249 133 1278 c 0,25,26
 98 1307 98 1307 98 1346 c 0,27,28
 98 1381 98 1381 118.5 1408 c 128,-1,29
 139 1435 139 1435 174 1441 c 1,30,31
 219 1441 219 1441 245 1414 c 1,32,33
 268 1385 268 1385 268 1353 c 0,34,35
 268 1343 268 1343 267 1336.5 c 128,-1,36
 266 1330 266 1330 259 1308 c 1,37,-1
 274 1301 l 1,38,39
 346 1324 346 1324 397 1409 c 1,40,-1
 417 1409 l 5,41,-1
 -76 -363 l 1,42,-1
 -120 -363 l 1,43,-1
 41 211 l 1,44,45
 -42 166 -42 166 -90 167 c 0,46,47
 -130 168 -130 168 -168 198 c 0,48,49
 -202 225 -202 225 -201 265 c 0,50,51
 -200 301 -200 301 -177 332 c 0,52,53
 -155 360 -155 360 -113 361 c 0,54,55
 -87 362 -87 362 -56 331 c 1,56,57
 -34 303 -34 303 -35 265 c 1,58,-1
 -41 249 l 1,59,-1
 -47 232 l 1,60,61
 -44 219 -44 219 -33 218 c 0,62,63
 -8 217 -8 217 56 269 c 1,64,-1
 139 571 l 1,65,66
 58 526 58 526 7 526 c 0,67,68
 -32 526 -32 526 -71 557 c 0,69,70
 -104 583 -104 583 -103 624 c 0,71,72
 -103 661 -103 661 -78.5 690.5 c 128,-1,73
 -54 720 -54 720 -15 720 c 0,74,75
 12 720 12 720 42 690 c 1,76,77
 63 663 63 663 62 624 c 1,78,-1
 57 608 l 1,79,-1
 51 591 l 1,80,81
 53 577 53 577 64 577 c 0,82,83
 90 576 90 576 156 630 c 1,84,-1
 242 931 l 1,0,1
EndSplineSet
EndChar

StartChar: q
Encoding: 113 113 50
Width: 321
VWidth: 2047
Flags: W
LayerCount: 2
Fore
SplineSet
241 933 m 1,0,1
 159 888 159 888 109 888 c 0,2,3
 70 888 70 888 31 919 c 0,4,5
 -2 945 -2 945 -2 986 c 0,6,7
 -2 1023 -2 1023 22.5 1053 c 128,-1,8
 47 1083 47 1083 86 1083 c 0,9,10
 113 1083 113 1083 143 1052 c 1,11,12
 164 1025 164 1025 164 986 c 1,13,-1
 158 970 l 1,14,-1
 152 953 l 1,15,16
 154 940 154 940 172 940 c 0,17,18
 192 939 192 939 258 992 c 1,19,-1
 342 1293 l 1,20,-1
 272 1262 l 1,21,-1
 243 1254 l 1,22,-1
 210 1252 l 2,23,24
 167 1250 167 1250 133 1279 c 0,25,26
 98 1308 98 1308 98 1348 c 0,27,28
 98 1383 98 1383 118.5 1409.5 c 128,-1,29
 139 1436 139 1436 174 1443 c 1,30,31
 219 1443 219 1443 245 1416 c 1,32,33
 268 1387 268 1387 268 1354 c 0,34,35
 268 1344 268 1344 267 1338 c 128,-1,36
 266 1332 266 1332 259 1309 c 1,37,-1
 274 1303 l 1,38,39
 346 1326 346 1326 397 1411 c 1,40,-1
 417 1411 l 1,41,-1
 32 1 l 1,42,-1
 -12 1 l 1,43,-1
 140 569 l 1,44,45
 59 524 59 524 8 525 c 0,46,47
 -31 525 -31 525 -70 556 c 0,48,49
 -103 582 -103 582 -102 623 c 0,50,51
 -102 660 -102 660 -77.5 689.5 c 128,-1,52
 -53 719 -53 719 -14 719 c 0,53,54
 13 719 13 719 43 689 c 1,55,56
 64 662 64 662 63 623 c 1,57,-1
 58 607 l 1,58,-1
 52 590 l 1,59,60
 54 576 54 576 65 576 c 0,61,62
 91 575 91 575 157 629 c 1,63,-1
 241 933 l 1,0,1
EndSplineSet
EndChar

StartChar: r
Encoding: 114 114 51
Width: 321
VWidth: 2047
Flags: W
LayerCount: 2
Fore
SplineSet
243 933 m 5,0,-1
 172 902 l 5,1,-1
 143 894 l 5,2,-1
 111 892 l 6,3,4
 70 889 70 889 33 919 c 4,5,6
 -2 948 -2 948 -2 988 c 4,7,8
 -2 1023 -2 1023 19 1049.5 c 132,-1,9
 40 1076 40 1076 74 1082 c 5,10,11
 119 1082 119 1082 145 1056 c 5,12,13
 168 1027 168 1027 168 994 c 4,14,15
 168 984 168 984 167 978 c 132,-1,16
 166 972 166 972 160 949 c 5,17,-1
 175 943 l 5,18,19
 247 966 247 966 297 1050 c 5,20,-1
 317 1050 l 5,21,-1
 27 1 l 5,22,-1
 -17 1 l 5,23,-1
 142 571 l 5,24,25
 58 525 58 525 8 525 c 4,26,27
 -32 525 -32 525 -70 556 c 4,28,29
 -103 583 -103 583 -102 624 c 4,30,31
 -102 661 -102 661 -77.5 690.5 c 132,-1,32
 -53 720 -53 720 -14 720 c 4,33,34
 13 720 13 720 43 689 c 5,35,36
 64 662 64 662 63 624 c 5,37,-1
 58 607 l 5,38,-1
 52 591 l 5,39,40
 54 578 54 578 72 576 c 4,41,42
 92 575 92 575 158 630 c 5,43,-1
 243 933 l 5,0,-1
EndSplineSet
EndChar

StartChar: s
Encoding: 115 115 52
Width: 321
VWidth: 2047
Flags: W
LayerCount: 2
Fore
SplineSet
246 933 m 1,0,-1
 176 902 l 1,1,-1
 147 895 l 1,2,-1
 115 892 l 2,3,4
 74 889 74 889 37 920 c 0,5,6
 2 949 2 949 2 989 c 0,7,8
 2 1024 2 1024 22.5 1050 c 128,-1,9
 43 1076 43 1076 78 1083 c 1,10,11
 123 1083 123 1083 149 1057 c 1,12,13
 172 1028 172 1028 172 994 c 0,14,15
 172 984 172 984 171 978 c 128,-1,16
 170 972 170 972 164 950 c 1,17,-1
 178 943 l 1,18,19
 250 966 250 966 301 1050 c 1,20,-1
 321 1050 l 5,21,-1
 136 360 l 1,22,-1
 93 360 l 1,23,-1
 246 933 l 1,0,-1
EndSplineSet
EndChar

StartChar: t
Encoding: 116 116 53
Width: 363
VWidth: 2047
Flags: W
LayerCount: 2
Fore
SplineSet
363 971 m 5,0,1
 323 924 323 924 295 886 c 128,-1,2
 267 848 267 848 249 817 c 0,3,4
 216 754 216 754 216 702 c 0,5,6
 216 655 216 655 253 592 c 2,7,-1
 296 524 l 2,8,9
 300 520 300 520 304 513 c 128,-1,10
 308 506 308 506 318 496 c 0,11,12
 329 481 329 481 338 470 c 128,-1,13
 347 459 347 459 357 444 c 1,14,-1
 333 416 l 1,15,16
 323 422 323 422 308.5 429 c 128,-1,17
 294 436 294 436 275 444 c 0,18,19
 255 449 255 449 242.5 452 c 128,-1,20
 230 455 230 455 220 455 c 0,21,22
 183 455 183 455 163 430 c 0,23,24
 144 401 144 401 138 365 c 1,25,26
 138 324 138 324 157 281 c 0,27,28
 167 260 167 260 179 239.5 c 128,-1,29
 191 219 191 219 210 203 c 1,30,-1
 191 174 l 1,31,32
 146 205 146 205 113.5 235.5 c 128,-1,33
 81 266 81 266 58 295 c 0,34,35
 30 326 30 326 15 362 c 0,36,37
 2 379 2 379 -0.5 395.5 c 128,-1,38
 -3 412 -3 412 0 428 c 0,39,40
 13 496 13 496 36 518 c 1,41,42
 75 551 75 551 130 551 c 0,43,44
 181 551 181 551 241 514 c 1,45,-1
 26 811 l 1,46,47
 95 877 95 877 132 935 c 128,-1,48
 169 993 169 993 169 1047 c 0,49,50
 169 1090 169 1090 145.5 1140 c 128,-1,51
 122 1190 122 1190 79 1249 c 1,52,-1
 136 1249 l 1,53,-1
 363 971 l 5,0,1
EndSplineSet
EndChar

StartChar: u
Encoding: 117 117 54
Width: 428
VWidth: 2047
Flags: W
LayerCount: 2
Fore
SplineSet
0 721 m 5,0,-1
 0 884 l 5,1,-1
 428 884 l 5,2,-1
 428 721 l 5,3,-1
 0 721 l 5,0,-1
EndSplineSet
EndChar

StartChar: v
Encoding: 118 118 55
Width: 428
VWidth: 2047
Flags: W
LayerCount: 2
Fore
SplineSet
0 917 m 5,0,-1
 0 1080 l 5,1,-1
 428 1080 l 5,2,-1
 428 917 l 5,3,-1
 0 917 l 5,0,-1
EndSplineSet
EndChar

StartChar: w
Encoding: 119 119 56
Width: 428
VWidth: 2047
Flags: W
LayerCount: 2
Fore
SplineSet
0 721 m 5,0,-1
 0 1080 l 5,1,-1
 428 1080 l 5,2,-1
 428 721 l 5,3,-1
 0 721 l 5,0,-1
EndSplineSet
EndChar

StartChar: x
Encoding: 120 120 57
Width: 428
VWidth: 2047
Flags: W
LayerCount: 2
Fore
SplineSet
0 361 m 5,0,-1
 0 1080 l 5,1,-1
 428 1080 l 5,2,-1
 428 361 l 5,3,-1
 0 361 l 5,0,-1
EndSplineSet
EndChar

StartChar: y
Encoding: 121 121 58
Width: 723
VWidth: 2047
Flags: W
LayerCount: 2
Fore
SplineSet
0 361 m 1,0,-1
 0 1080 l 1,1,-1
 723 1080 l 5,2,-1
 723 361 l 5,3,-1
 0 361 l 1,0,-1
EndSplineSet
EndChar

StartChar: quoteleft
Encoding: 8216 8216 59
Width: 512
VWidth: 2047
Flags: W
LayerCount: 2
Fore
SplineSet
102 1434 m 1,0,-1
 102 31 l 1,1,-1
 102 0 l 1,2,-1
 0 0 l 1,3,-1
 0 1403 l 1,4,-1
 0 1434 l 1,5,-1
 102 1434 l 1,0,-1
EndSplineSet
Validated: 1
EndChar

StartChar: quoteright
Encoding: 8217 8217 60
Width: 512
VWidth: 2047
Flags: W
LayerCount: 2
Fore
SplineSet
102 1434 m 1,0,-1
 102 31 l 1,1,-1
 102 0 l 1,2,-1
 0 0 l 1,3,-1
 0 1403 l 1,4,-1
 0 1434 l 1,5,-1
 102 1434 l 1,0,-1
EndSplineSet
Validated: 1
EndChar

StartChar: quotedblleft
Encoding: 8220 8220 61
Width: 512
VWidth: 2047
Flags: W
LayerCount: 2
Fore
SplineSet
102 0 m 1,0,-1
 0 0 l 1,1,-1
 0 1434 l 1,2,-1
 102 1434 l 1,3,-1
 102 0 l 1,0,-1
311 0 m 1,4,-1
 205 0 l 1,5,-1
 205 1434 l 1,6,-1
 311 1434 l 1,7,-1
 311 0 l 1,4,-1
EndSplineSet
Validated: 1
EndChar

StartChar: quotedblright
Encoding: 8221 8221 62
Width: 512
VWidth: 2047
Flags: W
LayerCount: 2
Fore
SplineSet
102 0 m 1,0,-1
 0 0 l 1,1,-1
 0 1434 l 1,2,-1
 102 1434 l 1,3,-1
 102 0 l 1,0,-1
311 0 m 1,4,-1
 205 0 l 1,5,-1
 205 1434 l 1,6,-1
 311 1434 l 1,7,-1
 311 0 l 1,4,-1
EndSplineSet
Validated: 1
EndChar

StartChar: endash
Encoding: 8211 8211 63
Width: 512
VWidth: 2047
Flags: W
LayerCount: 2
Fore
SplineSet
0 358 m 1,0,-1
 512 358 l 1,1,-1
 512 256 l 1,2,-1
 0 256 l 1,3,-1
 0 358 l 1,0,-1
EndSplineSet
Validated: 1
EndChar

StartChar: emdash
Encoding: 8212 8212 64
Width: 1024
VWidth: 2047
Flags: W
LayerCount: 2
Fore
SplineSet
0 358 m 1,0,-1
 1024 358 l 1,1,-1
 1024 256 l 1,2,-1
 0 256 l 1,3,-1
 0 358 l 1,0,-1
EndSplineSet
Validated: 1
EndChar

StartChar: sterling
Encoding: 163 163 65
Width: 1024
VWidth: 2047
Flags: W
LayerCount: 2
Fore
SplineSet
487 1434 m 1,0,1
 492 1393 492 1393 501 1359 c 128,-1,2
 510 1325 510 1325 520 1296 c 0,3,4
 535 1245 535 1245 565 1202 c 2,5,-1
 600 1159 l 1,6,-1
 649 1100 l 1,7,-1
 739 995 l 1,8,9
 842 862 842 862 842 717 c 0,10,11
 842 682 842 682 835.5 640 c 128,-1,12
 829 598 829 598 811 553 c 0,13,14
 797 518 797 518 787.5 494.5 c 128,-1,15
 778 471 778 471 762 442 c 1,16,-1
 731 440 l 1,17,-1
 766 530 l 2,18,19
 772 549 772 549 778 567.5 c 128,-1,20
 784 586 784 586 788 608 c 2,21,-1
 795 664 l 1,22,-1
 797 688 l 1,23,-1
 797 729 l 1,24,-1
 788 762 l 1,25,-1
 772 811 l 2,26,27
 752 874 752 874 702 926 c 1,28,29
 657 983 657 983 604 1010 c 0,30,31
 575 1026 575 1026 543.5 1036.5 c 128,-1,32
 512 1047 512 1047 487 1047 c 1,33,-1
 487 233 l 2,34,35
 487 170 487 170 442 113 c 1,36,37
 416 68 416 68 340 33 c 0,38,39
 276 0 276 0 207 0 c 0,40,41
 143 0 143 0 104 33 c 1,42,43
 61 63 61 63 61 125 c 0,44,45
 61 156 61 156 70.5 185.5 c 128,-1,46
 80 215 80 215 102 242 c 0,47,48
 123 266 123 266 148.5 288.5 c 128,-1,49
 174 311 174 311 209 328 c 0,50,51
 276 358 276 358 332 358 c 0,52,53
 420 358 420 358 453 326 c 1,54,-1
 453 1059 l 1,55,-1
 453 1434 l 1,56,-1
 487 1434 l 1,0,1
735 238 m 0,57,58
 735 207 735 207 712.5 184.5 c 128,-1,59
 690 162 690 162 659 162 c 0,60,61
 629 162 629 162 606.5 184.5 c 128,-1,62
 584 207 584 207 584 238 c 0,63,64
 584 268 584 268 606.5 289.5 c 128,-1,65
 629 311 629 311 659 311 c 0,66,67
 690 311 690 311 712.5 289.5 c 128,-1,68
 735 268 735 268 735 238 c 0,57,58
631 1450 m 1,69,70
 631 1520 631 1520 588 1579 c 0,71,72
 565 1610 565 1610 536.5 1632.5 c 128,-1,73
 508 1655 508 1655 471 1669 c 1,74,75
 455 1683 455 1683 437.5 1689.5 c 128,-1,76
 420 1696 420 1696 406 1700 c 0,77,78
 369 1706 369 1706 332 1706 c 0,79,80
 254 1706 254 1706 179 1664 c 128,-1,81
 104 1622 104 1622 59 1550 c 0,82,83
 55 1540 55 1540 50 1529 c 128,-1,84
 45 1518 45 1518 41 1503 c 0,85,86
 39 1497 39 1497 37 1491 c 128,-1,87
 35 1485 35 1485 35 1479 c 0,88,89
 33 1477 33 1477 33 1450 c 1,90,-1
 0 1450 l 1,91,92
 6 1524 6 1524 31 1585 c 0,93,94
 45 1618 45 1618 62.5 1646.5 c 128,-1,95
 80 1675 80 1675 100 1702 c 0,96,97
 147 1755 147 1755 207 1782 c 0,98,99
 236 1796 236 1796 267.5 1804 c 128,-1,100
 299 1812 299 1812 332 1812 c 0,101,102
 369 1812 369 1812 402.5 1804 c 128,-1,103
 436 1796 436 1796 465 1782 c 0,104,105
 530 1753 530 1753 567 1704 c 0,106,107
 651 1595 651 1595 668 1450 c 1,108,-1
 631 1450 l 1,69,70
389 1503 m 0,109,110
 389 1481 389 1481 373 1464 c 0,111,112
 358 1450 358 1450 332 1450 c 0,113,114
 311 1450 311 1450 291 1464 c 0,115,116
 276 1477 276 1477 276 1503 c 0,117,118
 276 1524 276 1524 291 1538 c 0,119,120
 291 1542 291 1542 303 1546 c 0,121,122
 313 1546 313 1546 320.5 1548 c 128,-1,123
 328 1550 328 1550 332 1550 c 0,124,125
 356 1550 356 1550 373 1538 c 1,126,127
 389 1516 389 1516 389 1503 c 0,109,110
EndSplineSet
Validated: 1
EndChar

StartChar: currency
Encoding: 164 164 66
Width: 2048
VWidth: 2047
Flags: W
LayerCount: 2
Fore
SplineSet
1942 1485 m 1,0,-1
 1942 1622 l 1,1,-1
 1241 1622 l 1,2,-1
 1241 1651 l 1,3,-1
 1974 1651 l 1,4,-1
 1974 1485 l 1,5,-1
 1942 1485 l 1,0,-1
201 369 m 1,6,-1
 150 369 l 1,7,8
 184 504 184 504 221 633 c 128,-1,9
 258 762 258 762 295 897 c 1,10,11
 268 872 268 872 237.5 849.5 c 128,-1,12
 207 827 207 827 174 816 c 128,-1,13
 141 805 141 805 106.5 808 c 128,-1,14
 72 811 72 811 39 840 c 0,15,16
 4 872 4 872 4 911.5 c 128,-1,17
 4 951 4 951 14.5 978.5 c 128,-1,18
 25 1006 25 1006 53.5 1024 c 128,-1,19
 82 1042 82 1042 123 1028 c 0,20,21
 158 1018 158 1018 175.5 988 c 128,-1,22
 193 958 193 958 193 924 c 1,23,24
 188 907 188 907 179 889.5 c 128,-1,25
 170 872 170 872 188 868 c 0,26,27
 213 862 213 862 240.5 880.5 c 128,-1,28
 268 899 268 899 292.5 924.5 c 128,-1,29
 317 950 317 950 350 993 c 1,30,-1
 377 993 l 1,31,32
 377 989 377 989 364.5 948 c 128,-1,33
 352 907 352 907 330.5 833.5 c 128,-1,34
 309 760 309 760 286.5 679 c 128,-1,35
 264 598 264 598 240.5 514 c 128,-1,36
 217 430 217 430 201 369 c 1,6,-1
899 336 m 1,37,-1
 848 336 l 1,38,39
 883 471 883 471 920.5 600 c 128,-1,40
 958 729 958 729 993 864 c 1,41,42
 967 840 967 840 936 817.5 c 128,-1,43
 905 795 905 795 872.5 783.5 c 128,-1,44
 840 772 840 772 805 775 c 128,-1,45
 770 778 770 778 737 807 c 0,46,47
 709 831 709 831 703.5 869 c 128,-1,48
 698 907 698 907 711.5 940 c 128,-1,49
 725 973 725 973 753.5 991.5 c 128,-1,50
 782 1010 782 1010 823 995 c 0,51,52
 858 985 858 985 875.5 955.5 c 128,-1,53
 893 926 893 926 893 891 c 0,54,55
 891 883 891 883 886 873.5 c 128,-1,56
 881 864 881 864 879 857 c 128,-1,57
 877 850 877 850 879 844 c 128,-1,58
 881 838 881 838 891 836 c 0,59,60
 913 829 913 829 941 847.5 c 128,-1,61
 969 866 969 866 993.5 892 c 128,-1,62
 1018 918 1018 918 1051 961 c 1,63,-1
 1077 961 l 1,64,65
 1038 825 1038 825 1010.5 727 c 128,-1,66
 983 629 983 629 952.5 521.5 c 128,-1,67
 922 414 922 414 899 336 c 1,37,-1
1585 1434 m 1,68,69
 1589 1395 1589 1395 1595.5 1361 c 128,-1,70
 1602 1327 1602 1327 1614 1300 c 0,71,72
 1624 1272 1624 1272 1635.5 1249.5 c 128,-1,73
 1647 1227 1647 1227 1661 1204 c 2,74,-1
 1696 1157 l 1,75,-1
 1747 1102 l 1,76,-1
 1833 995 l 2,77,78
 1939 864 1939 864 1939 717 c 0,79,80
 1939 682 1939 682 1932 640 c 128,-1,81
 1925 598 1925 598 1909 553 c 0,82,83
 1874 471 1874 471 1855 442 c 1,84,-1
 1825 440 l 1,85,-1
 1862 530 l 2,86,87
 1868 549 1868 549 1873 567.5 c 128,-1,88
 1878 586 1878 586 1884 608 c 2,89,-1
 1894 690 l 1,90,-1
 1894 729 l 1,91,92
 1874 795 1874 795 1868 811 c 0,93,94
 1845 881 1845 881 1798 924 c 1,95,96
 1751 983 1751 983 1698 1010 c 0,97,98
 1671 1028 1671 1028 1640.5 1038.5 c 128,-1,99
 1610 1049 1610 1049 1585 1049 c 1,100,-1
 1585 236 l 2,101,102
 1585 170 1585 170 1540 113 c 0,103,104
 1507 68 1507 68 1436 31 c 0,105,106
 1401 16 1401 16 1368 8 c 128,-1,107
 1335 0 1335 0 1300 0 c 0,108,109
 1243 0 1243 0 1198 31 c 1,110,111
 1180 49 1180 49 1168.5 71.5 c 128,-1,112
 1157 94 1157 94 1157 125 c 0,113,114
 1157 188 1157 188 1198 242 c 0,115,116
 1217 268 1217 268 1243.5 288.5 c 128,-1,117
 1270 309 1270 309 1303 326 c 0,118,119
 1339 342 1339 342 1369 349 c 128,-1,120
 1399 356 1399 356 1427 356 c 0,121,122
 1513 356 1513 356 1548 326 c 1,123,-1
 1548 1059 l 1,124,-1
 1548 1434 l 1,125,-1
 1585 1434 l 1,68,69
70 1485 m 1,126,-1
 70 1651 l 1,127,-1
 795 1651 l 1,128,-1
 795 1622 l 1,129,-1
 102 1622 l 1,130,-1
 102 1485 l 1,131,-1
 70 1485 l 1,126,-1
969 1606 m 1,132,-1
 969 1620 l 1,133,134
 991 1624 991 1624 1002.5 1628 c 128,-1,135
 1014 1632 1014 1632 1024 1642 c 0,136,137
 1032 1653 1032 1653 1041.5 1667 c 128,-1,138
 1051 1681 1051 1681 1051 1694 c 0,139,140
 1051 1735 1051 1735 999 1735 c 0,141,142
 979 1735 979 1735 965.5 1722.5 c 128,-1,143
 952 1710 952 1710 936 1686 c 1,144,-1
 922 1686 l 1,145,146
 930 1708 930 1708 935 1717 c 128,-1,147
 940 1726 940 1726 950 1735 c 0,148,149
 979 1757 979 1757 1008 1757 c 0,150,151
 1038 1757 1038 1757 1059.5 1740.5 c 128,-1,152
 1081 1724 1081 1724 1081 1696 c 0,153,154
 1081 1677 1081 1677 1072 1659.5 c 128,-1,155
 1063 1642 1063 1642 1040 1626 c 1,156,157
 1057 1620 1057 1620 1060 1617 c 128,-1,158
 1063 1614 1063 1614 1071 1608 c 0,159,160
 1079 1595 1079 1595 1084.5 1586 c 128,-1,161
 1090 1577 1090 1577 1090 1559 c 0,162,163
 1090 1507 1090 1507 1055 1485 c 0,164,165
 1020 1460 1020 1460 971 1460 c 256,166,167
 922 1460 922 1460 922 1483 c 0,168,169
 922 1493 922 1493 938 1493 c 0,170,171
 944 1493 944 1493 949 1492 c 128,-1,172
 954 1491 954 1491 965 1487 c 0,173,174
 985 1475 985 1475 1006 1481 c 0,175,176
 1028 1489 1028 1489 1040.5 1498 c 128,-1,177
 1053 1507 1053 1507 1057 1536 c 0,178,179
 1059 1559 1059 1559 1046.5 1577 c 128,-1,180
 1034 1595 1034 1595 1014 1604 c 0,181,182
 1012 1606 1012 1606 995 1606 c 2,183,-1
 969 1606 l 1,132,-1
EndSplineSet
Validated: 33
EndChar

StartChar: yen
Encoding: 165 165 67
Width: 1024
VWidth: 2047
Flags: W
LayerCount: 2
Fore
SplineSet
453 -199 m 2,0,1
 367 -199 367 -199 288 -170 c 128,-1,2
 209 -141 209 -141 123 -80 c 0,3,4
 119 -80 119 -80 95.5 -43 c 128,-1,5
 72 -6 72 -6 48.5 36 c 128,-1,6
 25 78 25 78 14 100 c 128,-1,7
 3 122 3 122 3 128 c 0,8,9
 3 130 3 130 5 130 c 0,10,11
 6 130 6 130 10 127 c 0,12,13
 31 113 31 113 51.5 90.5 c 128,-1,14
 72 68 72 68 89 46.5 c 128,-1,15
 106 25 106 25 118.5 7.5 c 128,-1,16
 131 -10 131 -10 137 -16 c 0,17,18
 219 -82 219 -82 307 -105.5 c 128,-1,19
 395 -129 395 -129 481 -129 c 256,20,21
 567 -129 567 -129 647 -103.5 c 128,-1,22
 727 -78 727 -78 807 -20 c 0,23,24
 813 -16 813 -16 826.5 2 c 128,-1,25
 840 20 840 20 858.5 44 c 128,-1,26
 877 68 877 68 897.5 91.5 c 128,-1,27
 918 115 918 115 936 127 c 0,28,29
 940 129 940 129 942 129 c 0,30,31
 946 129 946 129 946 125 c 0,32,33
 946 118 946 118 935 96 c 128,-1,34
 924 74 924 74 898 33 c 128,-1,35
 872 -8 872 -8 848.5 -44 c 128,-1,36
 825 -80 825 -80 784 -110.5 c 128,-1,37
 743 -141 743 -141 666.5 -170 c 128,-1,38
 590 -199 590 -199 504 -199 c 2,39,-1
 453 -199 l 2,0,1
EndSplineSet
Validated: 1
EndChar

StartChar: brokenbar
Encoding: 166 166 68
Width: 512
VWidth: 2047
Flags: W
LayerCount: 2
Fore
SplineSet
102 504 m 1,0,-1
 102 31 l 1,1,-1
 102 0 l 1,2,-1
 0 0 l 1,3,-1
 0 473 l 1,4,-1
 0 504 l 1,5,-1
 102 504 l 1,0,-1
102 1434 m 1,6,-1
 102 961 l 1,7,-1
 102 930 l 1,8,-1
 0 930 l 1,9,-1
 0 1403 l 1,10,-1
 0 1434 l 1,11,-1
 102 1434 l 1,6,-1
EndSplineSet
Validated: 1
EndChar

StartChar: section
Encoding: 167 167 69
Width: 3072
VWidth: 2047
Flags: W
LayerCount: 2
Fore
SplineSet
2793 231 m 2,0,1
 2793 170 2793 170 2753 117 c 0,2,3
 2710 61 2710 61 2642 30.5 c 128,-1,4
 2574 0 2574 0 2515 0 c 0,5,6
 2460 0 2460 0 2415 31 c 1,7,8
 2367 72 2367 72 2367 119 c 0,9,10
 2367 180 2367 180 2415 233 c 1,11,12
 2451 287 2451 287 2521 326 c 1,13,14
 2562 342 2562 342 2591.5 349 c 128,-1,15
 2621 356 2621 356 2652 356 c 0,16,17
 2707 356 2707 356 2759 324 c 1,18,-1
 2759 1290 l 1,19,-1
 1616 1290 l 1,20,-1
 1616 231 l 2,21,22
 1616 203 1616 203 1604.5 174 c 128,-1,23
 1593 145 1593 145 1573 117 c 0,24,25
 1532 61 1532 61 1464.5 30.5 c 128,-1,26
 1397 0 1397 0 1331 0 c 0,27,28
 1276 0 1276 0 1231 31 c 1,29,30
 1188 68 1188 68 1188 119 c 0,31,32
 1188 180 1188 180 1231 233 c 0,33,34
 1253 260 1253 260 1282 282.5 c 128,-1,35
 1311 305 1311 305 1343 326 c 1,36,37
 1378 342 1378 342 1410 349 c 128,-1,38
 1442 356 1442 356 1470 356 c 0,39,40
 1501 356 1501 356 1526.5 348 c 128,-1,41
 1552 340 1552 340 1581 324 c 1,42,-1
 1581 1290 l 1,43,-1
 424 1290 l 1,44,-1
 424 231 l 2,45,46
 424 168 424 168 385 117 c 0,47,48
 342 61 342 61 274.5 30.5 c 128,-1,49
 207 0 207 0 145 0 c 0,50,51
 115 0 115 0 91.5 8 c 128,-1,52
 68 16 68 16 45 31 c 0,53,54
 0 70 0 70 0 119 c 0,55,56
 0 182 0 182 45 233 c 0,57,58
 66 260 66 260 93.5 283.5 c 128,-1,59
 121 307 121 307 158 326 c 0,60,61
 193 342 193 342 223.5 349 c 128,-1,62
 254 356 254 356 283 356 c 0,63,64
 344 356 344 356 389 324 c 1,65,-1
 389 1430 l 1,66,-1
 2793 1430 l 1,67,-1
 2793 231 l 2,0,1
EndSplineSet
Validated: 1
EndChar

StartChar: ordfeminine
Encoding: 170 170 70
Width: 1024
VWidth: 2047
Flags: W
LayerCount: 2
Fore
SplineSet
772 412 m 1,0,-1
 901 412 l 1,1,-1
 901 0 l 1,2,-1
 772 0 l 1,3,-1
 772 189 l 1,4,5
 765 130 765 130 719 94 c 0,6,7
 692 72 692 72 661.5 56.5 c 128,-1,8
 631 41 631 41 594 31 c 0,9,10
 557 18 557 18 522 14 c 128,-1,11
 487 10 487 10 455 10 c 2,12,-1
 424 10 l 2,13,14
 395 10 395 10 393 12 c 0,15,16
 379 12 379 12 359.5 16 c 128,-1,17
 340 20 340 20 315 25 c 0,18,19
 244 43 244 43 188 92 c 0,20,21
 140 129 140 129 133 189 c 1,22,-1
 133 0 l 1,23,-1
 0 0 l 1,24,-1
 0 412 l 1,25,-1
 133 412 l 1,26,-1
 133 223 l 1,27,28
 139 277 139 277 182 315 c 0,29,30
 209 336 209 336 240.5 352.5 c 128,-1,31
 272 369 272 369 311 379 c 0,32,33
 412 401 412 401 446 401 c 0,34,35
 524 401 524 401 586 381 c 0,36,37
 621 373 621 373 654.5 358.5 c 128,-1,38
 688 344 688 344 717 322 c 0,39,40
 765 280 765 280 772 223 c 1,41,-1
 772 412 l 1,0,-1
326 215 m 2,42,43
 326 201 326 201 328 190.5 c 128,-1,44
 330 180 330 180 340 158 c 0,45,46
 348 141 348 141 356.5 128 c 128,-1,47
 365 115 365 115 377 98 c 0,48,49
 426 39 426 39 487 39 c 1,50,51
 537 47 537 47 553 74 c 0,52,53
 559 80 559 80 569 109 c 0,54,55
 575 127 575 127 575 172 c 0,56,57
 575 252 575 252 526 313 c 1,58,59
 473 369 473 369 414 369 c 0,60,61
 367 367 367 367 344 334 c 0,62,63
 326 309 326 309 326 240 c 2,64,-1
 326 215 l 2,42,43
EndSplineSet
Validated: 1
EndChar

StartChar: guillemotleft
Encoding: 171 171 71
Width: 2048
VWidth: 2047
Flags: W
LayerCount: 2
Fore
SplineSet
1935 1622 m 1,0,-1
 1223 1622 l 1,1,-1
 1223 1653 l 1,2,-1
 1968 1653 l 1,3,-1
 1968 1479 l 1,4,-1
 1935 1479 l 1,5,-1
 1935 1622 l 1,0,-1
109 1479 m 1,6,-1
 76 1479 l 1,7,-1
 76 1653 l 1,8,-1
 874 1653 l 1,9,-1
 874 1622 l 1,10,-1
 109 1622 l 1,11,-1
 109 1479 l 1,6,-1
1028 1636 m 1,12,13
 1051 1640 1051 1640 1062 1644.5 c 128,-1,14
 1073 1649 1073 1649 1083 1659 c 0,15,16
 1092 1669 1092 1669 1101 1683.5 c 128,-1,17
 1110 1698 1110 1698 1110 1710 c 0,18,19
 1110 1751 1110 1751 1059 1751 c 0,20,21
 1038 1751 1038 1751 1025 1738.5 c 128,-1,22
 1012 1726 1012 1726 995 1702 c 1,23,-1
 981 1702 l 1,24,25
 989 1724 989 1724 994 1733.5 c 128,-1,26
 999 1743 999 1743 1010 1751 c 0,27,28
 1038 1774 1038 1774 1067 1774 c 0,29,30
 1098 1774 1098 1774 1119.5 1757.5 c 128,-1,31
 1141 1741 1141 1741 1141 1712 c 0,32,33
 1141 1694 1141 1694 1131.5 1676.5 c 128,-1,34
 1122 1659 1122 1659 1100 1642 c 1,35,36
 1116 1636 1116 1636 1119 1633 c 128,-1,37
 1122 1630 1122 1630 1130 1624 c 0,38,39
 1139 1612 1139 1612 1144 1602.5 c 128,-1,40
 1149 1593 1149 1593 1149 1575 c 0,41,42
 1149 1524 1149 1524 1114 1501 c 0,43,44
 1079 1477 1079 1477 1030 1477 c 256,45,46
 981 1477 981 1477 981 1499 c 0,47,48
 981 1509 981 1509 997 1509 c 0,49,50
 1004 1509 1004 1509 1009 1508 c 128,-1,51
 1014 1507 1014 1507 1024 1503 c 0,52,53
 1044 1491 1044 1491 1065 1497 c 0,54,55
 1087 1505 1087 1505 1099.5 1514.5 c 128,-1,56
 1112 1524 1112 1524 1116 1552 c 0,57,58
 1118 1575 1118 1575 1106 1593.5 c 128,-1,59
 1094 1612 1094 1612 1073 1620 c 0,60,61
 1071 1622 1071 1622 1055 1622 c 2,62,-1
 1028 1622 l 1,63,-1
 1028 1636 l 1,12,13
1245 1427 m 1,64,-1
 1245 231 l 2,65,66
 1245 170 1245 170 1204 117 c 0,67,68
 1163 61 1163 61 1095.5 30.5 c 128,-1,69
 1028 0 1028 0 965 0 c 0,70,71
 911 0 911 0 864 35 c 0,72,73
 821 68 821 68 821 119 c 0,74,75
 821 178 821 178 864 233 c 0,76,77
 901 283 901 283 975 324 c 0,78,79
 1012 342 1012 342 1043.5 349 c 128,-1,80
 1075 356 1075 356 1102 356 c 0,81,82
 1157 356 1157 356 1210 322 c 1,83,-1
 1210 1427 l 1,84,-1
 1245 1427 l 1,64,-1
150 369 m 1,85,86
 184 504 184 504 221 633 c 128,-1,87
 258 762 258 762 295 897 c 1,88,89
 268 872 268 872 237.5 849.5 c 128,-1,90
 207 827 207 827 174 816 c 128,-1,91
 141 805 141 805 106.5 808 c 128,-1,92
 72 811 72 811 39 840 c 0,93,94
 3 868 3 868 3 906 c 128,-1,95
 3 944 3 944 14 975 c 128,-1,96
 25 1006 25 1006 53.5 1024 c 128,-1,97
 82 1042 82 1042 123 1028 c 0,98,99
 158 1018 158 1018 175.5 988 c 128,-1,100
 193 958 193 958 193 924 c 1,101,102
 188 907 188 907 179 889.5 c 128,-1,103
 170 872 170 872 188 868 c 0,104,105
 213 862 213 862 240.5 880.5 c 128,-1,106
 268 899 268 899 292.5 924.5 c 128,-1,107
 317 950 317 950 350 993 c 1,108,-1
 377 993 l 1,109,110
 377 989 377 989 364.5 948 c 128,-1,111
 352 907 352 907 330.5 833.5 c 128,-1,112
 309 760 309 760 286.5 679 c 128,-1,113
 264 598 264 598 240.5 514 c 128,-1,114
 217 430 217 430 201 369 c 1,115,-1
 150 369 l 1,85,86
EndSplineSet
Validated: 33
EndChar

StartChar: logicalnot
Encoding: 172 172 72
Width: 1024
VWidth: 2047
Flags: W
LayerCount: 2
Fore
SplineSet
1935 1622 m 1,0,-1
 1223 1622 l 1,1,-1
 1223 1653 l 1,2,-1
 1968 1653 l 1,3,-1
 1968 1479 l 1,4,-1
 1935 1479 l 1,5,-1
 1935 1622 l 1,0,-1
109 1479 m 1,6,-1
 76 1479 l 1,7,-1
 76 1653 l 1,8,-1
 874 1653 l 1,9,-1
 874 1622 l 1,10,-1
 109 1622 l 1,11,-1
 109 1479 l 1,6,-1
1028 1636 m 1,12,13
 1051 1640 1051 1640 1062 1644.5 c 128,-1,14
 1073 1649 1073 1649 1083 1659 c 0,15,16
 1092 1669 1092 1669 1101 1683.5 c 128,-1,17
 1110 1698 1110 1698 1110 1710 c 0,18,19
 1110 1751 1110 1751 1059 1751 c 0,20,21
 1038 1751 1038 1751 1025 1738.5 c 128,-1,22
 1012 1726 1012 1726 995 1702 c 1,23,-1
 981 1702 l 1,24,25
 989 1724 989 1724 994 1733.5 c 128,-1,26
 999 1743 999 1743 1010 1751 c 0,27,28
 1038 1774 1038 1774 1067 1774 c 0,29,30
 1098 1774 1098 1774 1119.5 1757.5 c 128,-1,31
 1141 1741 1141 1741 1141 1712 c 0,32,33
 1141 1694 1141 1694 1131.5 1676.5 c 128,-1,34
 1122 1659 1122 1659 1100 1642 c 1,35,36
 1116 1636 1116 1636 1119 1633 c 128,-1,37
 1122 1630 1122 1630 1130 1624 c 0,38,39
 1139 1612 1139 1612 1144 1602.5 c 128,-1,40
 1149 1593 1149 1593 1149 1575 c 0,41,42
 1149 1524 1149 1524 1114 1501 c 0,43,44
 1079 1477 1079 1477 1030 1477 c 256,45,46
 981 1477 981 1477 981 1499 c 0,47,48
 981 1509 981 1509 997 1509 c 0,49,50
 1004 1509 1004 1509 1009 1508 c 128,-1,51
 1014 1507 1014 1507 1024 1503 c 0,52,53
 1044 1491 1044 1491 1065 1497 c 0,54,55
 1087 1505 1087 1505 1099.5 1514.5 c 128,-1,56
 1112 1524 1112 1524 1116 1552 c 0,57,58
 1118 1575 1118 1575 1106 1593.5 c 128,-1,59
 1094 1612 1094 1612 1073 1620 c 0,60,61
 1071 1622 1071 1622 1055 1622 c 2,62,-1
 1028 1622 l 1,63,-1
 1028 1636 l 1,12,13
424 1427 m 1,64,-1
 424 231 l 2,65,66
 424 170 424 170 383 117 c 0,67,68
 342 61 342 61 274.5 30.5 c 128,-1,69
 207 0 207 0 143 0 c 0,70,71
 90 0 90 0 43 35 c 0,72,73
 0 68 0 68 0 119 c 0,74,75
 0 178 0 178 43 233 c 0,76,77
 80 283 80 283 154 324 c 0,78,79
 190 342 190 342 222 349 c 128,-1,80
 254 356 254 356 281 356 c 0,81,82
 336 356 336 356 389 322 c 1,83,-1
 389 1427 l 1,84,-1
 424 1427 l 1,64,-1
1610 369 m 1,85,86
 1645 504 1645 504 1681.5 633 c 128,-1,87
 1718 762 1718 762 1755 897 c 1,88,89
 1729 872 1729 872 1698 849.5 c 128,-1,90
 1667 827 1667 827 1634.5 816 c 128,-1,91
 1602 805 1602 805 1567 808 c 128,-1,92
 1532 811 1532 811 1499 840 c 0,93,94
 1470 864 1470 864 1465 902 c 128,-1,95
 1460 940 1460 940 1472.5 973 c 128,-1,96
 1485 1006 1485 1006 1513.5 1024 c 128,-1,97
 1542 1042 1542 1042 1583 1028 c 0,98,99
 1618 1018 1618 1018 1635.5 988 c 128,-1,100
 1653 958 1653 958 1653 924 c 1,101,102
 1649 907 1649 907 1639.5 889.5 c 128,-1,103
 1630 872 1630 872 1649 868 c 0,104,105
 1673 862 1673 862 1701 880.5 c 128,-1,106
 1729 899 1729 899 1753.5 924.5 c 128,-1,107
 1778 950 1778 950 1810 993 c 1,108,-1
 1837 993 l 1,109,110
 1837 989 1837 989 1824.5 948 c 128,-1,111
 1812 907 1812 907 1790.5 833.5 c 128,-1,112
 1769 760 1769 760 1746.5 679 c 128,-1,113
 1724 598 1724 598 1700.5 514 c 128,-1,114
 1677 430 1677 430 1661 369 c 1,115,-1
 1610 369 l 1,85,86
EndSplineSet
Validated: 33
EndChar

StartChar: uni00AD
Encoding: 173 173 73
Width: 512
VWidth: 2047
Flags: W
LayerCount: 2
Fore
SplineSet
0 358 m 1,0,-1
 260 358 l 1,1,-1
 260 256 l 1,2,-1
 0 256 l 1,3,-1
 0 358 l 1,0,-1
EndSplineSet
Validated: 1
EndChar

StartChar: degree
Encoding: 176 176 74
Width: 512
VWidth: 2047
Flags: W
LayerCount: 2
Fore
SplineSet
162 618 m 0,0,1
 229 618 229 618 275.5 572 c 128,-1,2
 322 526 322 526 322 459 c 0,3,4
 322 389 322 389 275.5 343 c 128,-1,5
 229 297 229 297 162 297 c 0,6,7
 92 297 92 297 46 343 c 128,-1,8
 0 389 0 389 0 459 c 0,9,10
 0 526 0 526 46 572 c 128,-1,11
 92 618 92 618 162 618 c 0,0,1
162 575 m 256,12,13
 115 575 115 575 80 542.5 c 128,-1,14
 45 510 45 510 45 459 c 256,15,16
 45 408 45 408 79 372 c 128,-1,17
 113 336 113 336 162 336 c 0,18,19
 209 336 209 336 244 372 c 128,-1,20
 279 408 279 408 279 459 c 256,21,22
 279 510 279 510 244 542.5 c 128,-1,23
 209 575 209 575 162 575 c 256,12,13
EndSplineSet
Validated: 1
EndChar

StartChar: plusminus
Encoding: 177 177 75
Width: 1024
VWidth: 2047
Flags: W
LayerCount: 2
Fore
SplineSet
106 1432 m 1,0,-1
 106 -2 l 1,1,-1
 0 0 l 1,2,-1
 0 1434 l 1,3,-1
 106 1432 l 1,0,-1
465 1434 m 1,4,-1
 465 0 l 1,5,-1
 358 2 l 1,6,-1
 358 1436 l 1,7,-1
 465 1434 l 1,4,-1
EndSplineSet
Validated: 1
EndChar

StartChar: threesuperior
Encoding: 179 179 76
Width: 1536
VWidth: 2047
Flags: W
LayerCount: 2
Fore
SplineSet
1366 1040 m 1,0,-1
 911 1040 l 1,1,-1
 911 231 l 2,2,3
 911 170 911 170 870 117 c 0,4,5
 827 61 827 61 759.5 30.5 c 128,-1,6
 692 0 692 0 629 0 c 0,7,8
 573 0 573 0 528 33 c 128,-1,9
 483 66 483 66 483 121 c 0,10,11
 483 178 483 178 528 236 c 0,12,13
 567 287 567 287 639 328 c 1,14,15
 676 344 676 344 707 351 c 0,16,17
 738 358 738 358 768 358 c 0,18,19
 823 358 823 358 877 324 c 1,20,-1
 877 1040 l 1,21,-1
 426 1040 l 1,22,-1
 426 231 l 2,23,24
 426 174 426 174 387 117 c 0,25,26
 344 61 344 61 276.5 30.5 c 128,-1,27
 209 0 209 0 145 0 c 0,28,29
 88 0 88 0 43 33 c 0,30,31
 0 66 0 66 0 121 c 0,32,33
 0 180 0 180 43 236 c 0,34,35
 63 258 63 258 92 281.5 c 128,-1,36
 121 305 121 305 156 328 c 1,37,38
 193 344 193 344 223.5 351 c 128,-1,39
 254 358 254 358 283 358 c 0,40,41
 344 358 344 358 391 324 c 1,42,-1
 391 1434 l 1,43,-1
 1401 1434 l 1,44,-1
 1401 231 l 2,45,46
 1401 176 1401 176 1360 117 c 0,47,48
 1317 61 1317 61 1249.5 30.5 c 128,-1,49
 1182 0 1182 0 1118 0 c 0,50,51
 1063 0 1063 0 1018 33 c 128,-1,52
 973 66 973 66 973 121 c 0,53,54
 973 184 973 184 1018 236 c 0,55,56
 1057 287 1057 287 1128 328 c 1,57,58
 1165 344 1165 344 1197 351 c 128,-1,59
 1229 358 1229 358 1257 358 c 0,60,61
 1313 358 1313 358 1366 324 c 1,62,-1
 1366 1040 l 1,0,-1
1366 1174 m 1,63,-1
 1366 1294 l 1,64,-1
 911 1294 l 1,65,-1
 911 1174 l 1,66,-1
 1366 1174 l 1,63,-1
877 1174 m 1,67,-1
 877 1294 l 1,68,-1
 426 1294 l 1,69,-1
 426 1174 l 1,70,-1
 877 1174 l 1,67,-1
EndSplineSet
Validated: 1
EndChar

StartChar: mu
Encoding: 181 181 77
Width: 2048
VWidth: 2047
Flags: W
LayerCount: 2
Fore
SplineSet
43 1489 m 1,0,-1
 43 1651 l 1,1,-1
 838 1651 l 1,2,-1
 838 1622 l 1,3,-1
 74 1622 l 1,4,-1
 74 1489 l 1,5,-1
 43 1489 l 1,0,-1
1942 1481 m 1,6,-1
 1942 1614 l 1,7,-1
 1223 1614 l 1,8,-1
 1223 1642 l 1,9,-1
 1972 1642 l 1,10,-1
 1972 1481 l 1,11,-1
 1942 1481 l 1,6,-1
1872 231 m 2,12,13
 1872 199 1872 199 1862.5 172 c 128,-1,14
 1853 145 1853 145 1831 119 c 0,15,16
 1790 61 1790 61 1723.5 30.5 c 128,-1,17
 1657 0 1657 0 1591 0 c 0,18,19
 1534 0 1534 0 1491 37 c 1,20,21
 1448 63 1448 63 1448 121 c 0,22,23
 1448 178 1448 178 1491 233 c 0,24,25
 1530 285 1530 285 1604 326 c 0,26,27
 1638 344 1638 344 1670 351 c 128,-1,28
 1702 358 1702 358 1731 358 c 0,29,30
 1790 358 1790 358 1837 322 c 1,31,-1
 1837 1430 l 1,32,-1
 1872 1430 l 1,33,-1
 1872 231 l 2,12,13
367 977 m 1,34,35
 285 883 285 883 252 819.5 c 128,-1,36
 219 756 219 756 219 705 c 0,37,38
 219 659 219 659 254 594 c 1,39,-1
 299 526 l 2,40,41
 303 514 303 514 322 498 c 1,42,43
 332 483 332 483 341 470 c 128,-1,44
 350 457 350 457 360 446 c 1,45,-1
 338 418 l 1,46,47
 328 422 328 422 312.5 429 c 128,-1,48
 297 436 297 436 279 446 c 0,49,50
 254 455 254 455 221 455 c 0,51,52
 180 455 180 455 164 432 c 0,53,54
 156 418 156 418 149.5 402.5 c 128,-1,55
 143 387 143 387 141 365 c 0,56,57
 141 336 141 336 158 283 c 0,58,59
 168 262 168 262 180.5 240.5 c 128,-1,60
 193 219 193 219 213 203 c 1,61,-1
 195 174 l 1,62,63
 102 238 102 238 59 297 c 1,64,65
 43 311 43 311 35 328.5 c 128,-1,66
 27 346 27 346 18 362 c 0,67,68
 0 393 0 393 0 428 c 0,69,70
 0 457 0 457 11.5 479.5 c 128,-1,71
 23 502 23 502 39 518 c 0,72,73
 78 551 78 551 131 551 c 0,74,75
 156 551 156 551 184.5 543 c 128,-1,76
 213 535 213 535 244 516 c 1,77,-1
 27 813 l 1,78,79
 96 879 96 879 133 937 c 128,-1,80
 170 995 170 995 170 1049 c 0,81,82
 170 1092 170 1092 145.5 1143 c 128,-1,83
 121 1194 121 1194 78 1253 c 1,84,-1
 135 1253 l 1,85,-1
 367 977 l 1,34,35
1212 977 m 1,86,87
 1133 885 1133 885 1098 819.5 c 128,-1,88
 1063 754 1063 754 1063 705 c 0,89,90
 1063 682 1063 682 1073 654.5 c 128,-1,91
 1083 627 1083 627 1100 594 c 1,92,-1
 1145 526 l 2,93,94
 1149 518 1149 518 1169 498 c 1,95,96
 1178 483 1178 483 1186 471 c 128,-1,97
 1194 459 1194 459 1206 446 c 1,98,-1
 1182 418 l 1,99,100
 1171 422 1171 422 1156 429 c 128,-1,101
 1141 436 1141 436 1124 446 c 0,102,103
 1100 455 1100 455 1067 455 c 0,104,105
 1026 455 1026 455 1010 432 c 0,106,107
 1001 418 1001 418 995 402.5 c 128,-1,108
 989 387 989 387 985 365 c 1,109,110
 985 326 985 326 1004 283 c 0,111,112
 1012 262 1012 262 1025 240.5 c 128,-1,113
 1038 219 1038 219 1059 203 c 1,114,-1
 1040 174 l 1,115,116
 1001 203 1001 203 966.5 232.5 c 128,-1,117
 932 262 932 262 903 297 c 0,118,119
 889 311 889 311 879.5 328.5 c 128,-1,120
 870 346 870 346 862 362 c 0,121,122
 848 389 848 389 848 428 c 0,123,124
 848 489 848 489 883 518 c 0,125,126
 922 551 922 551 975 551 c 0,127,128
 1030 551 1030 551 1090 516 c 1,129,-1
 872 813 l 1,130,131
 1014 944 1014 944 1014 1049 c 0,132,133
 1014 1133 1014 1133 924 1253 c 1,134,-1
 983 1253 l 1,135,-1
 1212 977 l 1,86,87
997 1606 m 1,136,-1
 997 1620 l 1,137,138
 1020 1624 1020 1624 1031 1628 c 128,-1,139
 1042 1632 1042 1632 1053 1642 c 0,140,141
 1061 1653 1061 1653 1070 1667 c 128,-1,142
 1079 1681 1079 1681 1079 1694 c 0,143,144
 1079 1735 1079 1735 1028 1735 c 0,145,146
 1008 1735 1008 1735 994.5 1722.5 c 128,-1,147
 981 1710 981 1710 965 1686 c 1,148,-1
 950 1686 l 1,149,150
 958 1708 958 1708 963.5 1717 c 128,-1,151
 969 1726 969 1726 979 1735 c 0,152,153
 1008 1757 1008 1757 1036 1757 c 0,154,155
 1067 1757 1067 1757 1088.5 1740.5 c 128,-1,156
 1110 1724 1110 1724 1110 1696 c 0,157,158
 1110 1677 1110 1677 1101 1659.5 c 128,-1,159
 1092 1642 1092 1642 1069 1626 c 1,160,161
 1085 1620 1085 1620 1088.5 1617 c 128,-1,162
 1092 1614 1092 1614 1100 1608 c 0,163,164
 1108 1595 1108 1595 1113 1586 c 128,-1,165
 1118 1577 1118 1577 1118 1559 c 0,166,167
 1118 1507 1118 1507 1083 1485 c 0,168,169
 1049 1460 1049 1460 999 1460 c 0,170,171
 950 1460 950 1460 950 1483 c 0,172,173
 950 1493 950 1493 967 1493 c 0,174,175
 973 1493 973 1493 978 1492 c 128,-1,176
 983 1491 983 1491 993 1487 c 0,177,178
 1014 1475 1014 1475 1034 1481 c 0,179,180
 1057 1489 1057 1489 1069 1498 c 128,-1,181
 1081 1507 1081 1507 1085 1536 c 0,182,183
 1087 1559 1087 1559 1075 1577 c 128,-1,184
 1063 1595 1063 1595 1042 1604 c 0,185,186
 1040 1606 1040 1606 1024 1606 c 2,187,-1
 997 1606 l 1,136,-1
EndSplineSet
Validated: 1
EndChar

StartChar: paragraph
Encoding: 182 182 78
Width: 2048
VWidth: 2047
Flags: W
LayerCount: 2
Fore
SplineSet
63 1489 m 1,0,-1
 63 1651 l 1,1,-1
 844 1651 l 1,2,-1
 844 1622 l 1,3,-1
 96 1622 l 1,4,-1
 96 1489 l 1,5,-1
 63 1489 l 1,0,-1
1942 1489 m 1,6,-1
 1942 1622 l 1,7,-1
 1223 1622 l 1,8,-1
 1223 1651 l 1,9,-1
 1974 1651 l 1,10,-1
 1974 1489 l 1,11,-1
 1942 1489 l 1,6,-1
1888 973 m 1,12,13
 1845 926 1845 926 1816.5 887 c 128,-1,14
 1788 848 1788 848 1772 819 c 0,15,16
 1737 754 1737 754 1737 705 c 0,17,18
 1737 659 1737 659 1772 594 c 1,19,-1
 1817 526 l 2,20,21
 1821 522 1821 522 1826 514 c 128,-1,22
 1831 506 1831 506 1839 496 c 0,23,24
 1849 481 1849 481 1859.5 469 c 128,-1,25
 1870 457 1870 457 1880 444 c 1,26,-1
 1858 416 l 1,27,28
 1843 422 1843 422 1829 428 c 128,-1,29
 1815 434 1815 434 1796 444 c 0,30,31
 1774 453 1774 453 1741 453 c 0,32,33
 1706 453 1706 453 1683 430 c 0,34,35
 1663 410 1663 410 1661 365 c 0,36,37
 1661 324 1661 324 1679 281 c 0,38,39
 1690 260 1690 260 1702 239.5 c 128,-1,40
 1714 219 1714 219 1733 203 c 1,41,-1
 1714 174 l 1,42,43
 1626 238 1626 238 1581 295 c 1,44,45
 1550 326 1550 326 1538 362 c 1,46,47
 1524 389 1524 389 1524 426 c 0,48,49
 1524 479 1524 479 1559 520 c 1,50,51
 1602 551 1602 551 1653 551 c 0,52,53
 1698 551 1698 551 1763 516 c 1,54,-1
 1546 813 l 1,55,56
 1690 938 1690 938 1690 1049 c 0,57,58
 1690 1135 1690 1135 1597 1251 c 1,59,-1
 1659 1251 l 1,60,-1
 1888 973 l 1,12,13
1174 231 m 2,61,62
 1174 184 1174 184 1148 142 c 128,-1,63
 1122 100 1122 100 1081 68.5 c 128,-1,64
 1040 37 1040 37 990 18.5 c 128,-1,65
 940 0 940 0 891 0 c 0,66,67
 860 0 860 0 836.5 9 c 128,-1,68
 813 18 813 18 791 35 c 0,69,70
 745 68 745 68 745 119 c 0,71,72
 745 152 745 152 756.5 178.5 c 128,-1,73
 768 205 768 205 791 233 c 1,74,75
 809 262 809 262 838.5 284.5 c 128,-1,76
 868 307 868 307 902 323.5 c 128,-1,77
 936 340 936 340 970 348 c 128,-1,78
 1004 356 1004 356 1028 356 c 0,79,80
 1083 356 1083 356 1137 322 c 1,81,-1
 1137 1427 l 1,82,-1
 1174 1427 l 1,83,-1
 1174 231 l 2,61,62
424 231 m 2,84,85
 424 170 424 170 383 117 c 0,86,87
 342 61 342 61 274.5 30.5 c 128,-1,88
 207 0 207 0 143 0 c 0,89,90
 90 0 90 0 43 35 c 0,91,92
 0 68 0 68 0 119 c 0,93,94
 0 178 0 178 43 233 c 0,95,96
 82 285 82 285 154 324 c 0,97,98
 190 342 190 342 222 349 c 128,-1,99
 254 356 254 356 281 356 c 0,100,101
 336 356 336 356 389 322 c 1,102,-1
 389 1427 l 1,103,-1
 424 1427 l 1,104,-1
 424 231 l 2,84,85
977 1620 m 1,105,-1
 977 1634 l 1,106,107
 999 1638 999 1638 1010.5 1642.5 c 128,-1,108
 1022 1647 1022 1647 1032 1657 c 0,109,110
 1040 1667 1040 1667 1049.5 1681.5 c 128,-1,111
 1059 1696 1059 1696 1059 1708 c 0,112,113
 1059 1749 1059 1749 1008 1749 c 0,114,115
 987 1749 987 1749 974 1736.5 c 128,-1,116
 961 1724 961 1724 944 1700 c 1,117,-1
 930 1700 l 1,118,119
 938 1722 938 1722 943 1731.5 c 128,-1,120
 948 1741 948 1741 958 1749 c 0,121,122
 987 1772 987 1772 1016 1772 c 0,123,124
 1047 1772 1047 1772 1068.5 1755.5 c 128,-1,125
 1090 1739 1090 1739 1090 1710 c 0,126,127
 1090 1692 1090 1692 1080.5 1674.5 c 128,-1,128
 1071 1657 1071 1657 1049 1640 c 1,129,130
 1065 1634 1065 1634 1068 1631 c 128,-1,131
 1071 1628 1071 1628 1079 1622 c 0,132,133
 1087 1610 1087 1610 1092.5 1600.5 c 128,-1,134
 1098 1591 1098 1591 1098 1573 c 0,135,136
 1098 1522 1098 1522 1063 1499 c 0,137,138
 1028 1475 1028 1475 979 1475 c 256,139,140
 930 1475 930 1475 930 1497 c 0,141,142
 930 1507 930 1507 946 1507 c 0,143,144
 952 1507 952 1507 957.5 1506 c 128,-1,145
 963 1505 963 1505 973 1501 c 0,146,147
 993 1489 993 1489 1014 1495 c 0,148,149
 1036 1503 1036 1503 1048.5 1512.5 c 128,-1,150
 1061 1522 1061 1522 1065 1550 c 0,151,152
 1067 1573 1067 1573 1054.5 1591.5 c 128,-1,153
 1042 1610 1042 1610 1022 1618 c 0,154,155
 1020 1620 1020 1620 1004 1620 c 2,156,-1
 977 1620 l 1,105,-1
EndSplineSet
Validated: 1
EndChar

StartChar: onesuperior
Encoding: 185 185 79
Width: 2048
VWidth: 2047
Flags: W
LayerCount: 2
Fore
SplineSet
197 1616 m 2,0,-1
 197 1460 l 1,1,-1
 154 1460 l 1,2,-1
 154 1501 l 1,3,4
 137 1483 137 1483 119.5 1471.5 c 128,-1,5
 102 1460 102 1460 74 1460 c 0,6,7
 39 1460 39 1460 19.5 1482.5 c 128,-1,8
 0 1505 0 1505 0 1532 c 0,9,10
 0 1579 0 1579 27.5 1597.5 c 128,-1,11
 55 1616 55 1616 154 1616 c 1,12,-1
 154 1638 l 2,13,14
 154 1655 154 1655 147.5 1666 c 128,-1,15
 141 1677 141 1677 102 1677 c 2,16,-1
 41 1677 l 1,17,-1
 41 1712 l 1,18,-1
 115 1712 l 2,19,20
 174 1712 174 1712 185.5 1684.5 c 128,-1,21
 197 1657 197 1657 197 1616 c 2,0,-1
154 1577 m 1,22,-1
 152 1579 l 1,23,24
 106 1579 106 1579 73.5 1576 c 128,-1,25
 41 1573 41 1573 41 1534 c 0,26,27
 41 1511 41 1511 55.5 1506 c 128,-1,28
 70 1501 70 1501 86 1501 c 0,29,30
 113 1501 113 1501 131.5 1515.5 c 128,-1,31
 150 1530 150 1530 154 1546 c 0,32,33
 156 1548 156 1548 155 1555.5 c 128,-1,34
 154 1563 154 1563 154 1567 c 2,35,-1
 154 1577 l 1,22,-1
530 1806 m 1,36,-1
 530 1712 l 1,37,-1
 596 1712 l 1,38,-1
 596 1677 l 1,39,-1
 530 1677 l 1,40,-1
 530 1546 l 2,41,42
 530 1501 530 1501 561 1501 c 0,43,44
 571 1501 571 1501 582.5 1500 c 128,-1,45
 594 1499 594 1499 596 1501 c 2,46,-1
 596 1460 l 1,47,-1
 551 1460 l 2,48,49
 524 1460 524 1460 504 1481 c 0,50,51
 487 1503 487 1503 487 1546 c 2,52,-1
 487 1677 l 1,53,-1
 436 1677 l 1,54,-1
 436 1712 l 1,55,-1
 487 1712 l 1,56,-1
 487 1806 l 1,57,-1
 530 1806 l 1,36,-1
729 1579 m 1,58,-1
 717 1579 l 1,59,60
 717 1534 717 1534 742.5 1517.5 c 128,-1,61
 768 1501 768 1501 801 1501 c 2,62,-1
 881 1501 l 1,63,-1
 881 1460 l 1,64,-1
 791 1460 l 2,65,66
 731 1460 731 1460 702.5 1494 c 128,-1,67
 674 1528 674 1528 674 1587 c 0,68,69
 674 1642 674 1642 702.5 1677 c 128,-1,70
 731 1712 731 1712 786 1712 c 0,71,72
 848 1712 848 1712 864.5 1682.5 c 128,-1,73
 881 1653 881 1653 881 1616 c 2,74,-1
 881 1579 l 1,75,-1
 729 1579 l 1,58,-1
838 1616 m 1,76,77
 838 1638 838 1638 830.5 1657.5 c 128,-1,78
 823 1677 823 1677 784 1677 c 0,79,80
 756 1677 756 1677 736.5 1659.5 c 128,-1,81
 717 1642 717 1642 717 1616 c 1,82,-1
 838 1616 l 1,76,77
971 1651 m 1,83,-1
 971 1712 l 1,84,-1
 1016 1712 l 1,85,-1
 1016 1677 l 1,86,87
 1026 1696 1026 1696 1041.5 1704 c 128,-1,88
 1057 1712 1057 1712 1090 1712 c 0,89,90
 1112 1712 1112 1712 1132.5 1704 c 128,-1,91
 1153 1696 1153 1696 1163 1673 c 1,92,93
 1174 1696 1174 1696 1196.5 1704 c 128,-1,94
 1219 1712 1219 1712 1251 1712 c 0,95,96
 1264 1712 1264 1712 1278 1709 c 128,-1,97
 1292 1706 1292 1706 1304.5 1696 c 128,-1,98
 1317 1686 1317 1686 1324 1666.5 c 128,-1,99
 1331 1647 1331 1647 1331 1616 c 2,100,-1
 1331 1460 l 1,101,-1
 1284 1460 l 1,102,-1
 1284 1612 l 2,103,104
 1284 1649 1284 1649 1275 1663 c 128,-1,105
 1266 1677 1266 1677 1239 1677 c 0,106,107
 1194 1677 1194 1677 1176 1632 c 0,108,109
 1174 1626 1174 1626 1172.5 1614 c 128,-1,110
 1171 1602 1171 1602 1171 1597 c 2,111,-1
 1171 1460 l 1,112,-1
 1128 1460 l 1,113,-1
 1128 1616 l 2,114,115
 1128 1651 1128 1651 1119 1664 c 128,-1,116
 1110 1677 1110 1677 1083 1677 c 0,117,118
 1065 1677 1065 1677 1042.5 1659.5 c 128,-1,119
 1020 1642 1020 1642 1016 1626 c 0,120,121
 1014 1622 1014 1622 1015 1613 c 128,-1,122
 1016 1604 1016 1604 1016 1595 c 2,123,-1
 1016 1460 l 1,124,-1
 971 1460 l 1,125,-1
 971 1651 l 1,83,-1
1432 1638 m 1,126,-1
 1432 1679 l 2,127,128
 1432 1690 1432 1690 1432 1712 c 1,129,-1
 1475 1712 l 1,130,-1
 1475 1677 l 1,131,132
 1491 1700 1491 1700 1515.5 1706 c 128,-1,133
 1540 1712 1540 1712 1569 1712 c 0,134,135
 1614 1712 1614 1712 1642.5 1682.5 c 128,-1,136
 1671 1653 1671 1653 1671 1597 c 0,137,138
 1671 1528 1671 1528 1635 1494 c 128,-1,139
 1599 1460 1599 1460 1554 1460 c 0,140,141
 1532 1460 1532 1460 1510.5 1471.5 c 128,-1,142
 1489 1483 1489 1483 1479 1499 c 1,143,-1
 1475 1499 l 1,144,-1
 1475 1364 l 1,145,-1
 1432 1364 l 1,146,-1
 1432 1638 l 1,126,-1
1475 1583 m 1,147,-1
 1475 1569 l 2,148,149
 1473 1550 1473 1550 1497.5 1525.5 c 128,-1,150
 1522 1501 1522 1501 1544 1501 c 0,151,152
 1585 1501 1585 1501 1606.5 1526.5 c 128,-1,153
 1628 1552 1628 1552 1628 1595 c 0,154,155
 1628 1634 1628 1634 1613.5 1655.5 c 128,-1,156
 1599 1677 1599 1677 1563 1677 c 0,157,158
 1540 1677 1540 1677 1513.5 1662 c 128,-1,159
 1487 1647 1487 1647 1479 1620 c 0,160,161
 1475 1604 1475 1604 1475 1591 c 2,162,-1
 1475 1583 l 1,147,-1
1876 1460 m 0,163,164
 1823 1460 1823 1460 1789 1495 c 128,-1,165
 1755 1530 1755 1530 1755 1589 c 0,166,167
 1755 1655 1755 1655 1792 1683.5 c 128,-1,168
 1829 1712 1829 1712 1882 1712 c 256,169,170
 1935 1712 1935 1712 1968 1684.5 c 128,-1,171
 2001 1657 2001 1657 2001 1597 c 0,172,173
 2001 1528 2001 1528 1962 1494 c 128,-1,174
 1923 1460 1923 1460 1876 1460 c 0,163,164
1870 1501 m 2,175,-1
 1882 1501 l 2,176,177
 1915 1501 1915 1501 1937.5 1525.5 c 128,-1,178
 1960 1550 1960 1550 1960 1593 c 0,179,180
 1960 1626 1960 1626 1943.5 1651.5 c 128,-1,181
 1927 1677 1927 1677 1884 1677 c 0,182,183
 1845 1677 1845 1677 1821.5 1652.5 c 128,-1,184
 1798 1628 1798 1628 1798 1593 c 0,185,186
 1798 1550 1798 1550 1817.5 1525.5 c 128,-1,187
 1837 1501 1837 1501 1870 1501 c 2,175,-1
EndSplineSet
Validated: 1
EndChar

StartChar: ordmasculine
Encoding: 186 186 80
Width: 1024
VWidth: 2047
Flags: W
LayerCount: 2
Fore
SplineSet
496 1432 m 1,0,1
 500 1391 500 1391 509 1357 c 128,-1,2
 518 1323 518 1323 528 1294 c 0,3,4
 543 1243 543 1243 573 1200 c 2,5,-1
 608 1157 l 1,6,-1
 657 1098 l 1,7,-1
 748 993 l 1,8,9
 850 860 850 860 850 715 c 0,10,11
 850 680 850 680 844 638 c 128,-1,12
 838 596 838 596 819 551 c 0,13,14
 805 516 805 516 795.5 492.5 c 128,-1,15
 786 469 786 469 770 440 c 1,16,-1
 739 438 l 1,17,-1
 774 528 l 2,18,19
 780 547 780 547 786.5 565.5 c 128,-1,20
 793 584 793 584 797 606 c 2,21,-1
 803 662 l 1,22,-1
 805 686 l 1,23,-1
 805 727 l 1,24,-1
 797 760 l 1,25,-1
 780 809 l 2,26,27
 760 872 760 872 711 924 c 1,28,29
 666 981 666 981 612 1008 c 0,30,31
 584 1024 584 1024 552 1034 c 128,-1,32
 520 1044 520 1044 496 1044 c 1,33,-1
 496 231 l 2,34,35
 496 168 496 168 451 111 c 1,36,37
 424 66 424 66 348 31 c 0,38,39
 283 0 283 0 215 0 c 0,40,41
 152 0 152 0 113 31 c 0,42,43
 70 61 70 61 70 123 c 0,44,45
 70 154 70 154 79 183.5 c 128,-1,46
 88 213 88 213 111 240 c 0,47,48
 131 264 131 264 156.5 286.5 c 128,-1,49
 182 309 182 309 217 326 c 0,50,51
 285 356 285 356 340 356 c 0,52,53
 428 356 428 356 461 324 c 1,54,-1
 461 1057 l 1,55,-1
 461 1432 l 1,56,-1
 496 1432 l 1,0,1
631 1454 m 1,57,58
 631 1524 631 1524 588 1583 c 0,59,60
 565 1614 565 1614 536.5 1636.5 c 128,-1,61
 508 1659 508 1659 471 1673 c 1,62,63
 455 1688 455 1688 437.5 1694 c 128,-1,64
 420 1700 420 1700 406 1704 c 0,65,66
 369 1710 369 1710 332 1710 c 0,67,68
 254 1710 254 1710 179 1668 c 128,-1,69
 104 1626 104 1626 59 1554 c 0,70,71
 55 1544 55 1544 50 1533 c 128,-1,72
 45 1522 45 1522 41 1507 c 0,73,74
 39 1501 39 1501 37 1495 c 128,-1,75
 35 1489 35 1489 35 1483 c 0,76,77
 33 1481 33 1481 33 1454 c 1,78,-1
 0 1454 l 1,79,80
 6 1528 6 1528 31 1589 c 0,81,82
 45 1622 45 1622 62.5 1650.5 c 128,-1,83
 80 1679 80 1679 100 1706 c 0,84,85
 147 1759 147 1759 207 1786 c 0,86,87
 236 1800 236 1800 267.5 1808.5 c 128,-1,88
 299 1817 299 1817 332 1817 c 0,89,90
 369 1817 369 1817 402.5 1808.5 c 128,-1,91
 436 1800 436 1800 465 1786 c 0,92,93
 530 1757 530 1757 567 1708 c 0,94,95
 651 1599 651 1599 668 1454 c 1,96,-1
 631 1454 l 1,57,58
389 1507 m 0,97,98
 389 1485 389 1485 373 1468 c 0,99,100
 358 1454 358 1454 332 1454 c 0,101,102
 311 1454 311 1454 291 1468 c 0,103,104
 276 1481 276 1481 276 1507 c 0,105,106
 276 1528 276 1528 291 1542 c 0,107,108
 291 1546 291 1546 303 1550 c 0,109,110
 313 1550 313 1550 320.5 1552 c 128,-1,111
 328 1554 328 1554 332 1554 c 0,112,113
 356 1554 356 1554 373 1542 c 1,114,115
 389 1520 389 1520 389 1507 c 0,97,98
EndSplineSet
Validated: 1
EndChar

StartChar: guillemotright
Encoding: 187 187 81
Width: 2048
VWidth: 2047
Flags: W
LayerCount: 2
Fore
SplineSet
1935 1622 m 1,0,-1
 1223 1622 l 1,1,-1
 1223 1653 l 1,2,-1
 1968 1653 l 1,3,-1
 1968 1479 l 1,4,-1
 1935 1479 l 1,5,-1
 1935 1622 l 1,0,-1
389 1427 m 1,6,-1
 424 1427 l 1,7,8
 428 1391 428 1391 436 1356 c 128,-1,9
 444 1321 444 1321 457 1292 c 0,10,11
 465 1266 465 1266 476 1242.5 c 128,-1,12
 487 1219 487 1219 502 1196 c 1,13,-1
 539 1155 l 1,14,-1
 586 1094 l 1,15,-1
 674 989 l 1,16,17
 778 856 778 856 778 715 c 0,18,19
 778 678 778 678 772 637 c 128,-1,20
 766 596 766 596 748 551 c 0,21,22
 733 516 733 516 724 491.5 c 128,-1,23
 715 467 715 467 698 438 c 1,24,-1
 666 438 l 1,25,-1
 700 528 l 2,26,27
 709 549 709 549 714 567.5 c 128,-1,28
 719 586 719 586 723 604 c 2,29,-1
 733 662 l 1,30,-1
 733 684 l 1,31,-1
 733 727 l 1,32,33
 727 741 727 741 727 760 c 1,34,35
 721 774 721 774 709 809 c 0,36,37
 696 840 696 840 680 867.5 c 128,-1,38
 664 895 664 895 639 922 c 0,39,40
 594 979 594 979 541 1006 c 0,41,42
 512 1022 512 1022 480.5 1032 c 128,-1,43
 449 1042 449 1042 424 1042 c 1,44,-1
 424 233 l 2,45,46
 424 168 424 168 383 115 c 0,47,48
 346 63 346 63 276 33 c 1,49,50
 213 0 213 0 145 0 c 0,51,52
 82 0 82 0 43 33 c 1,53,54
 0 59 0 59 0 125 c 0,55,56
 0 188 0 188 39 240 c 0,57,58
 80 295 80 295 147.5 326.5 c 128,-1,59
 215 358 215 358 268 358 c 0,60,61
 354 358 354 358 389 324 c 1,62,-1
 389 1055 l 1,63,-1
 389 1427 l 1,6,-1
109 1479 m 1,64,-1
 76 1479 l 1,65,-1
 76 1653 l 1,66,-1
 874 1653 l 1,67,-1
 874 1622 l 1,68,-1
 109 1622 l 1,69,-1
 109 1479 l 1,64,-1
1028 1636 m 1,70,71
 1051 1640 1051 1640 1062 1644.5 c 128,-1,72
 1073 1649 1073 1649 1083 1659 c 0,73,74
 1092 1669 1092 1669 1101 1683.5 c 128,-1,75
 1110 1698 1110 1698 1110 1710 c 0,76,77
 1110 1751 1110 1751 1059 1751 c 0,78,79
 1038 1751 1038 1751 1025 1738.5 c 128,-1,80
 1012 1726 1012 1726 995 1702 c 1,81,-1
 981 1702 l 1,82,83
 989 1724 989 1724 994 1733.5 c 128,-1,84
 999 1743 999 1743 1010 1751 c 0,85,86
 1038 1774 1038 1774 1067 1774 c 0,87,88
 1098 1774 1098 1774 1119.5 1757.5 c 128,-1,89
 1141 1741 1141 1741 1141 1712 c 0,90,91
 1141 1694 1141 1694 1131.5 1676.5 c 128,-1,92
 1122 1659 1122 1659 1100 1642 c 1,93,94
 1116 1636 1116 1636 1119 1633 c 128,-1,95
 1122 1630 1122 1630 1130 1624 c 0,96,97
 1139 1612 1139 1612 1144 1602.5 c 128,-1,98
 1149 1593 1149 1593 1149 1575 c 0,99,100
 1149 1524 1149 1524 1114 1501 c 0,101,102
 1079 1477 1079 1477 1030 1477 c 256,103,104
 981 1477 981 1477 981 1499 c 0,105,106
 981 1509 981 1509 997 1509 c 0,107,108
 1004 1509 1004 1509 1009 1508 c 128,-1,109
 1014 1507 1014 1507 1024 1503 c 0,110,111
 1044 1491 1044 1491 1065 1497 c 0,112,113
 1087 1505 1087 1505 1099.5 1514.5 c 128,-1,114
 1112 1524 1112 1524 1116 1552 c 0,115,116
 1118 1575 1118 1575 1106 1593.5 c 128,-1,117
 1094 1612 1094 1612 1073 1620 c 0,118,119
 1071 1622 1071 1622 1055 1622 c 2,120,-1
 1028 1622 l 1,121,-1
 1028 1636 l 1,70,71
1245 1427 m 1,122,-1
 1245 231 l 2,123,124
 1245 170 1245 170 1204 117 c 0,125,126
 1163 61 1163 61 1095.5 30.5 c 128,-1,127
 1028 0 1028 0 965 0 c 0,128,129
 911 0 911 0 864 35 c 0,130,131
 821 68 821 68 821 119 c 0,132,133
 821 178 821 178 864 233 c 0,134,135
 901 283 901 283 975 324 c 0,136,137
 1012 342 1012 342 1043.5 349 c 128,-1,138
 1075 356 1075 356 1102 356 c 0,139,140
 1157 356 1157 356 1210 322 c 1,141,-1
 1210 1427 l 1,142,-1
 1245 1427 l 1,122,-1
EndSplineSet
Validated: 1
EndChar

StartChar: onequarter
Encoding: 188 188 82
Width: 2048
VWidth: 2047
Flags: W
LayerCount: 2
Fore
SplineSet
1935 1622 m 1,0,-1
 1223 1622 l 1,1,-1
 1223 1653 l 1,2,-1
 1968 1653 l 1,3,-1
 1968 1479 l 1,4,-1
 1935 1479 l 1,5,-1
 1935 1622 l 1,0,-1
1540 1427 m 1,6,-1
 1575 1427 l 1,7,8
 1579 1391 1579 1391 1587 1356 c 128,-1,9
 1595 1321 1595 1321 1608 1292 c 0,10,11
 1616 1266 1616 1266 1627 1242.5 c 128,-1,12
 1638 1219 1638 1219 1653 1196 c 1,13,-1
 1690 1155 l 1,14,-1
 1737 1094 l 1,15,-1
 1825 989 l 1,16,17
 1929 856 1929 856 1929 715 c 0,18,19
 1929 678 1929 678 1923 637 c 128,-1,20
 1917 596 1917 596 1898 551 c 0,21,22
 1884 516 1884 516 1875 491.5 c 128,-1,23
 1866 467 1866 467 1849 438 c 1,24,-1
 1817 438 l 1,25,-1
 1851 528 l 2,26,27
 1860 549 1860 549 1865 567.5 c 128,-1,28
 1870 586 1870 586 1874 604 c 2,29,-1
 1884 662 l 1,30,-1
 1884 684 l 1,31,-1
 1884 727 l 1,32,33
 1878 741 1878 741 1878 760 c 1,34,35
 1872 774 1872 774 1860 809 c 0,36,37
 1847 840 1847 840 1831 867.5 c 128,-1,38
 1815 895 1815 895 1790 922 c 0,39,40
 1745 979 1745 979 1692 1006 c 0,41,42
 1663 1022 1663 1022 1631 1032 c 128,-1,43
 1599 1042 1599 1042 1575 1042 c 1,44,-1
 1575 233 l 2,45,46
 1575 168 1575 168 1534 115 c 0,47,48
 1497 63 1497 63 1427 33 c 1,49,50
 1364 0 1364 0 1296 0 c 0,51,52
 1233 0 1233 0 1194 33 c 1,53,54
 1151 59 1151 59 1151 125 c 0,55,56
 1151 188 1151 188 1190 240 c 0,57,58
 1231 295 1231 295 1298.5 326.5 c 128,-1,59
 1366 358 1366 358 1419 358 c 0,60,61
 1505 358 1505 358 1540 324 c 1,62,-1
 1540 1055 l 1,63,-1
 1540 1427 l 1,6,-1
109 1479 m 1,64,-1
 76 1479 l 1,65,-1
 76 1653 l 1,66,-1
 874 1653 l 1,67,-1
 874 1622 l 1,68,-1
 109 1622 l 1,69,-1
 109 1479 l 1,64,-1
1028 1636 m 1,70,71
 1051 1640 1051 1640 1062 1644.5 c 128,-1,72
 1073 1649 1073 1649 1083 1659 c 0,73,74
 1092 1669 1092 1669 1101 1683.5 c 128,-1,75
 1110 1698 1110 1698 1110 1710 c 0,76,77
 1110 1751 1110 1751 1059 1751 c 0,78,79
 1038 1751 1038 1751 1025 1738.5 c 128,-1,80
 1012 1726 1012 1726 995 1702 c 1,81,-1
 981 1702 l 1,82,83
 989 1724 989 1724 994 1733.5 c 128,-1,84
 999 1743 999 1743 1010 1751 c 0,85,86
 1038 1774 1038 1774 1067 1774 c 0,87,88
 1098 1774 1098 1774 1119.5 1757.5 c 128,-1,89
 1141 1741 1141 1741 1141 1712 c 0,90,91
 1141 1694 1141 1694 1131.5 1676.5 c 128,-1,92
 1122 1659 1122 1659 1100 1642 c 1,93,94
 1116 1636 1116 1636 1119 1633 c 128,-1,95
 1122 1630 1122 1630 1130 1624 c 0,96,97
 1139 1612 1139 1612 1144 1602.5 c 128,-1,98
 1149 1593 1149 1593 1149 1575 c 0,99,100
 1149 1524 1149 1524 1114 1501 c 0,101,102
 1079 1477 1079 1477 1030 1477 c 256,103,104
 981 1477 981 1477 981 1499 c 0,105,106
 981 1509 981 1509 997 1509 c 0,107,108
 1004 1509 1004 1509 1009 1508 c 128,-1,109
 1014 1507 1014 1507 1024 1503 c 0,110,111
 1044 1491 1044 1491 1065 1497 c 0,112,113
 1087 1505 1087 1505 1099.5 1514.5 c 128,-1,114
 1112 1524 1112 1524 1116 1552 c 0,115,116
 1118 1575 1118 1575 1106 1593.5 c 128,-1,117
 1094 1612 1094 1612 1073 1620 c 0,118,119
 1071 1622 1071 1622 1055 1622 c 2,120,-1
 1028 1622 l 1,121,-1
 1028 1636 l 1,70,71
424 1427 m 1,122,-1
 424 231 l 2,123,124
 424 170 424 170 383 117 c 0,125,126
 342 61 342 61 274.5 30.5 c 128,-1,127
 207 0 207 0 143 0 c 0,128,129
 90 0 90 0 43 35 c 0,130,131
 0 68 0 68 0 119 c 0,132,133
 0 178 0 178 43 233 c 0,134,135
 80 283 80 283 154 324 c 0,136,137
 190 342 190 342 222 349 c 128,-1,138
 254 356 254 356 281 356 c 0,139,140
 336 356 336 356 389 322 c 1,141,-1
 389 1427 l 1,142,-1
 424 1427 l 1,122,-1
EndSplineSet
Validated: 1
EndChar

StartChar: onehalf
Encoding: 189 189 83
Width: 512
VWidth: 2047
Flags: W
LayerCount: 2
Fore
SplineSet
41 106 m 1,0,-1
 205 143 l 1,1,-1
 205 287 l 1,2,-1
 41 254 l 1,3,-1
 41 106 l 1,0,-1
0 598 m 1,4,-1
 41 598 l 1,5,-1
 41 360 l 1,6,-1
 250 406 l 1,7,-1
 250 -197 l 1,8,-1
 205 -197 l 1,9,-1
 205 33 l 1,10,-1
 0 -4 l 1,11,-1
 0 598 l 1,4,-1
EndSplineSet
Validated: 1
EndChar

StartChar: threequarters
Encoding: 190 190 84
Width: 2048
VWidth: 2047
Flags: W
LayerCount: 2
Fore
SplineSet
1604 1176 m 1,0,-1
 1847 1176 l 1,1,-1
 1847 1294 l 1,2,-1
 948 1294 l 1,3,-1
 948 231 l 2,4,5
 948 176 948 176 907 117 c 0,6,7
 864 61 864 61 796.5 30.5 c 128,-1,8
 729 0 729 0 666 0 c 0,9,10
 610 0 610 0 565 33 c 128,-1,11
 520 66 520 66 520 121 c 0,12,13
 520 184 520 184 565 236 c 0,14,15
 604 287 604 287 676 328 c 1,16,17
 713 344 713 344 743.5 351 c 128,-1,18
 774 358 774 358 803 358 c 0,19,20
 817 358 817 358 836.5 347 c 128,-1,21
 856 336 856 336 873.5 325.5 c 128,-1,22
 891 315 891 315 902 311 c 128,-1,23
 913 307 913 307 913 324 c 2,24,-1
 913 1294 l 1,25,-1
 426 1294 l 1,26,-1
 426 1176 l 1,27,-1
 428 1176 l 1,28,-1
 682 1176 l 1,29,-1
 682 1038 l 1,30,-1
 426 1038 l 1,31,-1
 426 227 l 2,32,33
 426 174 426 174 387 117 c 0,34,35
 344 61 344 61 276.5 30.5 c 128,-1,36
 209 0 209 0 145 0 c 0,37,38
 88 0 88 0 43 33 c 0,39,40
 0 66 0 66 0 121 c 0,41,42
 0 180 0 180 43 236 c 0,43,44
 63 258 63 258 92 281.5 c 128,-1,45
 121 305 121 305 156 328 c 1,46,47
 193 344 193 344 223.5 351 c 128,-1,48
 254 358 254 358 283 358 c 0,49,50
 344 358 344 358 391 324 c 1,51,-1
 391 1434 l 1,52,-1
 1882 1434 l 1,53,-1
 1882 231 l 2,54,55
 1882 170 1882 170 1841 117 c 0,56,57
 1798 61 1798 61 1730.5 30.5 c 128,-1,58
 1663 0 1663 0 1602 0 c 0,59,60
 1544 0 1544 0 1499 33 c 0,61,62
 1456 66 1456 66 1456 121 c 0,63,64
 1456 180 1456 180 1499 236 c 0,65,66
 1542 287 1542 287 1610 328 c 1,67,68
 1647 344 1647 344 1678.5 351 c 128,-1,69
 1710 358 1710 358 1739 358 c 0,70,71
 1794 358 1794 358 1847 324 c 1,72,-1
 1847 1038 l 1,73,-1
 1604 1038 l 1,74,-1
 1604 1176 l 1,0,-1
EndSplineSet
Validated: 1
EndChar

StartChar: Acircumflex
Encoding: 194 194 85
Width: 1024
VWidth: 2047
Flags: W
LayerCount: 2
Fore
SplineSet
530 231 m 2,0,1
 530 176 530 176 489 117 c 0,2,3
 446 61 446 61 378.5 30.5 c 128,-1,4
 311 0 311 0 248 0 c 0,5,6
 190 0 190 0 145 33 c 0,7,8
 102 66 102 66 102 121 c 0,9,10
 102 180 102 180 145 236 c 0,11,12
 166 258 166 258 194.5 281.5 c 128,-1,13
 223 305 223 305 258 328 c 1,14,15
 295 344 295 344 325.5 351 c 128,-1,16
 356 358 356 358 385 358 c 0,17,18
 446 358 446 358 494 324 c 1,19,-1
 494 1434 l 1,20,-1
 530 1434 l 1,21,-1
 530 231 l 2,0,1
786 215 m 256,22,23
 786 184 786 184 763.5 161.5 c 128,-1,24
 741 139 741 139 711 139 c 0,25,26
 680 139 680 139 657.5 161.5 c 128,-1,27
 635 184 635 184 635 215 c 256,28,29
 635 246 635 246 657.5 268.5 c 128,-1,30
 680 291 680 291 711 291 c 0,31,32
 741 291 741 291 763.5 268.5 c 128,-1,33
 786 246 786 246 786 215 c 256,22,23
631 1462 m 1,34,35
 631 1532 631 1532 588 1591 c 0,36,37
 565 1622 565 1622 536.5 1644.5 c 128,-1,38
 508 1667 508 1667 471 1681 c 1,39,40
 455 1696 455 1696 437.5 1702 c 128,-1,41
 420 1708 420 1708 406 1712 c 0,42,43
 369 1718 369 1718 332 1718 c 0,44,45
 254 1718 254 1718 179 1676 c 128,-1,46
 104 1634 104 1634 59 1563 c 0,47,48
 55 1552 55 1552 50 1541 c 128,-1,49
 45 1530 45 1530 41 1516 c 0,50,51
 39 1509 39 1509 37 1503 c 128,-1,52
 35 1497 35 1497 35 1491 c 0,53,54
 33 1489 33 1489 33 1462 c 1,55,-1
 0 1462 l 1,56,57
 6 1536 6 1536 31 1597 c 0,58,59
 45 1630 45 1630 62.5 1659 c 128,-1,60
 80 1688 80 1688 100 1714 c 0,61,62
 147 1767 147 1767 207 1794 c 0,63,64
 236 1808 236 1808 267.5 1816.5 c 128,-1,65
 299 1825 299 1825 332 1825 c 0,66,67
 369 1825 369 1825 402.5 1816.5 c 128,-1,68
 436 1808 436 1808 465 1794 c 0,69,70
 530 1765 530 1765 567 1716 c 0,71,72
 651 1608 651 1608 668 1462 c 1,73,-1
 631 1462 l 1,34,35
389 1516 m 0,74,75
 389 1493 389 1493 373 1477 c 0,76,77
 358 1462 358 1462 332 1462 c 0,78,79
 311 1462 311 1462 291 1477 c 0,80,81
 276 1489 276 1489 276 1516 c 0,82,83
 276 1536 276 1536 291 1550 c 0,84,85
 291 1554 291 1554 303 1559 c 0,86,87
 313 1559 313 1559 320.5 1561 c 128,-1,88
 328 1563 328 1563 332 1563 c 0,89,90
 356 1563 356 1563 373 1550 c 1,91,92
 389 1528 389 1528 389 1516 c 0,74,75
EndSplineSet
Validated: 1
EndChar

StartChar: Atilde
Encoding: 195 195 86
Width: 512
VWidth: 2047
Flags: W
LayerCount: 2
Fore
SplineSet
0 362 m 1,0,-1
 512 362 l 1,1,-1
 512 256 l 1,2,-1
 0 256 l 1,3,-1
 0 362 l 1,0,-1
EndSplineSet
Validated: 1
EndChar

StartChar: Adieresis
Encoding: 196 196 87
Width: 1024
VWidth: 2047
Flags: W
LayerCount: 2
Fore
SplineSet
0 362 m 1,0,-1
 510 362 l 1,1,-1
 510 256 l 1,2,-1
 0 256 l 1,3,-1
 0 362 l 1,0,-1
EndSplineSet
Validated: 1
EndChar

StartChar: Egrave
Encoding: 200 200 88
Width: 1024
VWidth: 2047
Flags: W
LayerCount: 2
Fore
SplineSet
391 1434 m 1,0,-1
 426 1434 l 1,1,2
 430 1393 430 1393 439.5 1359 c 128,-1,3
 449 1325 449 1325 459 1296 c 0,4,5
 475 1243 475 1243 504 1202 c 2,6,-1
 539 1159 l 1,7,-1
 588 1100 l 1,8,-1
 678 995 l 1,9,10
 780 862 780 862 780 717 c 0,11,12
 780 682 780 682 774 640 c 128,-1,13
 768 598 768 598 750 553 c 0,14,15
 735 518 735 518 726 494.5 c 128,-1,16
 717 471 717 471 700 442 c 1,17,-1
 670 440 l 1,18,-1
 705 530 l 2,19,20
 711 549 711 549 717 567.5 c 128,-1,21
 723 586 723 586 727 608 c 2,22,-1
 733 664 l 1,23,-1
 735 688 l 1,24,-1
 735 729 l 1,25,-1
 727 762 l 2,26,27
 719 786 719 786 711 811 c 0,28,29
 690 874 690 874 641 926 c 1,30,31
 598 981 598 981 543 1010 c 0,32,33
 514 1026 514 1026 482.5 1036.5 c 128,-1,34
 451 1047 451 1047 426 1047 c 1,35,-1
 426 233 l 2,36,37
 426 170 426 170 381 113 c 1,38,39
 352 66 352 66 279 33 c 0,40,41
 215 0 215 0 145 0 c 0,42,43
 82 0 82 0 43 33 c 1,44,45
 0 63 0 63 0 125 c 0,46,47
 0 156 0 156 9 185.5 c 128,-1,48
 18 215 18 215 41 242 c 0,49,50
 61 266 61 266 87 288.5 c 128,-1,51
 113 311 113 311 147 328 c 0,52,53
 215 358 215 358 270 358 c 0,54,55
 358 358 358 358 391 326 c 1,56,-1
 391 1059 l 1,57,-1
 391 1434 l 1,0,-1
EndSplineSet
Validated: 1
EndChar

StartChar: Eacute
Encoding: 201 201 89
Width: 1024
VWidth: 2047
Flags: W
LayerCount: 2
Fore
SplineSet
391 1434 m 1,0,-1
 426 1434 l 1,1,2
 430 1393 430 1393 439.5 1359 c 128,-1,3
 449 1325 449 1325 459 1296 c 0,4,5
 475 1243 475 1243 504 1202 c 2,6,-1
 539 1159 l 1,7,-1
 588 1100 l 1,8,-1
 678 995 l 1,9,10
 780 862 780 862 780 717 c 0,11,12
 780 682 780 682 774 640 c 128,-1,13
 768 598 768 598 750 553 c 0,14,15
 735 518 735 518 726 494.5 c 128,-1,16
 717 471 717 471 700 442 c 1,17,-1
 670 440 l 1,18,-1
 705 530 l 2,19,20
 711 549 711 549 717 567.5 c 128,-1,21
 723 586 723 586 727 608 c 2,22,-1
 733 664 l 1,23,-1
 735 688 l 1,24,-1
 735 729 l 1,25,-1
 727 762 l 2,26,27
 719 786 719 786 711 811 c 0,28,29
 690 874 690 874 641 926 c 1,30,31
 598 981 598 981 543 1010 c 0,32,33
 514 1026 514 1026 482.5 1036.5 c 128,-1,34
 451 1047 451 1047 426 1047 c 1,35,-1
 426 233 l 2,36,37
 426 170 426 170 381 113 c 1,38,39
 352 66 352 66 279 33 c 0,40,41
 215 0 215 0 145 0 c 0,42,43
 82 0 82 0 43 33 c 1,44,45
 0 63 0 63 0 125 c 0,46,47
 0 156 0 156 9 185.5 c 128,-1,48
 18 215 18 215 41 242 c 0,49,50
 61 266 61 266 87 288.5 c 128,-1,51
 113 311 113 311 147 328 c 0,52,53
 215 358 215 358 270 358 c 0,54,55
 358 358 358 358 391 326 c 1,56,-1
 391 1059 l 1,57,-1
 391 1434 l 1,0,-1
EndSplineSet
Validated: 1
EndChar

StartChar: Ecircumflex
Encoding: 202 202 90
Width: 1024
VWidth: 2047
Flags: W
LayerCount: 2
Fore
SplineSet
35 387 m 1,0,1
 59 387 59 387 91 397.5 c 128,-1,2
 123 408 123 408 152 424 c 0,3,4
 207 453 207 453 250 508 c 1,5,6
 299 559 299 559 319 623 c 0,7,8
 328 647 328 647 332 659.5 c 128,-1,9
 336 672 336 672 337 676 c 128,-1,10
 338 680 338 680 339 688 c 128,-1,11
 340 696 340 696 344 705 c 1,12,-1
 344 745 l 1,13,-1
 342 770 l 1,14,-1
 336 825 l 2,15,16
 332 848 332 848 325.5 866.5 c 128,-1,17
 319 885 319 885 313 903 c 2,18,-1
 279 993 l 1,19,-1
 309 991 l 1,20,21
 326 963 326 963 335 939 c 128,-1,22
 344 915 344 915 358 881 c 0,23,24
 377 836 377 836 383 794 c 128,-1,25
 389 752 389 752 389 717 c 0,26,27
 389 571 389 571 287 438 c 1,28,-1
 197 334 l 1,29,-1
 147 274 l 1,30,-1
 113 231 l 2,31,32
 84 190 84 190 68 137 c 0,33,34
 57 109 57 109 48 75 c 128,-1,35
 39 41 39 41 35 0 c 1,36,-1
 0 0 l 1,37,-1
 0 1200 l 2,38,39
 0 1264 0 1264 45 1321 c 1,40,41
 74 1368 74 1368 147 1401 c 0,42,43
 211 1434 211 1434 281 1434 c 0,44,45
 344 1434 344 1434 383 1401 c 0,46,47
 426 1370 426 1370 426 1309 c 0,48,49
 426 1278 426 1278 417 1248.5 c 128,-1,50
 408 1219 408 1219 385 1192 c 0,51,52
 365 1167 365 1167 339 1144.5 c 128,-1,53
 313 1122 313 1122 279 1106 c 0,54,55
 211 1075 211 1075 156 1075 c 0,56,57
 68 1075 68 1075 35 1108 c 1,58,-1
 35 387 l 1,0,1
EndSplineSet
Validated: 1
EndChar

StartChar: Edieresis
Encoding: 203 203 91
Width: 1024
VWidth: 2047
Flags: W
LayerCount: 2
Fore
SplineSet
35 387 m 1,0,1
 59 387 59 387 91 397.5 c 128,-1,2
 123 408 123 408 152 424 c 0,3,4
 207 453 207 453 250 508 c 1,5,6
 299 559 299 559 319 623 c 0,7,8
 328 647 328 647 332 659.5 c 128,-1,9
 336 672 336 672 337 676 c 128,-1,10
 338 680 338 680 339 688 c 128,-1,11
 340 696 340 696 344 705 c 1,12,-1
 344 745 l 1,13,-1
 342 770 l 1,14,-1
 336 825 l 2,15,16
 332 848 332 848 325.5 866.5 c 128,-1,17
 319 885 319 885 313 903 c 2,18,-1
 279 993 l 1,19,-1
 309 991 l 1,20,21
 326 963 326 963 335 939 c 128,-1,22
 344 915 344 915 358 881 c 0,23,24
 377 836 377 836 383 794 c 128,-1,25
 389 752 389 752 389 717 c 0,26,27
 389 571 389 571 287 438 c 1,28,-1
 197 334 l 1,29,-1
 147 274 l 1,30,-1
 113 231 l 2,31,32
 84 190 84 190 68 137 c 0,33,34
 57 109 57 109 48 75 c 128,-1,35
 39 41 39 41 35 0 c 1,36,-1
 0 0 l 1,37,-1
 0 1200 l 2,38,39
 0 1264 0 1264 45 1321 c 1,40,41
 74 1368 74 1368 147 1401 c 0,42,43
 211 1434 211 1434 281 1434 c 0,44,45
 344 1434 344 1434 383 1401 c 0,46,47
 426 1370 426 1370 426 1309 c 0,48,49
 426 1278 426 1278 417 1248.5 c 128,-1,50
 408 1219 408 1219 385 1192 c 0,51,52
 365 1167 365 1167 339 1144.5 c 128,-1,53
 313 1122 313 1122 279 1106 c 0,54,55
 211 1075 211 1075 156 1075 c 0,56,57
 68 1075 68 1075 35 1108 c 1,58,-1
 35 387 l 1,0,1
EndSplineSet
Validated: 1
EndChar

StartChar: Igrave
Encoding: 204 204 92
Width: 512
VWidth: 2047
Flags: W
LayerCount: 2
Fore
SplineSet
109 883 m 1,0,-1
 66 883 l 1,1,2
 51 958 51 958 40 1028 c 128,-1,3
 29 1098 29 1098 19.5 1154 c 128,-1,4
 10 1210 10 1210 5 1249 c 128,-1,5
 0 1288 0 1288 0 1300 c 0,6,7
 0 1335 0 1335 25.5 1359.5 c 128,-1,8
 51 1384 51 1384 88 1384 c 0,9,10
 123 1384 123 1384 148.5 1360.5 c 128,-1,11
 174 1337 174 1337 174 1305 c 0,12,13
 174 1257 174 1257 160.5 1169 c 128,-1,14
 147 1081 147 1081 123 965 c 0,15,16
 119 944 119 944 116 924.5 c 128,-1,17
 113 905 113 905 109 883 c 1,0,-1
EndSplineSet
Validated: 1
EndChar

StartChar: Iacute
Encoding: 205 205 93
Width: 512
VWidth: 2047
Flags: W
LayerCount: 2
Fore
SplineSet
258 635 m 0,0,1
 303 635 303 635 337 600 c 128,-1,2
 371 565 371 565 371 518 c 0,3,4
 371 473 371 473 337 441 c 0,5,6
 304 408 304 408 256 408 c 256,7,8
 209 408 209 408 176 440.5 c 128,-1,9
 143 473 143 473 143 520 c 256,10,11
 143 567 143 567 177 601 c 128,-1,12
 211 635 211 635 258 635 c 0,0,1
EndSplineSet
Validated: 1
EndChar

StartChar: Icircumflex
Encoding: 206 206 94
Width: 512
VWidth: 2047
Flags: W
LayerCount: 2
Fore
SplineSet
0 526 m 1,0,-1
 512 526 l 1,1,-1
 512 397 l 1,2,-1
 0 397 l 1,3,-1
 0 526 l 1,0,-1
EndSplineSet
Validated: 1
EndChar

StartChar: Eth
Encoding: 208 208 95
Width: 1024
VWidth: 2047
Flags: W
LayerCount: 2
Fore
SplineSet
508 86 m 1,0,-1
 553 129 l 1,1,-1
 602 184 l 1,2,-1
 623 209 l 1,3,-1
 639 240 l 2,4,5
 647 254 647 254 649 266.5 c 128,-1,6
 651 279 651 279 651 289 c 0,7,8
 651 319 651 319 633 338 c 0,9,10
 616 356 616 356 590 356 c 2,11,-1
 571 356 l 2,12,13
 563 354 563 354 556 350 c 128,-1,14
 549 346 549 346 537 340 c 0,15,16
 516 330 516 330 508 301 c 1,17,-1
 508 86 l 1,0,-1
438 184 m 1,18,-1
 418 168 l 1,19,-1
 393 150 l 1,20,-1
 360 125 l 1,21,-1
 317 100 l 1,22,-1
 283 70 l 2,23,24
 264 57 264 57 244.5 38.5 c 128,-1,25
 225 20 225 20 205 0 c 1,26,-1
 205 860 l 1,27,-1
 250 860 l 1,28,-1
 250 358 l 1,29,30
 328 406 328 406 377 406 c 0,31,32
 424 406 424 406 461 381 c 1,33,-1
 461 860 l 1,34,-1
 508 860 l 1,35,-1
 508 358 l 1,36,37
 573 406 573 406 637 406 c 0,38,39
 690 406 690 406 723 379 c 0,40,41
 743 362 743 362 754.5 343 c 128,-1,42
 766 324 766 324 766 299 c 0,43,44
 766 258 766 258 735.5 223 c 128,-1,45
 705 188 705 188 657 154 c 2,46,-1
 553 78 l 2,47,48
 532 63 532 63 509.5 45 c 128,-1,49
 487 27 487 27 461 0 c 1,50,-1
 461 209 l 1,51,-1
 438 184 l 1,18,-1
250 86 m 1,52,53
 279 115 279 115 305.5 142.5 c 128,-1,54
 332 170 332 170 354 199 c 0,55,56
 391 242 391 242 391 289 c 0,57,58
 391 354 391 354 330 354 c 1,59,-1
 305 350 l 1,60,-1
 281 340 l 1,61,62
 256 322 256 322 250 301 c 1,63,-1
 250 86 l 1,52,53
EndSplineSet
Validated: 1
EndChar

StartChar: Ntilde
Encoding: 209 209 96
Width: 2048
VWidth: 2047
Flags: W
LayerCount: 2
Fore
SplineSet
1860 229 m 2,0,1
 1860 170 1860 170 1821 119 c 0,2,3
 1776 61 1776 61 1708 30.5 c 128,-1,4
 1640 0 1640 0 1579 0 c 0,5,6
 1526 0 1526 0 1481 33 c 0,7,8
 1434 68 1434 68 1434 121 c 0,9,10
 1434 176 1434 176 1481 236 c 0,11,12
 1499 258 1499 258 1525.5 282.5 c 128,-1,13
 1552 307 1552 307 1587 326 c 0,14,15
 1624 342 1624 342 1657 348 c 128,-1,16
 1690 354 1690 354 1718 354 c 0,17,18
 1778 354 1778 354 1825 324 c 1,19,-1
 1825 1292 l 1,20,-1
 424 1292 l 1,21,-1
 424 229 l 2,22,23
 424 201 424 201 415 173 c 128,-1,24
 406 145 406 145 383 119 c 0,25,26
 342 61 342 61 274.5 30.5 c 128,-1,27
 207 0 207 0 145 0 c 0,28,29
 115 0 115 0 91.5 8 c 128,-1,30
 68 16 68 16 45 33 c 0,31,32
 0 66 0 66 0 121 c 0,33,34
 0 184 0 184 45 236 c 0,35,36
 66 258 66 258 93.5 282.5 c 128,-1,37
 121 307 121 307 156 326 c 0,38,39
 193 342 193 342 223.5 348 c 128,-1,40
 254 354 254 354 283 354 c 0,41,42
 313 354 313 354 337.5 347 c 128,-1,43
 362 340 362 340 389 324 c 1,44,-1
 389 1434 l 1,45,-1
 1860 1434 l 1,46,-1
 1860 229 l 2,0,1
1931 1483 m 1,47,-1
 1931 1614 l 1,48,-1
 1223 1614 l 1,49,-1
 1223 1642 l 1,50,-1
 1962 1642 l 1,51,-1
 1962 1483 l 1,52,-1
 1931 1483 l 1,47,-1
1061 199 m 1,53,-1
 1010 199 l 1,54,55
 1044 334 1044 334 1082 462 c 128,-1,56
 1120 590 1120 590 1155 725 c 1,57,58
 1128 700 1128 700 1097.5 678.5 c 128,-1,59
 1067 657 1067 657 1034 645 c 128,-1,60
 1001 633 1001 633 966.5 636 c 128,-1,61
 932 639 932 639 899 666 c 0,62,63
 870 690 870 690 865 728 c 128,-1,64
 860 766 860 766 872.5 800 c 128,-1,65
 885 834 885 834 913.5 852 c 128,-1,66
 942 870 942 870 983 856 c 0,67,68
 1020 846 1020 846 1037.5 816 c 128,-1,69
 1055 786 1055 786 1055 752 c 1,70,71
 1049 735 1049 735 1040.5 717.5 c 128,-1,72
 1032 700 1032 700 1053 694 c 0,73,74
 1075 688 1075 688 1102.5 707.5 c 128,-1,75
 1130 727 1130 727 1154 751.5 c 128,-1,76
 1178 776 1178 776 1209 825 c 1,77,-1
 1239 825 l 1,78,-1
 1061 199 l 1,53,-1
70 1491 m 1,79,-1
 70 1651 l 1,80,-1
 838 1651 l 1,81,-1
 838 1622 l 1,82,-1
 100 1622 l 1,83,-1
 100 1491 l 1,84,-1
 70 1491 l 1,79,-1
983 1622 m 1,85,-1
 983 1636 l 1,86,87
 1006 1640 1006 1640 1017 1644.5 c 128,-1,88
 1028 1649 1028 1649 1038 1659 c 0,89,90
 1047 1669 1047 1669 1056 1683.5 c 128,-1,91
 1065 1698 1065 1698 1065 1710 c 0,92,93
 1065 1751 1065 1751 1014 1751 c 0,94,95
 993 1751 993 1751 980 1738.5 c 128,-1,96
 967 1726 967 1726 950 1702 c 1,97,-1
 936 1702 l 1,98,99
 944 1724 944 1724 949 1733.5 c 128,-1,100
 954 1743 954 1743 965 1751 c 0,101,102
 993 1774 993 1774 1022 1774 c 0,103,104
 1053 1774 1053 1774 1074.5 1757.5 c 128,-1,105
 1096 1741 1096 1741 1096 1712 c 0,106,107
 1096 1694 1096 1694 1086.5 1676.5 c 128,-1,108
 1077 1659 1077 1659 1055 1642 c 1,109,110
 1071 1636 1071 1636 1074 1633 c 128,-1,111
 1077 1630 1077 1630 1085 1624 c 0,112,113
 1094 1612 1094 1612 1099 1602.5 c 128,-1,114
 1104 1593 1104 1593 1104 1575 c 0,115,116
 1104 1524 1104 1524 1069 1501 c 0,117,118
 1034 1477 1034 1477 985 1477 c 256,119,120
 936 1477 936 1477 936 1499 c 0,121,122
 936 1509 936 1509 952 1509 c 0,123,124
 958 1509 958 1509 963.5 1508 c 128,-1,125
 969 1507 969 1507 979 1503 c 0,126,127
 999 1491 999 1491 1020 1497 c 0,128,129
 1042 1505 1042 1505 1054.5 1514.5 c 128,-1,130
 1067 1524 1067 1524 1071 1552 c 0,131,132
 1073 1575 1073 1575 1061 1593.5 c 128,-1,133
 1049 1612 1049 1612 1028 1620 c 0,134,135
 1026 1622 1026 1622 1010 1622 c 2,136,-1
 983 1622 l 1,85,-1
EndSplineSet
Validated: 33
EndChar

StartChar: Ograve
Encoding: 210 210 97
Width: 2048
VWidth: 2047
Flags: W
LayerCount: 2
Fore
SplineSet
1948 1491 m 1,0,-1
 1948 1628 l 1,1,-1
 1186 1628 l 1,2,-1
 1186 1657 l 1,3,-1
 1980 1657 l 1,4,-1
 1980 1491 l 1,5,-1
 1948 1491 l 1,0,-1
201 369 m 1,6,-1
 147 369 l 1,7,-1
 295 897 l 1,8,9
 268 872 268 872 237.5 849.5 c 128,-1,10
 207 827 207 827 174 816 c 128,-1,11
 141 805 141 805 106.5 808 c 128,-1,12
 72 811 72 811 39 840 c 0,13,14
 3 875 3 875 3 911 c 128,-1,15
 3 947 3 947 14 976.5 c 128,-1,16
 25 1006 25 1006 53.5 1024 c 128,-1,17
 82 1042 82 1042 123 1028 c 0,18,19
 158 1018 158 1018 174 988 c 128,-1,20
 190 958 190 958 190 924 c 0,21,22
 190 915 190 915 186 906 c 128,-1,23
 182 897 182 897 179 890 c 128,-1,24
 176 883 176 883 177 876.5 c 128,-1,25
 178 870 178 870 188 868 c 0,26,27
 213 862 213 862 240.5 880.5 c 128,-1,28
 268 899 268 899 292.5 924.5 c 128,-1,29
 317 950 317 950 349 993 c 1,30,-1
 375 993 l 1,31,32
 375 989 375 989 362.5 948 c 128,-1,33
 350 907 350 907 329.5 833.5 c 128,-1,34
 309 760 309 760 285.5 678 c 128,-1,35
 262 596 262 596 239.5 513 c 128,-1,36
 217 430 217 430 201 369 c 1,6,-1
1765 369 m 1,37,-1
 1716 369 l 1,38,39
 1751 504 1751 504 1787 633 c 128,-1,40
 1823 762 1823 762 1860 897 c 1,41,42
 1833 872 1833 872 1802.5 849.5 c 128,-1,43
 1772 827 1772 827 1739 816 c 128,-1,44
 1706 805 1706 805 1671 808 c 128,-1,45
 1636 811 1636 811 1604 840 c 0,46,47
 1575 864 1575 864 1570 902 c 128,-1,48
 1565 940 1565 940 1578 973 c 128,-1,49
 1591 1006 1591 1006 1620 1024 c 128,-1,50
 1649 1042 1649 1042 1690 1028 c 0,51,52
 1724 1018 1724 1018 1740.5 988 c 128,-1,53
 1757 958 1757 958 1757 924 c 0,54,55
 1755 907 1755 907 1746 889.5 c 128,-1,56
 1737 872 1737 872 1755 868 c 0,57,58
 1778 862 1778 862 1806.5 880.5 c 128,-1,59
 1835 899 1835 899 1859.5 924.5 c 128,-1,60
 1884 950 1884 950 1916 993 c 1,61,-1
 1944 993 l 1,62,63
 1944 989 1944 989 1931.5 948 c 128,-1,64
 1919 907 1919 907 1897.5 833.5 c 128,-1,65
 1876 760 1876 760 1852.5 678 c 128,-1,66
 1829 596 1829 596 1805.5 513 c 128,-1,67
 1782 430 1782 430 1765 369 c 1,37,-1
1016 1434 m 1,68,69
 1020 1395 1020 1395 1029 1361 c 128,-1,70
 1038 1327 1038 1327 1049 1300 c 0,71,72
 1071 1241 1071 1241 1096 1204 c 2,73,-1
 1128 1157 l 1,74,-1
 1178 1102 l 1,75,-1
 1268 995 l 2,76,77
 1321 930 1321 930 1345.5 859 c 128,-1,78
 1370 788 1370 788 1370 717 c 0,79,80
 1370 682 1370 682 1365 640 c 128,-1,81
 1360 598 1360 598 1339 553 c 0,82,83
 1323 518 1323 518 1315 494.5 c 128,-1,84
 1307 471 1307 471 1290 442 c 1,85,-1
 1260 440 l 1,86,-1
 1294 530 l 2,87,88
 1300 549 1300 549 1306.5 567.5 c 128,-1,89
 1313 586 1313 586 1317 608 c 2,90,-1
 1325 666 l 1,91,-1
 1325 690 l 1,92,-1
 1325 729 l 2,93,94
 1323 737 1323 737 1321 745.5 c 128,-1,95
 1319 754 1319 754 1319 764 c 0,96,97
 1317 770 1317 770 1313 782.5 c 128,-1,98
 1309 795 1309 795 1303 811 c 0,99,100
 1282 870 1282 870 1233 924 c 1,101,102
 1188 981 1188 981 1133 1010 c 0,103,104
 1106 1028 1106 1028 1073 1038.5 c 128,-1,105
 1040 1049 1040 1049 1016 1049 c 1,106,-1
 1016 236 l 2,107,108
 1016 168 1016 168 973 113 c 0,109,110
 956 88 956 88 929.5 68.5 c 128,-1,111
 903 49 903 49 868 31 c 0,112,113
 834 16 834 16 801 8 c 128,-1,114
 768 0 768 0 735 0 c 0,115,116
 705 0 705 0 679 8 c 128,-1,117
 653 16 653 16 633 31 c 0,118,119
 590 68 590 68 590 125 c 0,120,121
 590 188 590 188 631 242 c 0,122,123
 674 293 674 293 737 326 c 0,124,125
 772 342 772 342 804 349 c 128,-1,126
 836 356 836 356 862 356 c 0,127,128
 942 356 942 356 983 326 c 1,129,-1
 983 1059 l 1,130,-1
 983 1434 l 1,131,-1
 1016 1434 l 1,68,69
68 1491 m 1,132,-1
 68 1657 l 1,133,-1
 838 1657 l 1,134,-1
 838 1628 l 1,135,-1
 100 1628 l 1,136,-1
 100 1491 l 1,137,-1
 68 1491 l 1,132,-1
956 1628 m 1,138,-1
 956 1642 l 1,139,140
 979 1647 979 1647 990 1651 c 128,-1,141
 1001 1655 1001 1655 1012 1665 c 0,142,143
 1020 1675 1020 1675 1029 1689.5 c 128,-1,144
 1038 1704 1038 1704 1038 1716 c 0,145,146
 1038 1757 1038 1757 987 1757 c 0,147,148
 967 1757 967 1757 953.5 1745 c 128,-1,149
 940 1733 940 1733 924 1708 c 1,150,-1
 909 1708 l 1,151,152
 918 1731 918 1731 923 1740 c 128,-1,153
 928 1749 928 1749 938 1757 c 0,154,155
 967 1780 967 1780 995 1780 c 0,156,157
 1026 1780 1026 1780 1047.5 1763.5 c 128,-1,158
 1069 1747 1069 1747 1069 1718 c 0,159,160
 1069 1700 1069 1700 1060 1682.5 c 128,-1,161
 1051 1665 1051 1665 1028 1649 c 1,162,163
 1044 1642 1044 1642 1047.5 1639 c 128,-1,164
 1051 1636 1051 1636 1059 1630 c 0,165,166
 1067 1618 1067 1618 1072 1608.5 c 128,-1,167
 1077 1599 1077 1599 1077 1581 c 0,168,169
 1077 1530 1077 1530 1042 1507 c 0,170,171
 1008 1483 1008 1483 958 1483 c 0,172,173
 909 1483 909 1483 909 1505 c 0,174,175
 909 1516 909 1516 926 1516 c 0,176,177
 932 1516 932 1516 937 1514.5 c 128,-1,178
 942 1513 942 1513 952 1509 c 0,179,180
 973 1497 973 1497 993 1503 c 0,181,182
 1016 1511 1016 1511 1028 1520.5 c 128,-1,183
 1040 1530 1040 1530 1044 1559 c 0,184,185
 1047 1581 1047 1581 1034.5 1599.5 c 128,-1,186
 1022 1618 1022 1618 1001 1626 c 0,187,188
 999 1628 999 1628 983 1628 c 2,189,-1
 956 1628 l 1,138,-1
EndSplineSet
Validated: 33
EndChar

StartChar: Oacute
Encoding: 211 211 98
Width: 2048
VWidth: 2047
Flags: W
LayerCount: 2
Fore
SplineSet
1163 229 m 2,0,1
 1163 178 1163 178 1122 119 c 0,2,3
 1079 59 1079 59 1011.5 29.5 c 128,-1,4
 944 0 944 0 879 0 c 0,5,6
 852 0 852 0 825.5 8 c 128,-1,7
 799 16 799 16 776 31 c 1,8,9
 737 68 737 68 737 121 c 0,10,11
 737 154 737 154 745.5 180.5 c 128,-1,12
 754 207 754 207 776 233 c 0,13,14
 823 289 823 289 891 326 c 0,15,16
 926 342 926 342 957.5 349 c 128,-1,17
 989 356 989 356 1018 356 c 0,18,19
 1077 356 1077 356 1128 324 c 1,20,-1
 1128 1292 l 1,21,-1
 426 1292 l 1,22,-1
 426 229 l 2,23,24
 426 201 426 201 417 173 c 128,-1,25
 408 145 408 145 385 119 c 0,26,27
 342 59 342 59 274.5 29.5 c 128,-1,28
 207 0 207 0 145 0 c 0,29,30
 117 0 117 0 91.5 8 c 128,-1,31
 66 16 66 16 43 31 c 1,32,33
 0 70 0 70 0 121 c 0,34,35
 0 180 0 180 43 233 c 0,36,37
 66 260 66 260 94.5 282.5 c 128,-1,38
 123 305 123 305 156 326 c 1,39,40
 193 342 193 342 223.5 349 c 128,-1,41
 254 356 254 356 283 356 c 0,42,43
 340 356 340 356 391 324 c 1,44,-1
 391 1432 l 1,45,-1
 1163 1432 l 1,46,-1
 1163 229 l 2,0,1
1939 1491 m 1,47,-1
 1939 1622 l 1,48,-1
 1214 1622 l 1,49,-1
 1214 1651 l 1,50,-1
 1970 1651 l 1,51,-1
 1970 1491 l 1,52,-1
 1939 1491 l 1,47,-1
1755 365 m 1,53,-1
 1702 365 l 1,54,55
 1741 494 1741 494 1778 626 c 128,-1,56
 1815 758 1815 758 1851 889 c 1,57,58
 1823 866 1823 866 1792 844.5 c 128,-1,59
 1761 823 1761 823 1728.5 811 c 128,-1,60
 1696 799 1696 799 1662 802 c 128,-1,61
 1628 805 1628 805 1595 831 c 0,62,63
 1567 856 1567 856 1561.5 894 c 128,-1,64
 1556 932 1556 932 1568.5 964.5 c 128,-1,65
 1581 997 1581 997 1608.5 1016.5 c 128,-1,66
 1636 1036 1636 1036 1677 1022 c 0,67,68
 1714 1012 1714 1012 1731.5 983 c 128,-1,69
 1749 954 1749 954 1749 920 c 1,70,71
 1745 899 1745 899 1737 881.5 c 128,-1,72
 1729 864 1729 864 1747 860 c 0,73,74
 1767 854 1767 854 1795 873.5 c 128,-1,75
 1823 893 1823 893 1847.5 917.5 c 128,-1,76
 1872 942 1872 942 1904 987 c 1,77,-1
 1933 987 l 1,78,79
 1933 983 1933 983 1921 942 c 128,-1,80
 1909 901 1909 901 1888.5 827.5 c 128,-1,81
 1868 754 1868 754 1844.5 673 c 128,-1,82
 1821 592 1821 592 1797.5 509 c 128,-1,83
 1774 426 1774 426 1755 365 c 1,53,-1
72 1491 m 1,84,-1
 72 1651 l 1,85,-1
 844 1651 l 1,86,-1
 844 1622 l 1,87,-1
 102 1622 l 1,88,-1
 102 1491 l 1,89,-1
 72 1491 l 1,84,-1
997 1630 m 1,90,-1
 997 1645 l 1,91,92
 1020 1649 1020 1649 1031 1653 c 128,-1,93
 1042 1657 1042 1657 1053 1667 c 0,94,95
 1061 1677 1061 1677 1070 1691.5 c 128,-1,96
 1079 1706 1079 1706 1079 1718 c 0,97,98
 1079 1759 1079 1759 1028 1759 c 0,99,100
 1008 1759 1008 1759 994.5 1747 c 128,-1,101
 981 1735 981 1735 965 1710 c 1,102,-1
 950 1710 l 1,103,104
 958 1733 958 1733 963.5 1742 c 128,-1,105
 969 1751 969 1751 979 1759 c 0,106,107
 1008 1782 1008 1782 1036 1782 c 0,108,109
 1067 1782 1067 1782 1088.5 1765.5 c 128,-1,110
 1110 1749 1110 1749 1110 1720 c 0,111,112
 1110 1702 1110 1702 1101 1684.5 c 128,-1,113
 1092 1667 1092 1667 1069 1651 c 1,114,115
 1085 1645 1085 1645 1088.5 1641.5 c 128,-1,116
 1092 1638 1092 1638 1100 1632 c 0,117,118
 1108 1620 1108 1620 1113 1611 c 128,-1,119
 1118 1602 1118 1602 1118 1583 c 0,120,121
 1118 1532 1118 1532 1083 1509 c 0,122,123
 1049 1485 1049 1485 999 1485 c 0,124,125
 950 1485 950 1485 950 1507 c 0,126,127
 950 1518 950 1518 967 1518 c 0,128,129
 973 1518 973 1518 978 1517 c 128,-1,130
 983 1516 983 1516 993 1511 c 0,131,132
 1014 1499 1014 1499 1034 1505 c 0,133,134
 1057 1513 1057 1513 1069 1522.5 c 128,-1,135
 1081 1532 1081 1532 1085 1561 c 0,136,137
 1087 1583 1087 1583 1075 1601.5 c 128,-1,138
 1063 1620 1063 1620 1042 1628 c 0,139,140
 1040 1630 1040 1630 1024 1630 c 2,141,-1
 997 1630 l 1,90,-1
EndSplineSet
Validated: 33
EndChar

StartChar: Ocircumflex
Encoding: 212 212 99
Width: 2048
VWidth: 2047
Flags: W
LayerCount: 2
Fore
SplineSet
1935 1479 m 1,0,-1
 1935 1622 l 1,1,-1
 1223 1622 l 1,2,-1
 1223 1653 l 1,3,-1
 1968 1653 l 1,4,-1
 1968 1479 l 1,5,-1
 1935 1479 l 1,0,-1
1153 379 m 1,6,-1
 1104 379 l 1,7,8
 1141 514 1141 514 1176.5 642 c 128,-1,9
 1212 770 1212 770 1249 905 c 1,10,11
 1223 883 1223 883 1192 860.5 c 128,-1,12
 1161 838 1161 838 1128.5 825.5 c 128,-1,13
 1096 813 1096 813 1062 816 c 128,-1,14
 1028 819 1028 819 993 848 c 0,15,16
 965 872 965 872 959.5 910 c 128,-1,17
 954 948 954 948 967.5 980 c 128,-1,18
 981 1012 981 1012 1009.5 1030.5 c 128,-1,19
 1038 1049 1038 1049 1077 1034 c 0,20,21
 1114 1024 1114 1024 1130.5 996.5 c 128,-1,22
 1147 969 1147 969 1147 934 c 1,23,24
 1143 913 1143 913 1133.5 898 c 128,-1,25
 1124 883 1124 883 1145 879 c 0,26,27
 1167 872 1167 872 1196 890.5 c 128,-1,28
 1225 909 1225 909 1249.5 933.5 c 128,-1,29
 1274 958 1274 958 1306 1001 c 1,30,-1
 1331 1001 l 1,31,32
 1331 997 1331 997 1319 956 c 128,-1,33
 1307 915 1307 915 1285.5 841.5 c 128,-1,34
 1264 768 1264 768 1240.5 687 c 128,-1,35
 1217 606 1217 606 1193 523 c 128,-1,36
 1169 440 1169 440 1153 379 c 1,6,-1
1765 377 m 1,37,-1
 1716 377 l 1,38,39
 1753 512 1753 512 1790 640 c 128,-1,40
 1827 768 1827 768 1864 903 c 1,41,42
 1835 881 1835 881 1805.5 858.5 c 128,-1,43
 1776 836 1776 836 1743 823.5 c 128,-1,44
 1710 811 1710 811 1676 814 c 128,-1,45
 1642 817 1642 817 1608 846 c 0,46,47
 1579 870 1579 870 1574 907 c 128,-1,48
 1569 944 1569 944 1581 977 c 128,-1,49
 1593 1010 1593 1010 1622 1028.5 c 128,-1,50
 1651 1047 1651 1047 1692 1032 c 0,51,52
 1726 1022 1726 1022 1743.5 994.5 c 128,-1,53
 1761 967 1761 967 1761 932 c 1,54,55
 1757 911 1757 911 1747 896 c 128,-1,56
 1737 881 1737 881 1757 877 c 0,57,58
 1780 870 1780 870 1807.5 888.5 c 128,-1,59
 1835 907 1835 907 1859.5 931.5 c 128,-1,60
 1884 956 1884 956 1918 999 c 1,61,-1
 1944 999 l 1,62,63
 1944 995 1944 995 1931.5 954 c 128,-1,64
 1919 913 1919 913 1898.5 839.5 c 128,-1,65
 1878 766 1878 766 1854.5 685 c 128,-1,66
 1831 604 1831 604 1807.5 521 c 128,-1,67
 1784 438 1784 438 1765 377 c 1,37,-1
424 1427 m 1,68,69
 428 1391 428 1391 436 1356 c 128,-1,70
 444 1321 444 1321 457 1292 c 0,71,72
 465 1266 465 1266 476 1242.5 c 128,-1,73
 487 1219 487 1219 502 1196 c 1,74,-1
 539 1155 l 1,75,-1
 586 1094 l 1,76,-1
 674 989 l 1,77,78
 778 856 778 856 778 715 c 0,79,80
 778 678 778 678 772 637 c 128,-1,81
 766 596 766 596 748 551 c 0,82,83
 733 516 733 516 724 491.5 c 128,-1,84
 715 467 715 467 698 438 c 1,85,-1
 666 438 l 1,86,-1
 700 528 l 2,87,88
 709 549 709 549 714 567.5 c 128,-1,89
 719 586 719 586 723 604 c 2,90,-1
 733 662 l 1,91,-1
 733 684 l 1,92,-1
 733 727 l 1,93,94
 727 741 727 741 727 760 c 1,95,96
 721 774 721 774 709 809 c 0,97,98
 696 840 696 840 680 867.5 c 128,-1,99
 664 895 664 895 639 922 c 0,100,101
 596 977 596 977 541 1006 c 0,102,103
 512 1022 512 1022 480.5 1032 c 128,-1,104
 449 1042 449 1042 424 1042 c 1,105,-1
 424 233 l 2,106,107
 424 168 424 168 383 115 c 0,108,109
 346 63 346 63 276 33 c 1,110,111
 213 0 213 0 145 0 c 0,112,113
 82 0 82 0 43 33 c 1,114,115
 0 59 0 59 0 125 c 0,116,117
 0 188 0 188 39 240 c 0,118,119
 80 295 80 295 147.5 326.5 c 128,-1,120
 215 358 215 358 268 358 c 0,121,122
 354 358 354 358 389 324 c 1,123,-1
 389 1055 l 1,124,-1
 389 1427 l 1,125,-1
 424 1427 l 1,68,69
76 1479 m 1,126,-1
 76 1653 l 1,127,-1
 874 1653 l 1,128,-1
 874 1622 l 1,129,-1
 109 1622 l 1,130,-1
 109 1479 l 1,131,-1
 76 1479 l 1,126,-1
1028 1622 m 1,132,-1
 1028 1636 l 1,133,134
 1051 1640 1051 1640 1062 1644.5 c 128,-1,135
 1073 1649 1073 1649 1083 1659 c 0,136,137
 1092 1669 1092 1669 1101 1683.5 c 128,-1,138
 1110 1698 1110 1698 1110 1710 c 0,139,140
 1110 1751 1110 1751 1059 1751 c 0,141,142
 1038 1751 1038 1751 1025 1738.5 c 128,-1,143
 1012 1726 1012 1726 995 1702 c 1,144,-1
 981 1702 l 1,145,146
 989 1724 989 1724 994 1733.5 c 128,-1,147
 999 1743 999 1743 1010 1751 c 0,148,149
 1038 1774 1038 1774 1067 1774 c 0,150,151
 1098 1774 1098 1774 1119.5 1757.5 c 128,-1,152
 1141 1741 1141 1741 1141 1712 c 0,153,154
 1141 1694 1141 1694 1131.5 1676.5 c 128,-1,155
 1122 1659 1122 1659 1100 1642 c 1,156,157
 1116 1636 1116 1636 1119 1633 c 128,-1,158
 1122 1630 1122 1630 1130 1624 c 0,159,160
 1139 1612 1139 1612 1144 1602.5 c 128,-1,161
 1149 1593 1149 1593 1149 1575 c 0,162,163
 1149 1524 1149 1524 1114 1501 c 0,164,165
 1079 1477 1079 1477 1030 1477 c 256,166,167
 981 1477 981 1477 981 1499 c 0,168,169
 981 1509 981 1509 997 1509 c 0,170,171
 1004 1509 1004 1509 1009 1508 c 128,-1,172
 1014 1507 1014 1507 1024 1503 c 0,173,174
 1044 1491 1044 1491 1065 1497 c 0,175,176
 1087 1505 1087 1505 1099.5 1514.5 c 128,-1,177
 1112 1524 1112 1524 1116 1552 c 0,178,179
 1118 1575 1118 1575 1106 1593.5 c 128,-1,180
 1094 1612 1094 1612 1073 1620 c 0,181,182
 1071 1622 1071 1622 1055 1622 c 2,183,-1
 1028 1622 l 1,132,-1
EndSplineSet
Validated: 33
EndChar

StartChar: Otilde
Encoding: 213 213 100
Width: 2048
VWidth: 2047
Flags: W
LayerCount: 2
Fore
SplineSet
1024 1432 m 1,0,-1
 1868 1432 l 1,1,-1
 1868 231 l 2,2,3
 1868 203 1868 203 1856.5 174 c 128,-1,4
 1845 145 1845 145 1827 119 c 0,5,6
 1782 59 1782 59 1713.5 29.5 c 128,-1,7
 1645 0 1645 0 1583 0 c 0,8,9
 1554 0 1554 0 1529.5 8 c 128,-1,10
 1505 16 1505 16 1481 31 c 1,11,12
 1438 70 1438 70 1438 121 c 0,13,14
 1438 180 1438 180 1481 233 c 0,15,16
 1505 260 1505 260 1533 283.5 c 128,-1,17
 1561 307 1561 307 1597 326 c 0,18,19
 1632 342 1632 342 1663 349 c 128,-1,20
 1694 356 1694 356 1724 356 c 0,21,22
 1782 356 1782 356 1833 324 c 1,23,-1
 1833 1290 l 1,24,-1
 1059 1290 l 1,25,-1
 1059 229 l 2,26,27
 1059 201 1059 201 1050.5 173 c 128,-1,28
 1042 145 1042 145 1020 119 c 0,29,30
 977 59 977 59 908.5 29.5 c 128,-1,31
 840 0 840 0 778 0 c 0,32,33
 725 0 725 0 680 31 c 1,34,35
 635 70 635 70 635 121 c 0,36,37
 635 182 635 182 680 233 c 1,38,39
 717 285 717 285 788 326 c 1,40,41
 825 342 825 342 856 349 c 128,-1,42
 887 356 887 356 915 356 c 0,43,44
 979 356 979 356 1024 324 c 1,45,-1
 1024 1292 l 1,46,-1
 1024 1432 l 1,0,-1
1942 1491 m 1,47,-1
 1942 1622 l 1,48,-1
 1198 1622 l 1,49,-1
 1198 1651 l 1,50,-1
 1974 1651 l 1,51,-1
 1974 1491 l 1,52,-1
 1942 1491 l 1,47,-1
197 334 m 1,53,-1
 150 334 l 1,54,55
 184 469 184 469 220 598 c 128,-1,56
 256 727 256 727 295 862 c 1,57,58
 268 840 268 840 236.5 818.5 c 128,-1,59
 205 797 205 797 171 784.5 c 128,-1,60
 137 772 137 772 103.5 775 c 128,-1,61
 70 778 70 778 37 807 c 0,62,63
 2 834 2 834 2 871.5 c 128,-1,64
 2 909 2 909 13.5 939 c 128,-1,65
 25 969 25 969 53.5 989.5 c 128,-1,66
 82 1010 82 1010 123 995 c 0,67,68
 193 969 193 969 193 887 c 1,69,70
 188 870 188 870 179 855 c 128,-1,71
 170 840 170 840 188 834 c 0,72,73
 211 827 211 827 239.5 846.5 c 128,-1,74
 268 866 268 866 292.5 892 c 128,-1,75
 317 918 317 918 350 961 c 1,76,-1
 375 961 l 1,77,78
 356 897 356 897 342 845 c 128,-1,79
 328 793 328 793 309.5 726 c 128,-1,80
 291 659 291 659 271.5 589.5 c 128,-1,81
 252 520 252 520 232.5 452.5 c 128,-1,82
 213 385 213 385 197 334 c 1,53,-1
55 1491 m 1,83,-1
 55 1651 l 1,84,-1
 866 1651 l 1,85,-1
 866 1622 l 1,86,-1
 88 1622 l 1,87,-1
 88 1491 l 1,88,-1
 55 1491 l 1,83,-1
993 1624 m 1,89,-1
 993 1638 l 1,90,91
 1016 1642 1016 1642 1027 1646.5 c 128,-1,92
 1038 1651 1038 1651 1049 1661 c 0,93,94
 1057 1671 1057 1671 1066 1685.5 c 128,-1,95
 1075 1700 1075 1700 1075 1712 c 0,96,97
 1075 1753 1075 1753 1024 1753 c 0,98,99
 1004 1753 1004 1753 990.5 1741 c 128,-1,100
 977 1729 977 1729 961 1704 c 1,101,-1
 946 1704 l 1,102,103
 954 1726 954 1726 959.5 1735.5 c 128,-1,104
 965 1745 965 1745 975 1753 c 0,105,106
 1004 1776 1004 1776 1032 1776 c 0,107,108
 1063 1776 1063 1776 1084.5 1759.5 c 128,-1,109
 1106 1743 1106 1743 1106 1714 c 0,110,111
 1106 1696 1106 1696 1096.5 1678.5 c 128,-1,112
 1087 1661 1087 1661 1065 1645 c 1,113,114
 1081 1638 1081 1638 1084 1635 c 128,-1,115
 1087 1632 1087 1632 1096 1626 c 1,116,117
 1104 1614 1104 1614 1109 1604.5 c 128,-1,118
 1114 1595 1114 1595 1114 1577 c 0,119,120
 1114 1526 1114 1526 1079 1503 c 0,121,122
 1044 1479 1044 1479 995 1479 c 256,123,124
 946 1479 946 1479 946 1501 c 0,125,126
 946 1511 946 1511 963 1511 c 0,127,128
 969 1511 969 1511 974 1510 c 128,-1,129
 979 1509 979 1509 989 1505 c 0,130,131
 1010 1493 1010 1493 1030 1499 c 0,132,133
 1053 1507 1053 1507 1065 1516.5 c 128,-1,134
 1077 1526 1077 1526 1081 1554 c 0,135,136
 1083 1577 1083 1577 1071 1595.5 c 128,-1,137
 1059 1614 1059 1614 1038 1622 c 0,138,139
 1036 1624 1036 1624 1020 1624 c 2,140,-1
 993 1624 l 1,89,-1
EndSplineSet
Validated: 33
EndChar

StartChar: Odieresis
Encoding: 214 214 101
Width: 1024
VWidth: 2047
Flags: W
LayerCount: 2
Fore
SplineSet
213 256 m 1,0,-1
 381 424 l 1,1,-1
 381 1434 l 1,2,-1
 424 1434 l 1,3,-1
 424 381 l 1,4,-1
 256 213 l 1,5,-1
 424 43 l 1,6,-1
 381 0 l 1,7,-1
 213 170 l 1,8,-1
 43 0 l 1,9,-1
 0 43 l 1,10,-1
 170 213 l 1,11,-1
 0 381 l 1,12,-1
 43 424 l 1,13,-1
 213 256 l 1,0,-1
698 219 m 256,14,15
 698 188 698 188 676.5 165.5 c 128,-1,16
 655 143 655 143 625 143 c 0,17,18
 594 143 594 143 572.5 165.5 c 128,-1,19
 551 188 551 188 551 219 c 256,20,21
 551 250 551 250 572.5 271.5 c 128,-1,22
 594 293 594 293 625 293 c 0,23,24
 655 293 655 293 676.5 271.5 c 128,-1,25
 698 250 698 250 698 219 c 256,14,15
EndSplineSet
Validated: 1
EndChar

StartChar: multiply
Encoding: 215 215 102
Width: 1024
VWidth: 2047
Flags: W
LayerCount: 2
Fore
SplineSet
383 635 m 1,0,-1
 426 592 l 1,1,-1
 256 422 l 1,2,-1
 426 252 l 1,3,-1
 383 209 l 1,4,-1
 213 379 l 1,5,-1
 43 209 l 1,6,-1
 0 252 l 1,7,-1
 170 422 l 1,8,-1
 0 592 l 1,9,-1
 43 635 l 1,10,-1
 213 465 l 1,11,-1
 383 635 l 1,0,-1
EndSplineSet
Validated: 1
EndChar

StartChar: Oslash
Encoding: 216 216 103
Width: 1024
VWidth: 2047
Flags: W
LayerCount: 2
Fore
SplineSet
379 301 m 1,0,-1
 266 190 l 1,1,-1
 379 78 l 1,2,-1
 301 0 l 1,3,-1
 190 113 l 1,4,-1
 78 0 l 1,5,-1
 0 78 l 1,6,-1
 113 190 l 1,7,-1
 0 301 l 1,8,-1
 78 379 l 1,9,-1
 190 266 l 1,10,-1
 301 379 l 1,11,-1
 340 338 l 1,12,-1
 340 1434 l 1,13,-1
 379 1434 l 1,14,-1
 379 301 l 1,0,-1
301 340 m 1,15,-1
 190 229 l 1,16,-1
 78 340 l 1,17,-1
 39 301 l 1,18,-1
 152 190 l 1,19,-1
 39 78 l 1,20,-1
 78 39 l 1,21,-1
 190 152 l 1,22,-1
 301 39 l 1,23,-1
 340 78 l 1,24,-1
 229 190 l 1,25,-1
 340 301 l 1,26,-1
 301 340 l 1,15,-1
604 188 m 0,27,28
 604 160 604 160 585.5 140.5 c 128,-1,29
 567 121 567 121 539 121 c 0,30,31
 512 121 512 121 493.5 140.5 c 128,-1,32
 475 160 475 160 475 188 c 0,33,34
 475 215 475 215 493.5 233.5 c 128,-1,35
 512 252 512 252 539 252 c 0,36,37
 567 252 567 252 585.5 233.5 c 128,-1,38
 604 215 604 215 604 188 c 0,27,28
EndSplineSet
Validated: 1
EndChar

StartChar: Ugrave
Encoding: 217 217 104
Width: 2048
VWidth: 2047
Flags: W
LayerCount: 2
Fore
SplineSet
381 1311 m 1,0,-1
 381 1434 l 1,1,-1
 1872 1434 l 1,2,-1
 1872 383 l 1,3,-1
 1702 213 l 1,4,-1
 1872 43 l 1,5,-1
 1829 0 l 1,6,-1
 1659 170 l 1,7,-1
 1491 0 l 1,8,-1
 1448 43 l 1,9,-1
 1618 213 l 1,10,-1
 1448 383 l 1,11,-1
 1491 424 l 1,12,-1
 1659 256 l 1,13,-1
 1829 424 l 1,14,-1
 1829 993 l 1,15,-1
 1458 993 l 1,16,-1
 1458 1116 l 1,17,-1
 1829 1116 l 1,18,-1
 1829 1311 l 1,19,-1
 424 1311 l 1,20,-1
 424 383 l 1,21,-1
 254 213 l 1,22,-1
 424 43 l 1,23,-1
 381 0 l 1,24,-1
 213 170 l 1,25,-1
 43 0 l 1,26,-1
 0 43 l 1,27,-1
 170 213 l 1,28,-1
 0 383 l 1,29,-1
 43 424 l 1,30,-1
 213 256 l 1,31,-1
 381 424 l 1,32,-1
 381 1311 l 1,0,-1
633 190 m 0,33,34
 633 166 633 166 615.5 147.5 c 128,-1,35
 598 129 598 129 571 129 c 0,36,37
 545 129 545 129 526.5 147.5 c 128,-1,38
 508 166 508 166 508 190 c 0,39,40
 508 217 508 217 526.5 235.5 c 128,-1,41
 545 254 545 254 571 254 c 0,42,43
 598 254 598 254 615.5 235.5 c 128,-1,44
 633 217 633 217 633 190 c 0,33,34
EndSplineSet
Validated: 1
EndChar

StartChar: Uacute
Encoding: 218 218 105
Width: 1024
VWidth: 2047
Flags: W
LayerCount: 2
Fore
SplineSet
383 424 m 1,0,-1
 383 1436 l 1,1,-1
 426 1436 l 1,2,-1
 426 381 l 1,3,-1
 256 211 l 1,4,-1
 426 41 l 1,5,-1
 383 0 l 1,6,-1
 213 168 l 1,7,-1
 43 0 l 1,8,-1
 0 41 l 1,9,-1
 170 211 l 1,10,-1
 0 381 l 1,11,-1
 43 424 l 1,12,-1
 213 254 l 1,13,-1
 383 424 l 1,0,-1
EndSplineSet
Validated: 1
EndChar

StartChar: Ucircumflex
Encoding: 219 219 106
Width: 1024
VWidth: 2047
Flags: W
LayerCount: 2
Fore
SplineSet
305 217 m 1,0,-1
 432 88 l 1,1,-1
 344 0 l 1,2,-1
 217 129 l 1,3,-1
 88 0 l 1,4,-1
 0 88 l 1,5,-1
 129 217 l 1,6,-1
 0 344 l 1,7,-1
 88 432 l 1,8,-1
 217 305 l 1,9,-1
 344 432 l 1,10,-1
 432 344 l 1,11,-1
 305 217 l 1,0,-1
217 262 m 1,12,-1
 88 389 l 1,13,-1
 45 344 l 1,14,-1
 174 217 l 1,15,-1
 45 88 l 1,16,-1
 88 45 l 1,17,-1
 217 174 l 1,18,-1
 344 45 l 1,19,-1
 389 88 l 1,20,-1
 262 217 l 1,21,-1
 389 344 l 1,22,-1
 344 389 l 1,23,-1
 217 262 l 1,12,-1
EndSplineSet
Validated: 1
EndChar

StartChar: Udieresis
Encoding: 220 220 107
Width: 1024
VWidth: 2047
Flags: W
LayerCount: 2
Fore
SplineSet
305 217 m 1,0,-1
 432 88 l 1,1,-1
 344 0 l 1,2,-1
 217 129 l 1,3,-1
 88 0 l 1,4,-1
 0 88 l 1,5,-1
 129 217 l 1,6,-1
 0 344 l 1,7,-1
 88 432 l 1,8,-1
 217 305 l 1,9,-1
 344 432 l 1,10,-1
 389 387 l 1,11,-1
 389 1638 l 1,12,-1
 432 1638 l 1,13,-1
 432 344 l 1,14,-1
 305 217 l 1,0,-1
217 262 m 1,15,-1
 88 389 l 1,16,-1
 45 344 l 1,17,-1
 174 217 l 1,18,-1
 45 88 l 1,19,-1
 88 45 l 1,20,-1
 217 174 l 1,21,-1
 344 45 l 1,22,-1
 389 88 l 1,23,-1
 262 217 l 1,24,-1
 389 344 l 1,25,-1
 344 389 l 1,26,-1
 217 262 l 1,15,-1
EndSplineSet
Validated: 1
EndChar

StartChar: Yacute
Encoding: 221 221 108
Width: 2048
VWidth: 2047
Flags: W
LayerCount: 2
Fore
SplineSet
57 1489 m 1,0,-1
 57 1651 l 1,1,-1
 829 1651 l 1,2,-1
 829 1622 l 1,3,-1
 88 1622 l 1,4,-1
 88 1489 l 1,5,-1
 57 1489 l 1,0,-1
1956 1489 m 1,6,-1
 1956 1622 l 1,7,-1
 1223 1622 l 1,8,-1
 1223 1651 l 1,9,-1
 1987 1651 l 1,10,-1
 1987 1489 l 1,11,-1
 1956 1489 l 1,6,-1
1946 975 m 1,12,13
 1905 928 1905 928 1877 890 c 128,-1,14
 1849 852 1849 852 1833 821 c 0,15,16
 1798 756 1798 756 1798 707 c 0,17,18
 1798 676 1798 676 1833 594 c 1,19,-1
 1878 526 l 2,20,21
 1882 522 1882 522 1886 515 c 128,-1,22
 1890 508 1890 508 1901 498 c 0,23,24
 1911 483 1911 483 1920 472 c 128,-1,25
 1929 461 1929 461 1939 446 c 1,26,-1
 1915 418 l 1,27,28
 1903 426 1903 426 1887.5 432 c 128,-1,29
 1872 438 1872 438 1855 446 c 1,30,31
 1833 451 1833 451 1819.5 454 c 128,-1,32
 1806 457 1806 457 1802 457 c 0,33,34
 1767 457 1767 457 1743 432 c 1,35,36
 1724 406 1724 406 1722 367 c 0,37,38
 1722 342 1722 342 1739 283 c 1,39,40
 1759 236 1759 236 1792 203 c 1,41,-1
 1776 174 l 1,42,43
 1729 207 1729 207 1694 237.5 c 128,-1,44
 1659 268 1659 268 1636 297 c 0,45,46
 1622 313 1622 313 1614 329.5 c 128,-1,47
 1606 346 1606 346 1595 365 c 0,48,49
 1581 391 1581 391 1581 430 c 0,50,51
 1581 485 1581 485 1618 520 c 0,52,53
 1657 553 1657 553 1712 553 c 0,54,55
 1761 553 1761 553 1823 516 c 1,56,-1
 1606 815 l 1,57,58
 1749 944 1749 944 1749 1053 c 0,59,60
 1749 1139 1749 1139 1657 1255 c 1,61,-1
 1718 1255 l 1,62,-1
 1946 975 l 1,12,13
1100 233 m 2,63,64
 1100 201 1100 201 1090.5 172 c 128,-1,65
 1081 143 1081 143 1059 117 c 0,66,67
 1018 63 1018 63 950.5 31.5 c 128,-1,68
 883 0 883 0 817 0 c 0,69,70
 766 0 766 0 719 35 c 0,71,72
 674 68 674 68 674 119 c 0,73,74
 674 178 674 178 719 236 c 0,75,76
 760 289 760 289 829 326 c 0,77,78
 864 344 864 344 897 351 c 128,-1,79
 930 358 930 358 956 358 c 0,80,81
 1016 358 1016 358 1065 322 c 1,82,-1
 1065 1432 l 1,83,-1
 1100 1432 l 1,84,-1
 1100 233 l 2,63,64
365 975 m 1,85,86
 324 928 324 928 296 890 c 128,-1,87
 268 852 268 852 250 821 c 0,88,89
 219 756 219 756 219 707 c 0,90,91
 219 659 219 659 254 594 c 1,92,-1
 297 526 l 2,93,94
 301 514 301 514 319 498 c 0,95,96
 330 483 330 483 339 472 c 128,-1,97
 348 461 348 461 358 446 c 1,98,-1
 336 418 l 1,99,-1
 279 446 l 1,100,101
 256 451 256 451 243.5 454 c 128,-1,102
 231 457 231 457 221 457 c 0,103,104
 182 457 182 457 162 432 c 0,105,106
 143 403 143 403 137 367 c 1,107,108
 137 326 137 326 156 283 c 0,109,110
 166 262 166 262 179.5 241.5 c 128,-1,111
 193 221 193 221 213 203 c 1,112,-1
 190 174 l 1,113,114
 145 207 145 207 112.5 237.5 c 128,-1,115
 80 268 80 268 57 297 c 0,116,117
 43 313 43 313 34 329.5 c 128,-1,118
 25 346 25 346 14 365 c 0,119,120
 0 391 0 391 0 430 c 0,121,122
 0 487 0 487 39 520 c 128,-1,123
 78 553 78 553 129 553 c 256,124,125
 180 553 180 553 242 516 c 1,126,-1
 25 815 l 1,127,128
 94 881 94 881 131 939 c 128,-1,129
 168 997 168 997 168 1053 c 0,130,131
 168 1096 168 1096 144.5 1146 c 128,-1,132
 121 1196 121 1196 78 1255 c 1,133,-1
 135 1255 l 1,134,-1
 365 975 l 1,85,86
979 1618 m 1,135,-1
 979 1632 l 1,136,137
 1001 1636 1001 1636 1012.5 1640.5 c 128,-1,138
 1024 1645 1024 1645 1034 1655 c 0,139,140
 1042 1665 1042 1665 1051.5 1679.5 c 128,-1,141
 1061 1694 1061 1694 1061 1706 c 0,142,143
 1061 1747 1061 1747 1010 1747 c 0,144,145
 989 1747 989 1747 976 1734.5 c 128,-1,146
 963 1722 963 1722 946 1698 c 1,147,-1
 932 1698 l 1,148,149
 940 1720 940 1720 945 1729.5 c 128,-1,150
 950 1739 950 1739 961 1747 c 0,151,152
 989 1769 989 1769 1018 1769 c 0,153,154
 1049 1769 1049 1769 1070.5 1753 c 128,-1,155
 1092 1737 1092 1737 1092 1708 c 0,156,157
 1092 1690 1092 1690 1082.5 1672.5 c 128,-1,158
 1073 1655 1073 1655 1051 1638 c 1,159,160
 1067 1632 1067 1632 1070 1629 c 128,-1,161
 1073 1626 1073 1626 1081 1620 c 0,162,163
 1090 1608 1090 1608 1095 1598.5 c 128,-1,164
 1100 1589 1100 1589 1100 1571 c 0,165,166
 1100 1520 1100 1520 1065 1497 c 0,167,168
 1030 1473 1030 1473 981 1473 c 256,169,170
 932 1473 932 1473 932 1495 c 0,171,172
 932 1505 932 1505 948 1505 c 0,173,174
 954 1505 954 1505 959.5 1504 c 128,-1,175
 965 1503 965 1503 975 1499 c 0,176,177
 995 1487 995 1487 1016 1493 c 0,178,179
 1038 1501 1038 1501 1050.5 1510.5 c 128,-1,180
 1063 1520 1063 1520 1067 1548 c 0,181,182
 1069 1571 1069 1571 1056.5 1589.5 c 128,-1,183
 1044 1608 1044 1608 1024 1616 c 0,184,185
 1022 1618 1022 1618 1006 1618 c 2,186,-1
 979 1618 l 1,135,-1
EndSplineSet
Validated: 1
EndChar

StartChar: Thorn
Encoding: 222 222 109
Width: 2048
VWidth: 2047
Flags: W
LayerCount: 2
Fore
SplineSet
426 233 m 2,0,1
 426 172 426 172 385 119 c 0,2,3
 344 59 344 59 276.5 29.5 c 128,-1,4
 209 0 209 0 145 0 c 0,5,6
 90 0 90 0 45 33 c 128,-1,7
 0 66 0 66 0 121 c 0,8,9
 0 178 0 178 45 236 c 0,10,11
 84 287 84 287 156 328 c 1,12,13
 225 358 225 358 283 358 c 0,14,15
 338 358 338 358 391 324 c 1,16,-1
 391 1432 l 1,17,-1
 426 1432 l 1,18,-1
 426 233 l 2,0,1
1858 233 m 2,19,20
 1858 172 1858 172 1817 119 c 0,21,22
 1772 59 1772 59 1705 29.5 c 128,-1,23
 1638 0 1638 0 1577 0 c 0,24,25
 1518 0 1518 0 1473 33 c 0,26,27
 1430 66 1430 66 1430 121 c 0,28,29
 1430 180 1430 180 1473 236 c 0,30,31
 1495 262 1495 262 1523.5 284.5 c 128,-1,32
 1552 307 1552 307 1585 328 c 1,33,34
 1659 358 1659 358 1712 358 c 0,35,36
 1763 358 1763 358 1823 324 c 1,37,-1
 1823 1432 l 1,38,-1
 1858 1432 l 1,39,-1
 1858 233 l 2,19,20
66 1487 m 1,40,-1
 66 1651 l 1,41,-1
 801 1651 l 1,42,-1
 801 1622 l 1,43,-1
 96 1622 l 1,44,-1
 96 1487 l 1,45,-1
 66 1487 l 1,40,-1
1939 1487 m 1,46,-1
 1939 1622 l 1,47,-1
 1208 1622 l 1,48,-1
 1208 1651 l 1,49,-1
 1972 1651 l 1,50,-1
 1972 1487 l 1,51,-1
 1939 1487 l 1,46,-1
1206 971 m 1,52,53
 1165 924 1165 924 1137.5 885 c 128,-1,54
 1110 846 1110 846 1092 817 c 0,55,56
 1059 754 1059 754 1059 698 c 0,57,58
 1059 653 1059 653 1096 586 c 1,59,-1
 1139 518 l 2,60,61
 1145 514 1145 514 1163 494 c 0,62,63
 1174 479 1174 479 1182 467 c 128,-1,64
 1190 455 1190 455 1200 442 c 1,65,-1
 1178 414 l 1,66,67
 1165 422 1165 422 1150 428 c 128,-1,68
 1135 434 1135 434 1118 442 c 1,69,70
 1098 446 1098 446 1085.5 449.5 c 128,-1,71
 1073 453 1073 453 1063 453 c 0,72,73
 1026 453 1026 453 1006 428 c 0,74,75
 987 403 987 403 981 360 c 1,76,77
 981 319 981 319 999 281 c 0,78,79
 1020 236 1020 236 1053 197 c 1,80,-1
 1032 172 l 1,81,82
 987 207 987 207 954.5 237.5 c 128,-1,83
 922 268 922 268 899 295 c 0,84,85
 887 311 887 311 875.5 326.5 c 128,-1,86
 864 342 864 342 858 358 c 0,87,88
 848 416 848 416 848 426 c 0,89,90
 848 487 848 487 879 512 c 0,91,92
 918 545 918 545 973 545 c 0,93,94
 1024 545 1024 545 1083 510 c 1,95,-1
 866 807 l 1,96,97
 1012 940 1012 940 1012 1044 c 0,98,99
 1012 1090 1012 1090 988.5 1141 c 128,-1,100
 965 1192 965 1192 920 1251 c 1,101,-1
 979 1251 l 1,102,-1
 1206 971 l 1,52,53
965 1620 m 1,103,-1
 965 1634 l 1,104,105
 987 1638 987 1638 998.5 1642.5 c 128,-1,106
 1010 1647 1010 1647 1020 1657 c 0,107,108
 1028 1667 1028 1667 1037.5 1681.5 c 128,-1,109
 1047 1696 1047 1696 1047 1708 c 0,110,111
 1047 1749 1047 1749 995 1749 c 0,112,113
 975 1749 975 1749 961.5 1736.5 c 128,-1,114
 948 1724 948 1724 932 1700 c 1,115,-1
 918 1700 l 1,116,117
 926 1722 926 1722 931 1731.5 c 128,-1,118
 936 1741 936 1741 946 1749 c 0,119,120
 975 1772 975 1772 1004 1772 c 0,121,122
 1034 1772 1034 1772 1055.5 1755.5 c 128,-1,123
 1077 1739 1077 1739 1077 1710 c 0,124,125
 1077 1692 1077 1692 1068 1674.5 c 128,-1,126
 1059 1657 1059 1657 1036 1640 c 1,127,128
 1053 1634 1053 1634 1056 1631 c 128,-1,129
 1059 1628 1059 1628 1067 1622 c 0,130,131
 1075 1610 1075 1610 1080 1600.5 c 128,-1,132
 1085 1591 1085 1591 1085 1573 c 0,133,134
 1085 1522 1085 1522 1051 1499 c 0,135,136
 1016 1475 1016 1475 967 1475 c 256,137,138
 918 1475 918 1475 918 1497 c 0,139,140
 918 1507 918 1507 934 1507 c 0,141,142
 940 1507 940 1507 945 1506 c 128,-1,143
 950 1505 950 1505 961 1501 c 0,144,145
 981 1489 981 1489 1001 1495 c 0,146,147
 1024 1503 1024 1503 1036.5 1512.5 c 128,-1,148
 1049 1522 1049 1522 1053 1550 c 0,149,150
 1055 1573 1055 1573 1042.5 1591.5 c 128,-1,151
 1030 1610 1030 1610 1010 1618 c 0,152,153
 1008 1620 1008 1620 991 1620 c 2,154,-1
 965 1620 l 1,103,-1
EndSplineSet
Validated: 1
EndChar

StartChar: agrave
Encoding: 224 224 110
Width: 1536
VWidth: 2047
Flags: W
LayerCount: 2
Fore
SplineSet
1260 1843 m 1,0,-1
 1260 641 l 2,1,2
 1260 580 1260 580 1219 526 c 0,3,4
 1178 471 1178 471 1110 440.5 c 128,-1,5
 1042 410 1042 410 979 410 c 0,6,7
 924 410 924 410 879 442.5 c 128,-1,8
 834 475 834 475 834 530 c 0,9,10
 834 594 834 594 879 645 c 1,11,12
 918 696 918 696 989 737 c 0,13,14
 1026 754 1026 754 1056.5 761 c 128,-1,15
 1087 768 1087 768 1116 768 c 0,16,17
 1178 768 1178 768 1225 733 c 1,18,-1
 1225 1681 l 1,19,-1
 426 1300 l 1,20,-1
 426 231 l 2,21,22
 426 170 426 170 385 117 c 0,23,24
 344 61 344 61 276.5 30.5 c 128,-1,25
 209 0 209 0 145 0 c 0,26,27
 88 0 88 0 43 33 c 0,28,29
 0 66 0 66 0 121 c 0,30,31
 0 180 0 180 43 236 c 0,32,33
 63 258 63 258 92 281.5 c 128,-1,34
 121 305 121 305 156 328 c 1,35,36
 190 344 190 344 222 351 c 128,-1,37
 254 358 254 358 283 358 c 0,38,39
 344 358 344 358 391 324 c 1,40,-1
 391 1434 l 1,41,-1
 1260 1843 l 1,0,-1
EndSplineSet
Validated: 1
EndChar

StartChar: aacute
Encoding: 225 225 111
Width: 1536
VWidth: 2047
Flags: W
LayerCount: 2
Fore
SplineSet
1260 2253 m 1,0,-1
 1260 1051 l 2,1,2
 1260 989 1260 989 1219 936 c 0,3,4
 1178 881 1178 881 1110 850 c 128,-1,5
 1042 819 1042 819 979 819 c 0,6,7
 924 819 924 819 879 852 c 128,-1,8
 834 885 834 885 834 940 c 0,9,10
 834 1004 834 1004 879 1055 c 1,11,12
 918 1106 918 1106 989 1147 c 1,13,14
 1026 1163 1026 1163 1056.5 1170.5 c 128,-1,15
 1087 1178 1087 1178 1116 1178 c 0,16,17
 1178 1178 1178 1178 1225 1143 c 1,18,-1
 1225 2028 l 1,19,-1
 426 1274 l 1,20,-1
 426 231 l 2,21,22
 426 170 426 170 385 117 c 0,23,24
 344 61 344 61 276.5 30.5 c 128,-1,25
 209 0 209 0 145 0 c 0,26,27
 88 0 88 0 43 33 c 0,28,29
 0 66 0 66 0 121 c 0,30,31
 0 180 0 180 43 236 c 0,32,33
 63 258 63 258 92 281.5 c 128,-1,34
 121 305 121 305 156 328 c 1,35,36
 190 344 190 344 222 351 c 128,-1,37
 254 358 254 358 283 358 c 0,38,39
 344 358 344 358 391 324 c 1,40,-1
 391 1434 l 1,41,-1
 1260 2253 l 1,0,-1
EndSplineSet
Validated: 1
EndChar

StartChar: acircumflex
Encoding: 226 226 112
Width: 1536
VWidth: 2047
Flags: W
LayerCount: 2
Fore
SplineSet
1260 1434 m 1,0,-1
 1260 231 l 2,1,2
 1260 170 1260 170 1219 117 c 0,3,4
 1178 61 1178 61 1110 30.5 c 128,-1,5
 1042 0 1042 0 979 0 c 0,6,7
 924 0 924 0 879 33 c 128,-1,8
 834 66 834 66 834 121 c 0,9,10
 834 184 834 184 879 236 c 0,11,12
 918 287 918 287 989 328 c 1,13,14
 1026 344 1026 344 1056.5 351 c 128,-1,15
 1087 358 1087 358 1116 358 c 0,16,17
 1178 358 1178 358 1225 324 c 1,18,-1
 1225 1296 l 1,19,-1
 428 1673 l 1,20,-1
 428 641 l 2,21,22
 428 580 428 580 387 526 c 0,23,24
 346 471 346 471 278.5 440.5 c 128,-1,25
 211 410 211 410 147 410 c 0,26,27
 90 410 90 410 45 442 c 0,28,29
 2 475 2 475 2 530 c 0,30,31
 2 590 2 590 45 645 c 0,32,33
 66 668 66 668 94.5 691.5 c 128,-1,34
 123 715 123 715 158 737 c 1,35,36
 193 754 193 754 224.5 761 c 128,-1,37
 256 768 256 768 285 768 c 0,38,39
 346 768 346 768 393 733 c 1,40,-1
 393 1843 l 1,41,-1
 1260 1434 l 1,0,-1
EndSplineSet
Validated: 1
EndChar

StartChar: atilde
Encoding: 227 227 113
Width: 1536
VWidth: 2047
Flags: W
LayerCount: 2
Fore
SplineSet
1260 1434 m 1,0,-1
 1260 231 l 2,1,2
 1260 170 1260 170 1219 117 c 0,3,4
 1178 61 1178 61 1110 30.5 c 128,-1,5
 1042 0 1042 0 979 0 c 0,6,7
 924 0 924 0 879 33 c 128,-1,8
 834 66 834 66 834 121 c 0,9,10
 834 184 834 184 879 236 c 0,11,12
 918 287 918 287 989 328 c 1,13,14
 1026 344 1026 344 1056.5 351 c 128,-1,15
 1087 358 1087 358 1116 358 c 0,16,17
 1178 358 1178 358 1225 324 c 1,18,-1
 1225 1274 l 1,19,-1
 428 2028 l 1,20,-1
 428 1051 l 2,21,22
 428 989 428 989 387 936 c 0,23,24
 346 881 346 881 278.5 850 c 128,-1,25
 211 819 211 819 147 819 c 0,26,27
 90 819 90 819 45 852 c 0,28,29
 2 885 2 885 2 940 c 0,30,31
 2 999 2 999 45 1055 c 0,32,33
 66 1077 66 1077 94.5 1100.5 c 128,-1,34
 123 1124 123 1124 158 1147 c 1,35,36
 193 1163 193 1163 224.5 1170.5 c 128,-1,37
 256 1178 256 1178 285 1178 c 0,38,39
 346 1178 346 1178 393 1143 c 1,40,-1
 393 2253 l 1,41,-1
 1260 1434 l 1,0,-1
EndSplineSet
Validated: 1
EndChar

StartChar: adieresis
Encoding: 228 228 114
Width: 1536
VWidth: 2047
Flags: W
LayerCount: 2
Fore
SplineSet
0 0 m 1,0,-1
 0 1202 l 2,1,2
 0 1264 0 1264 41 1317 c 0,3,4
 82 1372 82 1372 149.5 1403 c 128,-1,5
 217 1434 217 1434 281 1434 c 0,6,7
 336 1434 336 1434 381 1401 c 128,-1,8
 426 1368 426 1368 426 1313 c 0,9,10
 426 1249 426 1249 381 1198 c 1,11,12
 342 1147 342 1147 270 1106 c 1,13,14
 233 1090 233 1090 202.5 1082.5 c 128,-1,15
 172 1075 172 1075 143 1075 c 0,16,17
 82 1075 82 1075 35 1110 c 1,18,-1
 35 172 l 1,19,-1
 831 612 l 1,20,-1
 831 1610 l 2,21,22
 831 1671 831 1671 872 1724 c 0,23,24
 913 1780 913 1780 981 1810.5 c 128,-1,25
 1049 1841 1049 1841 1112 1841 c 0,26,27
 1169 1841 1169 1841 1214 1808 c 0,28,29
 1257 1776 1257 1776 1257 1720 c 0,30,31
 1257 1661 1257 1661 1214 1606 c 0,32,33
 1194 1583 1194 1583 1165.5 1559.5 c 128,-1,34
 1137 1536 1137 1536 1102 1513 c 1,35,36
 1067 1497 1067 1497 1035.5 1490 c 128,-1,37
 1004 1483 1004 1483 975 1483 c 0,38,39
 913 1483 913 1483 866 1518 c 1,40,-1
 866 479 l 1,41,-1
 0 0 l 1,0,-1
EndSplineSet
Validated: 1
EndChar

StartChar: aring
Encoding: 229 229 115
Width: 1536
VWidth: 2047
Flags: W
LayerCount: 2
Fore
SplineSet
0 -2 m 1,0,-1
 0 1200 l 2,1,2
 0 1262 0 1262 41 1315 c 0,3,4
 82 1370 82 1370 149.5 1401 c 128,-1,5
 217 1432 217 1432 281 1432 c 0,6,7
 336 1432 336 1432 381 1399 c 128,-1,8
 426 1366 426 1366 426 1311 c 0,9,10
 426 1247 426 1247 381 1196 c 1,11,12
 342 1145 342 1145 270 1104 c 0,13,14
 233 1087 233 1087 202.5 1080 c 128,-1,15
 172 1073 172 1073 143 1073 c 0,16,17
 82 1073 82 1073 35 1108 c 1,18,-1
 35 229 l 1,19,-1
 834 1065 l 1,20,-1
 834 2021 l 2,21,22
 834 2083 834 2083 874 2136 c 0,23,24
 915 2191 915 2191 983 2222 c 128,-1,25
 1051 2253 1051 2253 1114 2253 c 0,26,27
 1171 2253 1171 2253 1217 2220 c 0,28,29
 1260 2187 1260 2187 1260 2132 c 0,30,31
 1260 2073 1260 2073 1217 2017 c 0,32,33
 1196 1995 1196 1995 1167.5 1971.5 c 128,-1,34
 1139 1948 1139 1948 1104 1925 c 1,35,36
 1069 1909 1069 1909 1037.5 1901.5 c 128,-1,37
 1006 1894 1006 1894 977 1894 c 0,38,39
 915 1894 915 1894 868 1929 c 1,40,-1
 868 909 l 1,41,-1
 0 -2 l 1,0,-1
EndSplineSet
Validated: 1
EndChar

StartChar: ae
Encoding: 230 230 116
Width: 1536
VWidth: 2047
Flags: W
LayerCount: 2
Fore
SplineSet
0 410 m 1,0,-1
 0 1612 l 2,1,2
 0 1673 0 1673 41 1726 c 0,3,4
 82 1782 82 1782 149.5 1812.5 c 128,-1,5
 217 1843 217 1843 281 1843 c 0,6,7
 336 1843 336 1843 381 1810.5 c 128,-1,8
 426 1778 426 1778 426 1722 c 0,9,10
 426 1659 426 1659 381 1608 c 1,11,12
 342 1556 342 1556 270 1516 c 0,13,14
 233 1499 233 1499 202.5 1492 c 128,-1,15
 172 1485 172 1485 143 1485 c 0,16,17
 82 1485 82 1485 35 1520 c 1,18,-1
 35 549 l 1,19,-1
 831 168 l 1,20,-1
 831 1202 l 2,21,22
 831 1264 831 1264 872 1317 c 0,23,24
 913 1372 913 1372 981 1403 c 128,-1,25
 1049 1434 1049 1434 1112 1434 c 0,26,27
 1169 1434 1169 1434 1214 1401 c 0,28,29
 1257 1368 1257 1368 1257 1313 c 0,30,31
 1257 1253 1257 1253 1214 1198 c 0,32,33
 1194 1176 1194 1176 1165.5 1152 c 128,-1,34
 1137 1128 1137 1128 1102 1106 c 1,35,36
 1067 1090 1067 1090 1035.5 1082.5 c 128,-1,37
 1004 1075 1004 1075 975 1075 c 0,38,39
 913 1075 913 1075 866 1110 c 1,40,-1
 866 0 l 1,41,-1
 0 410 l 1,0,-1
EndSplineSet
Validated: 1
EndChar

StartChar: ccedilla
Encoding: 231 231 117
Width: 1536
VWidth: 2047
Flags: W
LayerCount: 2
Fore
SplineSet
0 854 m 1,0,-1
 0 2021 l 2,1,2
 0 2083 0 2083 41 2136 c 0,3,4
 82 2191 82 2191 149.5 2222 c 128,-1,5
 217 2253 217 2253 281 2253 c 0,6,7
 336 2253 336 2253 381 2220 c 128,-1,8
 426 2187 426 2187 426 2132 c 0,9,10
 426 2068 426 2068 381 2017 c 1,11,12
 342 1966 342 1966 270 1925 c 1,13,14
 233 1909 233 1909 202.5 1901.5 c 128,-1,15
 172 1894 172 1894 143 1894 c 0,16,17
 82 1894 82 1894 35 1929 c 1,18,-1
 35 1014 l 1,19,-1
 834 227 l 1,20,-1
 834 1202 l 2,21,22
 834 1264 834 1264 874 1317 c 0,23,24
 915 1372 915 1372 983 1403 c 128,-1,25
 1051 1434 1051 1434 1114 1434 c 0,26,27
 1171 1434 1171 1434 1217 1401 c 0,28,29
 1260 1368 1260 1368 1260 1313 c 0,30,31
 1260 1253 1260 1253 1217 1198 c 0,32,33
 1196 1176 1196 1176 1167.5 1152 c 128,-1,34
 1139 1128 1139 1128 1104 1106 c 1,35,36
 1069 1090 1069 1090 1037.5 1082.5 c 128,-1,37
 1006 1075 1006 1075 977 1075 c 0,38,39
 915 1075 915 1075 868 1110 c 1,40,-1
 868 0 l 1,41,-1
 0 854 l 1,0,-1
EndSplineSet
Validated: 1
EndChar

StartChar: egrave
Encoding: 232 232 118
Width: 1024
VWidth: 2047
Flags: W
LayerCount: 2
Fore
SplineSet
424 1434 m 1,0,1
 428 1393 428 1393 437 1359 c 128,-1,2
 446 1325 446 1325 457 1296 c 0,3,4
 473 1241 473 1241 502 1204 c 2,5,-1
 537 1159 l 1,6,-1
 586 1102 l 1,7,-1
 676 997 l 1,8,9
 778 864 778 864 778 719 c 0,10,11
 778 684 778 684 772 642 c 128,-1,12
 766 600 766 600 748 555 c 0,13,14
 733 520 733 520 724 497.5 c 128,-1,15
 715 475 715 475 698 444 c 1,16,-1
 668 444 l 1,17,-1
 702 532 l 2,18,19
 709 551 709 551 715 569.5 c 128,-1,20
 721 588 721 588 725 610 c 2,21,-1
 731 666 l 1,22,-1
 733 690 l 1,23,-1
 733 731 l 1,24,25
 729 739 729 739 728 747.5 c 128,-1,26
 727 756 727 756 725 764 c 0,27,28
 725 768 725 768 709 813 c 0,29,30
 688 877 688 877 639 928 c 1,31,32
 596 983 596 983 541 1012 c 0,33,34
 512 1028 512 1028 480.5 1039.5 c 128,-1,35
 449 1051 449 1051 424 1051 c 1,36,-1
 424 383 l 1,37,-1
 254 213 l 1,38,-1
 424 43 l 1,39,-1
 381 0 l 1,40,-1
 213 170 l 1,41,-1
 43 0 l 1,42,-1
 0 43 l 1,43,-1
 170 213 l 1,44,-1
 0 383 l 1,45,-1
 43 424 l 1,46,-1
 213 256 l 1,47,-1
 381 424 l 1,48,-1
 381 1434 l 1,49,-1
 424 1434 l 1,0,1
852 182 m 0,50,51
 852 152 852 152 830.5 129 c 128,-1,52
 809 106 809 106 778 106 c 0,53,54
 748 106 748 106 726.5 129 c 128,-1,55
 705 152 705 152 705 182 c 0,56,57
 705 213 705 213 726.5 234.5 c 128,-1,58
 748 256 748 256 778 256 c 0,59,60
 809 256 809 256 830.5 234.5 c 128,-1,61
 852 213 852 213 852 182 c 0,50,51
EndSplineSet
Validated: 1
EndChar

StartChar: eacute
Encoding: 233 233 119
Width: 1024
VWidth: 2047
Flags: W
LayerCount: 2
Fore
SplineSet
424 1434 m 1,0,1
 428 1393 428 1393 437 1359 c 128,-1,2
 446 1325 446 1325 457 1296 c 0,3,4
 473 1241 473 1241 502 1204 c 2,5,-1
 537 1159 l 1,6,-1
 586 1102 l 1,7,-1
 676 997 l 1,8,9
 778 864 778 864 778 719 c 0,10,11
 778 684 778 684 772 642 c 128,-1,12
 766 600 766 600 748 555 c 0,13,14
 733 520 733 520 724 497.5 c 128,-1,15
 715 475 715 475 698 444 c 1,16,-1
 668 444 l 1,17,-1
 702 532 l 2,18,19
 709 551 709 551 715 569.5 c 128,-1,20
 721 588 721 588 725 610 c 2,21,-1
 731 666 l 1,22,-1
 733 690 l 1,23,-1
 733 731 l 1,24,25
 729 739 729 739 728 747.5 c 128,-1,26
 727 756 727 756 725 764 c 0,27,28
 725 768 725 768 709 813 c 0,29,30
 688 877 688 877 639 928 c 1,31,32
 596 983 596 983 541 1012 c 0,33,34
 512 1028 512 1028 480.5 1039.5 c 128,-1,35
 449 1051 449 1051 424 1051 c 1,36,-1
 424 383 l 1,37,-1
 254 213 l 1,38,-1
 424 43 l 1,39,-1
 381 0 l 1,40,-1
 213 170 l 1,41,-1
 43 0 l 1,42,-1
 0 43 l 1,43,-1
 170 213 l 1,44,-1
 0 383 l 1,45,-1
 43 424 l 1,46,-1
 213 256 l 1,47,-1
 381 424 l 1,48,-1
 381 1434 l 1,49,-1
 424 1434 l 1,0,1
EndSplineSet
Validated: 1
EndChar

StartChar: ecircumflex
Encoding: 234 234 120
Width: 2048
VWidth: 2047
Flags: W
LayerCount: 2
Fore
SplineSet
424 1307 m 1,0,-1
 424 383 l 1,1,-1
 254 213 l 1,2,-1
 424 43 l 1,3,-1
 381 0 l 1,4,-1
 213 170 l 1,5,-1
 43 0 l 1,6,-1
 0 43 l 1,7,-1
 170 213 l 1,8,-1
 0 383 l 1,9,-1
 43 424 l 1,10,-1
 213 256 l 1,11,-1
 381 424 l 1,12,-1
 381 1434 l 1,13,-1
 1661 1434 l 1,14,-1
 1661 383 l 1,15,-1
 1491 213 l 1,16,-1
 1661 43 l 1,17,-1
 1618 0 l 1,18,-1
 1448 170 l 1,19,-1
 1280 0 l 1,20,-1
 1237 43 l 1,21,-1
 1407 213 l 1,22,-1
 1237 383 l 1,23,-1
 1280 424 l 1,24,-1
 1448 256 l 1,25,-1
 1618 424 l 1,26,-1
 1618 1307 l 1,27,-1
 424 1307 l 1,0,-1
EndSplineSet
Validated: 1
EndChar

StartChar: edieresis
Encoding: 235 235 121
Width: 1024
VWidth: 2047
Flags: W
LayerCount: 2
Fore
SplineSet
424 735 m 1,0,-1
 424 383 l 1,1,-1
 256 213 l 1,2,-1
 424 43 l 1,3,-1
 383 0 l 1,4,-1
 213 170 l 1,5,-1
 43 0 l 1,6,-1
 0 43 l 1,7,-1
 170 213 l 1,8,-1
 0 383 l 1,9,-1
 43 424 l 1,10,-1
 213 256 l 1,11,-1
 383 424 l 1,12,-1
 383 1434 l 1,13,-1
 424 1434 l 1,14,-1
 461 1434 l 1,15,16
 471 1352 471 1352 494 1296 c 1,17,18
 506 1243 506 1243 537 1204 c 2,19,-1
 571 1159 l 1,20,-1
 621 1102 l 1,21,-1
 711 997 l 1,22,23
 813 864 813 864 813 719 c 0,24,25
 813 655 813 655 799 610 c 0,26,27
 795 598 795 598 782 562 c 1,28,29
 813 496 813 496 813 403 c 0,30,31
 813 344 813 344 799 295 c 1,32,-1
 760 295 l 1,33,-1
 766 352 l 1,34,-1
 768 375 l 1,35,-1
 768 416 l 2,36,37
 766 422 766 422 764 429 c 128,-1,38
 762 436 762 436 760 449 c 0,39,40
 760 453 760 453 743 498 c 0,41,42
 733 528 733 528 714.5 556 c 128,-1,43
 696 584 696 584 674 610 c 0,44,45
 627 668 627 668 575 696 c 0,46,47
 561 705 561 705 539.5 712 c 128,-1,48
 518 719 518 719 496.5 724 c 128,-1,49
 475 729 475 729 455.5 732 c 128,-1,50
 436 735 436 735 424 735 c 1,0,-1
494 958 m 0,51,52
 500 930 500 930 509 913.5 c 128,-1,53
 518 897 518 897 535 877 c 2,54,-1
 569 831 l 1,55,-1
 614 780 l 1,56,-1
 711 680 l 1,57,58
 727 657 727 657 738.5 640 c 128,-1,59
 750 623 750 623 758 606 c 1,60,-1
 766 666 l 1,61,-1
 768 690 l 1,62,-1
 768 731 l 1,63,64
 762 756 762 756 760 764 c 0,65,66
 760 768 760 768 743 813 c 0,67,68
 723 877 723 877 674 928 c 1,69,70
 631 983 631 983 575 1012 c 1,71,72
 524 1044 524 1044 473 1049 c 1,73,74
 477 1032 477 1032 482 1005.5 c 128,-1,75
 487 979 487 979 494 958 c 0,51,52
EndSplineSet
Validated: 1
EndChar

StartChar: igrave
Encoding: 236 236 122
Width: 2048
VWidth: 2047
Flags: W
LayerCount: 2
Fore
SplineSet
424 1307 m 1,0,-1
 424 383 l 1,1,-1
 256 213 l 1,2,-1
 424 43 l 1,3,-1
 383 0 l 1,4,-1
 213 170 l 1,5,-1
 43 0 l 1,6,-1
 0 43 l 1,7,-1
 170 213 l 1,8,-1
 0 383 l 1,9,-1
 43 424 l 1,10,-1
 213 256 l 1,11,-1
 383 424 l 1,12,-1
 383 1434 l 1,13,-1
 1761 1434 l 1,14,-1
 1761 383 l 1,15,-1
 1593 213 l 1,16,-1
 1761 43 l 1,17,-1
 1718 0 l 1,18,-1
 1548 170 l 1,19,-1
 1380 0 l 1,20,-1
 1337 43 l 1,21,-1
 1507 213 l 1,22,-1
 1337 383 l 1,23,-1
 1380 424 l 1,24,-1
 1548 256 l 1,25,-1
 1718 424 l 1,26,-1
 1718 1307 l 1,27,-1
 1094 1307 l 1,28,-1
 1094 383 l 1,29,-1
 924 213 l 1,30,-1
 1094 43 l 1,31,-1
 1051 0 l 1,32,-1
 883 170 l 1,33,-1
 713 0 l 1,34,-1
 670 43 l 1,35,-1
 840 213 l 1,36,-1
 670 383 l 1,37,-1
 713 424 l 1,38,-1
 883 256 l 1,39,-1
 1051 424 l 1,40,-1
 1051 1307 l 1,41,-1
 424 1307 l 1,0,-1
55 1509 m 1,42,-1
 55 1671 l 1,43,-1
 827 1671 l 1,44,-1
 827 1642 l 1,45,-1
 86 1642 l 1,46,-1
 86 1509 l 1,47,-1
 55 1509 l 1,42,-1
1954 1509 m 1,48,-1
 1954 1642 l 1,49,-1
 1221 1642 l 1,50,-1
 1221 1671 l 1,51,-1
 1985 1671 l 1,52,-1
 1985 1509 l 1,53,-1
 1954 1509 l 1,48,-1
977 1638 m 1,54,-1
 977 1653 l 1,55,56
 999 1657 999 1657 1010.5 1661 c 128,-1,57
 1022 1665 1022 1665 1032 1675 c 0,58,59
 1040 1686 1040 1686 1049.5 1700 c 128,-1,60
 1059 1714 1059 1714 1059 1726 c 0,61,62
 1059 1767 1059 1767 1008 1767 c 0,63,64
 987 1767 987 1767 974 1755 c 128,-1,65
 961 1743 961 1743 944 1718 c 1,66,-1
 930 1718 l 1,67,68
 938 1741 938 1741 943 1750 c 128,-1,69
 948 1759 948 1759 958 1767 c 0,70,71
 987 1790 987 1790 1016 1790 c 0,72,73
 1047 1790 1047 1790 1068.5 1773.5 c 128,-1,74
 1090 1757 1090 1757 1090 1729 c 0,75,76
 1090 1710 1090 1710 1080.5 1692.5 c 128,-1,77
 1071 1675 1071 1675 1049 1659 c 1,78,79
 1065 1653 1065 1653 1068 1650 c 128,-1,80
 1071 1647 1071 1647 1079 1640 c 0,81,82
 1087 1628 1087 1628 1092.5 1619 c 128,-1,83
 1098 1610 1098 1610 1098 1591 c 0,84,85
 1098 1540 1098 1540 1063 1518 c 0,86,87
 1028 1493 1028 1493 979 1493 c 256,88,89
 930 1493 930 1493 930 1516 c 0,90,91
 930 1526 930 1526 946 1526 c 0,92,93
 952 1526 952 1526 957.5 1525 c 128,-1,94
 963 1524 963 1524 973 1520 c 0,95,96
 993 1507 993 1507 1014 1513 c 0,97,98
 1036 1522 1036 1522 1048.5 1531 c 128,-1,99
 1061 1540 1061 1540 1065 1569 c 0,100,101
 1067 1591 1067 1591 1054.5 1609.5 c 128,-1,102
 1042 1628 1042 1628 1022 1636 c 0,103,104
 1020 1638 1020 1638 1004 1638 c 2,105,-1
 977 1638 l 1,54,-1
EndSplineSet
Validated: 1
EndChar

StartChar: iacute
Encoding: 237 237 123
Width: 3072
VWidth: 2047
Flags: W
LayerCount: 2
Fore
SplineSet
424 1307 m 1,0,-1
 424 383 l 1,1,-1
 256 213 l 1,2,-1
 424 43 l 1,3,-1
 383 0 l 1,4,-1
 213 170 l 1,5,-1
 43 0 l 1,6,-1
 0 43 l 1,7,-1
 170 213 l 1,8,-1
 0 383 l 1,9,-1
 43 424 l 1,10,-1
 213 256 l 1,11,-1
 383 424 l 1,12,-1
 383 1434 l 1,13,-1
 2773 1434 l 1,14,-1
 2773 383 l 1,15,-1
 2605 213 l 1,16,-1
 2773 43 l 1,17,-1
 2730 0 l 1,18,-1
 2560 170 l 1,19,-1
 2392 0 l 1,20,-1
 2349 43 l 1,21,-1
 2519 213 l 1,22,-1
 2349 383 l 1,23,-1
 2392 424 l 1,24,-1
 2560 256 l 1,25,-1
 2730 424 l 1,26,-1
 2730 1307 l 1,27,-1
 1597 1307 l 1,28,-1
 1597 383 l 1,29,-1
 1427 213 l 1,30,-1
 1597 43 l 1,31,-1
 1554 0 l 1,32,-1
 1386 170 l 1,33,-1
 1217 0 l 1,34,-1
 1174 43 l 1,35,-1
 1343 213 l 1,36,-1
 1174 383 l 1,37,-1
 1217 424 l 1,38,-1
 1386 256 l 1,39,-1
 1554 424 l 1,40,-1
 1554 1307 l 1,41,-1
 424 1307 l 1,0,-1
EndSplineSet
Validated: 1
EndChar

StartChar: idieresis
Encoding: 239 239 124
Width: 3072
VWidth: 2047
Flags: W
LayerCount: 2
Fore
SplineSet
2791 2249 m 1,0,-1
 2791 1051 l 2,1,2
 2791 989 2791 989 2750 936 c 0,3,4
 2707 881 2707 881 2639.5 850 c 128,-1,5
 2572 819 2572 819 2513 819 c 0,6,7
 2458 819 2458 819 2413 850 c 1,8,9
 2365 891 2365 891 2365 938 c 0,10,11
 2365 999 2365 999 2413 1053 c 1,12,13
 2449 1106 2449 1106 2519 1145 c 1,14,15
 2560 1161 2560 1161 2589.5 1168.5 c 128,-1,16
 2619 1176 2619 1176 2650 1176 c 0,17,18
 2705 1176 2705 1176 2757 1143 c 1,19,-1
 2757 2079 l 1,20,-1
 1618 1688 l 1,21,-1
 1618 641 l 2,22,23
 1618 612 1618 612 1606.5 583.5 c 128,-1,24
 1595 555 1595 555 1575 526 c 0,25,26
 1534 471 1534 471 1466.5 440.5 c 128,-1,27
 1399 410 1399 410 1333 410 c 0,28,29
 1278 410 1278 410 1233 440 c 1,30,31
 1190 477 1190 477 1190 528 c 0,32,33
 1190 590 1190 590 1233 643 c 0,34,35
 1255 670 1255 670 1284 692.5 c 128,-1,36
 1313 715 1313 715 1346 735 c 0,37,38
 1380 752 1380 752 1412 759 c 128,-1,39
 1444 766 1444 766 1473 766 c 0,40,41
 1503 766 1503 766 1528.5 758 c 128,-1,42
 1554 750 1554 750 1583 733 c 1,43,-1
 1583 1671 l 1,44,-1
 424 1284 l 1,45,-1
 424 231 l 2,46,47
 424 168 424 168 385 117 c 0,48,49
 342 61 342 61 274.5 30.5 c 128,-1,50
 207 0 207 0 145 0 c 0,51,52
 115 0 115 0 91.5 8 c 128,-1,53
 68 16 68 16 45 31 c 0,54,55
 0 70 0 70 0 119 c 0,56,57
 0 182 0 182 45 233 c 0,58,59
 66 260 66 260 93.5 283.5 c 128,-1,60
 121 307 121 307 158 326 c 0,61,62
 193 342 193 342 223.5 349 c 128,-1,63
 254 356 254 356 283 356 c 0,64,65
 344 356 344 356 389 324 c 1,66,-1
 389 1430 l 1,67,-1
 2791 2249 l 1,0,-1
EndSplineSet
Validated: 1
EndChar

StartChar: eth
Encoding: 240 240 125
Width: 3072
VWidth: 2047
Flags: W
LayerCount: 2
Fore
SplineSet
2793 1430 m 1,0,-1
 2793 231 l 2,1,2
 2793 170 2793 170 2753 117 c 0,3,4
 2710 61 2710 61 2642 30.5 c 128,-1,5
 2574 0 2574 0 2515 0 c 0,6,7
 2460 0 2460 0 2415 31 c 1,8,9
 2367 72 2367 72 2367 119 c 0,10,11
 2367 180 2367 180 2415 233 c 1,12,13
 2451 287 2451 287 2521 326 c 1,14,15
 2562 342 2562 342 2591.5 349 c 128,-1,16
 2621 356 2621 356 2652 356 c 0,17,18
 2707 356 2707 356 2759 324 c 1,19,-1
 2759 1284 l 1,20,-1
 1616 1665 l 1,21,-1
 1618 641 l 2,22,23
 1618 612 1618 612 1606.5 583.5 c 128,-1,24
 1595 555 1595 555 1575 526 c 0,25,26
 1534 471 1534 471 1466.5 440.5 c 128,-1,27
 1399 410 1399 410 1333 410 c 0,28,29
 1278 410 1278 410 1233 440 c 1,30,31
 1190 477 1190 477 1190 528 c 0,32,33
 1190 590 1190 590 1233 643 c 0,34,35
 1255 670 1255 670 1284 692.5 c 128,-1,36
 1313 715 1313 715 1346 735 c 0,37,38
 1380 752 1380 752 1412 759 c 128,-1,39
 1444 766 1444 766 1473 766 c 0,40,41
 1503 766 1503 766 1528.5 758 c 128,-1,42
 1554 750 1554 750 1583 733 c 1,43,-1
 1583 1681 l 1,44,-1
 426 2068 l 1,45,-1
 426 1051 l 2,46,47
 426 987 426 987 387 936 c 0,48,49
 344 881 344 881 276.5 850 c 128,-1,50
 209 819 209 819 147 819 c 0,51,52
 117 819 117 819 93.5 827.5 c 128,-1,53
 70 836 70 836 47 850 c 1,54,55
 2 889 2 889 2 938 c 0,56,57
 2 1001 2 1001 47 1053 c 0,58,59
 68 1079 68 1079 95.5 1102.5 c 128,-1,60
 123 1126 123 1126 160 1145 c 0,61,62
 195 1161 195 1161 225.5 1168.5 c 128,-1,63
 256 1176 256 1176 285 1176 c 0,64,65
 346 1176 346 1176 391 1143 c 1,66,-1
 391 2249 l 1,67,-1
 2793 1430 l 1,0,-1
EndSplineSet
Validated: 1
EndChar

